<svg width="221" height="125" viewBox="0 0 221 125" fill="none" xmlns="http://www.w3.org/2000/svg">
<rect x="83" y="7.03589" width="96.6213" height="4" rx="2" transform="rotate(-37.6621 83 7.03589)" fill="#B8E4DA"/>
<rect x="214" y="53.0359" width="96.6213" height="4" rx="2" transform="rotate(-37.6621 214 53.0359)" fill="#B8E4DA"/>
<rect x="185.002" y="77.8994" width="30.9318" height="4" rx="2" transform="rotate(-37.6621 185.002 77.8994)" fill="#B8E4DA"/>
<rect y="71.0359" width="96.6213" height="4" rx="2" transform="rotate(-37.6621 0 71.0359)" fill="#B8E4DA"/>
<rect x="48" y="17.0359" width="96.6213" height="4" rx="2" transform="rotate(-37.6621 48 17.0359)" fill="#B8E4DA"/>
<rect x="26" y="17.0359" width="96.6213" height="4" rx="2" transform="rotate(-37.6621 26 17.0359)" fill="#B8E4DA"/>
<rect x="147" y="89.0359" width="96.6213" height="4" rx="2" transform="rotate(-37.6621 147 89.0359)" fill="#B8E4DA"/>
<rect x="195" y="35.0359" width="96.6213" height="4" rx="2" transform="rotate(-37.6621 195 35.0359)" fill="#B8E4DA"/>
<rect x="209.002" y="109.899" width="30.9318" height="4" rx="2" transform="rotate(-37.6621 209.002 109.899)" fill="#B8E4DA"/>
<rect x="171" y="121.036" width="96.6213" height="4" rx="2" transform="rotate(-37.6621 171 121.036)" fill="#B8E4DA"/>
<rect x="207" y="77.0359" width="96.6213" height="4" rx="2" transform="rotate(-37.6621 207 77.0359)" fill="#B8E4DA"/>
<rect x="135" y="16.0359" width="96.6213" height="4" rx="2" transform="rotate(-37.6621 135 16.0359)" fill="#B8E4DA"/>
<rect x="123.845" y="25.5837" width="5.86557" height="4" rx="2" transform="rotate(-37.6621 123.845 25.5837)" fill="#B8E4DA"/>
<rect x="70.4932" y="68.1641" width="60.8243" height="4" rx="2" transform="rotate(-37.6621 70.4932 68.1641)" fill="#B8E4DA"/>
<rect x="134" y="67.1638" width="60.8243" height="4" rx="2" transform="rotate(-37.6621 134 67.1638)" fill="#B8E4DA"/>
<rect x="135" y="1.19629" width="129.617" height="4" rx="2" transform="rotate(-37.6621 135 1.19629)" fill="#B8E4DA"/>
<rect x="26" y="84.1963" width="129.617" height="4" rx="2" transform="rotate(-37.6621 26 84.1963)" fill="#B8E4DA"/>
<rect x="48" y="100.45" width="174.222" height="4" rx="2" transform="rotate(-37.6621 48 100.45)" fill="#B8E4DA"/>
<rect x="199" y="16.0359" width="96.6213" height="4" rx="2" transform="rotate(-37.6621 199 16.0359)" fill="#B8E4DA"/>
<rect x="187.845" y="25.5837" width="5.86557" height="4" rx="2" transform="rotate(-37.6621 187.845 25.5837)" fill="#B8E4DA"/>
<rect x="199" y="1.19629" width="129.617" height="4" rx="2" transform="rotate(-37.6621 199 1.19629)" fill="#B8E4DA"/>
<rect x="90" y="84.1963" width="129.617" height="4" rx="2" transform="rotate(-37.6621 90 84.1963)" fill="#B8E4DA"/>
<rect x="44" y="53.1963" width="129.617" height="4" rx="2" transform="rotate(-37.6621 44 53.1963)" fill="#B8E4DA"/>
</svg>
