<svg width="48" height="48" viewBox="0 0 48 48" fill="none" xmlns="http://www.w3.org/2000/svg">
<rect x="0.5" y="0.500244" width="47" height="47" rx="23.5" stroke="#20484F" stroke-opacity="0.1"/>
<path d="M24 14.0402C18.5 14.0402 14 18.5302 14 24.0602C14 29.0602 17.66 33.2102 22.44 33.9602V26.9602H19.9V24.0602H22.44V21.8502C22.44 19.3402 23.93 17.9602 26.22 17.9602C27.31 17.9602 28.45 18.1502 28.45 18.1502V20.6202H27.19C25.95 20.6202 25.56 21.3902 25.56 22.1802V24.0602H28.34L27.89 26.9602H25.56V33.9602C27.9164 33.5881 30.0622 32.3857 31.6099 30.5703C33.1576 28.7548 34.0054 26.4459 34 24.0602C34 18.5302 29.5 14.0402 24 14.0402Z" fill="#072125"/>
</svg>
