<svg width="1440" height="211" viewBox="0 0 1440 211" fill="none" xmlns="http://www.w3.org/2000/svg">
<rect width="1440" height="211" fill="#FAFAFA"/>
<path d="M388.331 123.051H401.284V125.789H398.734C397.653 125.789 396.758 126.164 396.032 126.916L387.368 136.159V140.636C387.368 141.388 387.74 141.763 388.5 141.763H391.709V144.5H376.086V141.763H379.312C380.072 141.763 380.427 141.388 380.427 140.636V136.449L371.543 126.916C370.817 126.164 369.922 125.789 368.841 125.789H366.308V123.051H382.217V125.789H380.629C380.258 125.789 380.005 125.923 379.886 126.191C379.785 126.46 379.819 126.701 380.021 126.916L385.274 132.519L390.526 126.916C390.712 126.701 390.763 126.46 390.645 126.191C390.543 125.923 390.29 125.789 389.901 125.789H388.331V123.051ZM359.738 144.5H355.313L337.7 129.429V140.636C337.7 141.388 338.076 141.763 338.824 141.763H342.049V144.5H328.875V141.763H332.096C332.847 141.763 333.222 141.388 333.222 140.636V126.916C333.222 126.164 332.847 125.789 332.096 125.789H328.875V123.051H339.919L355.245 136.159V126.916C355.245 126.164 354.874 125.789 354.131 125.789H350.905V123.051H364.078V125.789H360.853C360.093 125.789 359.738 126.164 359.738 126.916V144.5ZM309.424 121.716C299.387 121.716 292.742 126.882 292.742 133.776C292.742 140.67 299.387 145.836 309.424 145.836C319.463 145.836 326.109 140.67 326.109 133.776C326.109 126.882 319.463 121.716 309.424 121.716ZM309.424 124.931C315.182 124.931 318.992 128.719 318.992 133.776C318.992 138.831 315.182 142.621 309.424 142.621C303.669 142.621 299.857 138.831 299.857 133.776C299.857 128.719 303.669 124.931 309.424 124.931ZM283.74 122.796H286.477V130.04H283.74C282.375 125.549 275.591 124.877 271.337 124.877C267.616 124.877 264.836 125.855 264.836 127.745C264.836 129.929 270.07 129.991 274.302 130.564C279.752 131.302 287.7 131.175 287.7 138.299C287.7 143.919 280.235 145.826 275.561 145.836C267.19 145.855 264.593 143.445 262.678 143.445C262.146 143.445 261.872 143.958 261.872 144.985H259.134V136.856H261.872C262.901 141.756 270.433 142.823 273.608 142.823C275.858 142.823 281.647 142.382 281.647 139.707C281.647 137.172 277.932 137.304 273.419 136.661C268.472 135.953 258.716 135.799 258.716 129.221C258.716 124.144 264.404 121.716 270.786 121.716C278.199 121.716 281.863 124.122 282.961 124.122C283.48 124.122 283.74 123.646 283.74 122.796Z" fill="#20484F"/>
<path d="M843.574 146.391L845.166 142.697C846.886 143.98 849.166 144.646 851.421 144.646C853.092 144.646 854.138 144.005 854.138 143.029C854.113 140.315 844.164 142.441 844.091 135.622C844.066 132.163 847.141 129.492 851.499 129.492C854.089 129.492 856.678 130.134 858.525 131.599L857.037 135.367C855.347 134.289 853.244 133.52 851.244 133.52C849.883 133.52 848.989 134.162 848.989 134.98C849.014 137.645 859.036 136.185 859.139 142.697C859.139 146.234 856.143 148.722 851.834 148.722C848.679 148.722 845.78 147.979 843.574 146.389V146.391ZM904.578 141.364C904.081 142.247 903.304 142.942 902.368 143.337C901.433 143.733 900.392 143.808 899.409 143.55C898.426 143.292 897.557 142.716 896.938 141.913C896.32 141.109 895.986 140.123 895.989 139.11C895.988 138.508 896.105 137.911 896.335 137.354C896.565 136.798 896.903 136.291 897.329 135.865C897.756 135.439 898.262 135.1 898.82 134.869C899.377 134.638 899.975 134.519 900.579 134.519C902.294 134.519 903.783 135.47 904.579 136.852L908.961 134.416C907.32 131.497 904.165 129.492 900.579 129.492C895.267 129.492 890.963 133.804 890.963 139.11C890.963 144.415 895.267 148.722 900.579 148.722C902.291 148.726 903.972 148.271 905.446 147.405C906.921 146.538 908.135 145.293 908.961 143.798L904.578 141.365V141.364ZM861.345 121.52H866.835V148.365H861.345V121.522V121.52ZM911.118 121.52V148.365H916.601V140.315L923.117 148.365H930.143L921.859 138.801L929.528 129.88H922.807L916.601 137.287V121.522H911.117L911.118 121.52ZM883.141 141.418C882.346 142.726 880.704 143.695 878.857 143.695C878.253 143.695 877.656 143.576 877.099 143.345C876.542 143.115 876.035 142.777 875.609 142.351C875.183 141.925 874.845 141.42 874.615 140.863C874.385 140.307 874.267 139.711 874.268 139.11C874.267 138.508 874.385 137.912 874.615 137.355C874.845 136.799 875.183 136.293 875.609 135.867C876.035 135.44 876.541 135.102 877.098 134.871C877.656 134.64 878.253 134.52 878.857 134.519C880.704 134.519 882.346 135.543 883.141 136.876V141.418ZM883.141 129.879V132.061C882.243 130.546 880.011 129.492 877.678 129.492C872.858 129.492 869.065 133.75 869.065 139.081C869.065 144.416 872.858 148.722 877.678 148.722C880.011 148.722 882.243 147.669 883.141 146.16V148.341H888.63V129.879H883.141ZM809.653 141.388C809.653 143.26 808.14 144.774 806.267 144.774C805.822 144.774 805.381 144.686 804.97 144.515C804.558 144.345 804.185 144.095 803.87 143.781C803.556 143.466 803.307 143.093 803.137 142.682C802.968 142.272 802.881 141.832 802.882 141.388C802.882 140.944 802.968 140.504 803.138 140.094C803.308 139.684 803.557 139.311 803.872 138.997C804.186 138.683 804.559 138.434 804.97 138.264C805.382 138.095 805.822 138.007 806.267 138.007H809.653V141.389V141.388ZM811.342 141.388C811.342 140.944 811.429 140.504 811.598 140.094C811.768 139.684 812.018 139.311 812.332 138.997C812.647 138.683 813.02 138.434 813.431 138.264C813.843 138.094 814.283 138.007 814.728 138.007C815.173 138.007 815.614 138.095 816.025 138.265C816.437 138.434 816.81 138.684 817.124 138.998C817.439 139.312 817.688 139.685 817.858 140.095C818.027 140.505 818.114 140.945 818.113 141.389V149.85C818.114 150.294 818.027 150.734 817.858 151.144C817.688 151.555 817.439 151.928 817.125 152.242C816.81 152.557 816.437 152.806 816.026 152.976C815.614 153.147 815.174 153.235 814.728 153.235C814.283 153.235 813.842 153.147 813.431 152.977C813.019 152.806 812.645 152.557 812.331 152.242C812.016 151.928 811.767 151.554 811.598 151.144C811.428 150.733 811.341 150.293 811.342 149.849V141.389V141.388ZM814.728 127.803C814.283 127.803 813.842 127.715 813.431 127.545C813.019 127.374 812.645 127.125 812.331 126.81C812.016 126.495 811.767 126.122 811.598 125.711C811.428 125.301 811.341 124.861 811.342 124.416C811.342 123.973 811.429 123.533 811.598 123.123C811.768 122.713 812.018 122.34 812.332 122.026C812.647 121.712 813.02 121.463 813.431 121.293C813.843 121.123 814.283 121.036 814.728 121.036C815.173 121.036 815.614 121.123 816.025 121.293C816.436 121.463 816.81 121.712 817.124 122.026C817.438 122.34 817.688 122.713 817.857 123.123C818.027 123.533 818.114 123.973 818.113 124.416V127.803H814.728ZM814.728 129.522C815.173 129.522 815.614 129.61 816.025 129.779C816.436 129.949 816.81 130.198 817.124 130.512C817.438 130.826 817.688 131.199 817.857 131.609C818.027 132.019 818.114 132.459 818.113 132.903C818.113 134.774 816.6 136.289 814.728 136.289H806.243C805.798 136.289 805.357 136.201 804.945 136.031C804.534 135.86 804.16 135.611 803.846 135.296C803.531 134.982 803.282 134.608 803.112 134.198C802.943 133.787 802.856 133.347 802.857 132.903C802.856 132.459 802.943 132.019 803.113 131.609C803.283 131.199 803.532 130.826 803.847 130.512C804.161 130.198 804.535 129.949 804.946 129.779C805.357 129.609 805.798 129.522 806.243 129.522H814.728ZM828.294 132.903C828.293 132.459 828.38 132.019 828.55 131.609C828.72 131.199 828.969 130.826 829.283 130.512C829.598 130.198 829.971 129.949 830.382 129.779C830.793 129.61 831.234 129.522 831.679 129.522C832.124 129.522 832.565 129.609 832.976 129.779C833.387 129.949 833.761 130.198 834.075 130.512C834.39 130.826 834.639 131.199 834.809 131.609C834.979 132.019 835.066 132.459 835.065 132.903C835.065 134.774 833.552 136.289 831.679 136.289H828.294V132.903ZM826.603 132.903C826.603 134.774 825.09 136.289 823.219 136.289C822.773 136.289 822.332 136.201 821.921 136.031C821.509 135.86 821.136 135.611 820.821 135.296C820.507 134.982 820.257 134.608 820.088 134.198C819.918 133.787 819.831 133.347 819.833 132.903V124.416C819.832 123.973 819.919 123.533 820.089 123.123C820.258 122.713 820.508 122.34 820.822 122.026C821.137 121.712 821.51 121.463 821.922 121.293C822.333 121.123 822.774 121.036 823.219 121.036C823.664 121.036 824.104 121.123 824.515 121.293C824.926 121.463 825.3 121.712 825.614 122.026C825.929 122.34 826.178 122.713 826.348 123.123C826.517 123.533 826.604 123.973 826.603 124.416V132.903ZM823.219 146.468C823.664 146.468 824.104 146.556 824.516 146.726C824.927 146.896 825.3 147.145 825.615 147.459C825.929 147.773 826.178 148.146 826.348 148.556C826.518 148.966 826.604 149.406 826.603 149.85C826.604 150.294 826.518 150.734 826.348 151.144C826.178 151.555 825.929 151.928 825.615 152.242C825.301 152.557 824.927 152.806 824.516 152.976C824.105 153.147 823.664 153.235 823.219 153.235C822.773 153.235 822.332 153.147 821.921 152.977C821.509 152.806 821.136 152.557 820.821 152.242C820.507 151.928 820.257 151.554 820.088 151.144C819.918 150.733 819.831 150.293 819.833 149.849V146.468H823.219ZM823.219 144.774C822.773 144.774 822.332 144.686 821.921 144.516C821.509 144.345 821.136 144.096 820.821 143.781C820.507 143.467 820.257 143.093 820.088 142.682C819.918 142.272 819.831 141.832 819.833 141.388C819.832 140.944 819.919 140.504 820.089 140.094C820.258 139.684 820.508 139.311 820.822 138.997C821.137 138.683 821.51 138.434 821.922 138.264C822.333 138.094 822.774 138.007 823.219 138.007H831.704C832.149 138.007 832.59 138.095 833.001 138.265C833.412 138.434 833.785 138.684 834.1 138.998C834.414 139.312 834.663 139.685 834.833 140.095C835.003 140.505 835.09 140.945 835.089 141.389C835.09 141.833 835.003 142.273 834.833 142.683C834.664 143.094 834.414 143.467 834.1 143.781C833.786 144.096 833.412 144.345 833.001 144.515C832.59 144.686 832.149 144.774 831.704 144.774H823.219Z" fill="#20484F"/>
<g clip-path="url(#clip0_79_1771)">
<path d="M1047.75 123.582C1045.99 123.582 1045.46 124.356 1045.46 126.08V128.929H1050.18L1049.72 133.573H1045.46V147.609H1039.8V133.573H1036V128.964H1039.8V126.185C1039.8 121.472 1041.7 119.009 1046.94 119.009C1048.03 119.009 1049.16 119.079 1050.25 119.22V123.582" fill="#20484F"/>
<path d="M1050.56 137.689C1050.56 132.482 1053.03 128.542 1058.23 128.542C1061.05 128.542 1062.77 129.985 1063.61 131.814V128.964H1069.03V147.644H1063.58V144.83C1062.81 146.624 1061.01 148.031 1058.2 148.031C1053.03 148.031 1050.53 144.126 1050.53 138.885L1050.56 137.689ZM1056.23 138.955C1056.23 141.734 1057.25 143.599 1059.89 143.599C1062.21 143.599 1063.37 141.91 1063.37 139.237V137.337C1063.37 134.663 1062.17 132.975 1059.89 132.975C1057.25 132.975 1056.23 134.804 1056.23 137.618V138.955Z" fill="#20484F"/>
<path d="M1080.78 128.542C1082.96 128.542 1085.07 129 1086.2 129.809L1084.93 133.819C1083.77 133.256 1082.47 132.975 1081.17 132.975C1078.11 132.975 1076.77 134.734 1076.77 137.759V138.85C1076.77 141.875 1078.11 143.634 1081.17 143.634C1082.47 143.634 1083.77 143.317 1084.93 142.754L1086.2 146.765C1085.07 147.539 1083 148.031 1080.78 148.031C1074.13 148.031 1071.14 144.478 1071.14 138.744V137.865C1071.14 132.131 1074.13 128.542 1080.78 128.542Z" fill="#20484F"/>
<path d="M1086.94 138.99V137.337C1086.94 132.025 1089.96 128.542 1096.12 128.542C1101.92 128.542 1104.49 132.06 1104.49 137.267V140.257H1092.6C1092.71 142.825 1093.87 143.95 1097 143.95C1099.04 143.95 1101.08 143.563 1103.01 142.825L1104.03 146.694C1102.56 147.468 1099.5 148.066 1096.79 148.066C1089.61 148.031 1086.94 144.478 1086.94 138.99ZM1092.6 136.528H1099.43V136.071C1099.43 134.03 1098.62 132.412 1096.12 132.412C1093.59 132.412 1092.6 134.03 1092.6 136.528Z" fill="#20484F"/>
<path d="M1125.46 138.885C1125.46 144.091 1122.96 148.031 1117.75 148.031C1114.94 148.031 1112.97 146.624 1112.2 144.83V147.644H1106.85V119.572L1112.51 119.079V131.568C1113.32 129.914 1115.15 128.577 1117.79 128.577C1122.96 128.577 1125.49 132.482 1125.49 137.724L1125.46 138.885ZM1119.79 137.583C1119.79 134.945 1118.77 132.975 1116.07 132.975C1113.74 132.975 1112.51 134.628 1112.51 137.302V139.272C1112.51 141.945 1113.78 143.599 1116.07 143.599C1118.77 143.599 1119.79 141.629 1119.79 138.99V137.583Z" fill="#20484F"/>
<path d="M1127.32 138.744V137.794C1127.32 132.412 1130.38 128.542 1136.61 128.542C1142.84 128.542 1145.9 132.412 1145.9 137.794V138.744C1145.9 144.126 1142.84 147.996 1136.61 147.996C1130.38 147.996 1127.32 144.161 1127.32 138.744ZM1140.27 137.407C1140.27 134.945 1139.25 132.975 1136.61 132.975C1133.97 132.975 1132.95 134.945 1132.95 137.407V139.166C1132.95 141.629 1133.97 143.599 1136.61 143.599C1139.25 143.599 1140.27 141.629 1140.27 139.166V137.407Z" fill="#20484F"/>
<path d="M1147.83 138.744V137.794C1147.83 132.412 1150.89 128.542 1157.12 128.542C1163.35 128.542 1166.41 132.412 1166.41 137.794V138.744C1166.41 144.126 1163.35 147.996 1157.12 147.996C1150.89 147.996 1147.83 144.161 1147.83 138.744ZM1160.78 137.407C1160.78 134.945 1159.76 132.975 1157.12 132.975C1154.48 132.975 1153.46 134.945 1153.46 137.407V139.166C1153.46 141.629 1154.48 143.599 1157.12 143.599C1159.76 143.599 1160.78 141.629 1160.78 139.166V137.407Z" fill="#20484F"/>
<path d="M1174.18 137.865L1179.77 128.929H1185.75L1179.91 138.181L1186 147.644H1179.98L1174.18 138.498V147.644H1168.55V119.572L1174.18 119.044" fill="#20484F"/>
</g>
<g clip-path="url(#clip1_79_1771)">
<path d="M696.38 124.89V144.108L683.199 130.331V142.985H680.453V123.667L693.659 137.469V124.89H696.38Z" fill="#20484F"/>
<path d="M665.924 124.516C665.924 124.516 663.253 124.541 661.106 125.813C661.106 125.813 658.959 127.061 657.711 129.208C657.711 129.208 656.437 131.329 656.412 134C656.412 134 656.437 136.645 657.686 138.742C657.686 138.742 658.959 140.839 661.081 142.061C661.081 142.061 663.228 143.309 665.924 143.334C665.924 143.334 668.545 143.309 670.667 142.037C670.667 142.037 672.789 140.789 674.037 138.667C674.037 138.667 675.31 136.546 675.335 133.925C675.335 133.925 675.31 131.304 674.037 129.183C674.037 129.183 672.789 127.061 670.667 125.813C670.667 125.813 668.545 124.541 665.924 124.516ZM665.899 127.086C665.899 127.086 667.821 127.111 669.319 128.01C669.319 128.01 670.817 128.908 671.69 130.431C671.69 130.431 672.589 131.978 672.589 133.95C672.589 133.95 672.564 135.847 671.69 137.394C671.69 137.394 670.792 138.917 669.269 139.815C669.269 139.815 667.771 140.739 665.899 140.739C665.899 140.739 664.002 140.714 662.479 139.84C662.479 139.84 660.956 138.942 660.057 137.419C660.057 137.419 659.183 135.872 659.159 133.95C659.159 133.95 659.183 132.003 660.057 130.456C660.057 130.456 660.931 128.908 662.454 128.01C662.454 128.01 663.977 127.111 665.899 127.086Z" fill="#20484F"/>
<path d="M649.772 127.436V142.985H647.026V127.436H642.882V124.865H653.941V127.436H649.772Z" fill="#20484F"/>
<path d="M640.311 127.436H636.142V142.985H633.396V127.436H629.251V124.865H640.311V127.436Z" fill="#20484F"/>
<path d="M624.558 124.865V142.985H621.812V124.865H624.558Z" fill="#20484F"/>
<path d="M615.421 124.865V136.521C615.421 136.521 615.396 138.492 614.548 140.015C614.548 140.015 613.674 141.537 612.176 142.436C612.176 142.436 610.678 143.309 608.756 143.334C608.756 143.334 606.809 143.309 605.286 142.436C605.286 142.436 603.788 141.537 602.914 140.015C602.914 140.015 602.066 138.492 602.041 136.521V124.865H604.787V135.772C604.787 135.772 604.787 136.945 604.912 137.644C604.912 137.644 605.036 138.343 605.361 138.892C605.361 138.892 605.86 139.765 606.759 140.24C606.759 140.24 607.658 140.739 608.756 140.739C608.756 140.739 609.829 140.739 610.728 140.24C610.728 140.24 611.602 139.765 612.126 138.892C612.126 138.892 612.451 138.343 612.575 137.644L612.675 135.772V124.865H615.421Z" fill="#20484F"/>
<path d="M581.695 124.865H584.691L589.683 137.419L594.751 124.865H597.747L589.633 144.333L581.695 124.865Z" fill="#20484F"/>
<path d="M565.768 127.461C565.768 127.461 565.169 127.086 564.245 127.086C564.245 127.086 563.097 127.111 562.373 127.735C562.373 127.735 561.649 128.359 561.624 129.333C561.624 129.333 561.599 130.256 562.473 130.855L562.922 131.155L563.621 131.479L565.393 132.203C565.393 132.203 567.565 133.101 568.589 134.374C568.589 134.374 569.637 135.672 569.612 137.469C569.612 137.469 569.612 139.166 568.863 140.489C568.863 140.489 568.14 141.787 566.841 142.561C566.841 142.561 565.543 143.31 563.896 143.334C563.896 143.334 561.449 143.31 559.926 141.937C559.926 141.937 558.404 140.539 558.029 137.993L560.8 137.344L561 138.567C561 138.567 561.125 139.017 561.324 139.341C561.324 139.341 561.674 139.99 562.373 140.364C562.373 140.364 563.072 140.739 563.921 140.739C563.921 140.739 565.219 140.714 566.043 139.89C566.043 139.89 566.866 139.067 566.891 137.744C566.891 137.744 566.866 136.196 565.643 135.348C565.643 135.348 564.994 134.923 564.295 134.649L562.573 133.9C562.573 133.9 558.828 132.353 558.853 129.333C558.853 129.333 558.853 127.935 559.577 126.862C559.577 126.862 560.276 125.789 561.499 125.165C561.499 125.165 562.722 124.541 564.27 124.516C564.27 124.516 565.893 124.516 567.066 125.24C567.066 125.24 568.264 125.963 569.163 127.561L566.966 128.883C566.966 128.883 566.367 127.86 565.768 127.461Z" fill="#20484F"/>
<path d="M552.562 124.865V142.985H549.816V124.865H552.562Z" fill="#20484F"/>
<path d="M540.679 124.865H543.425V136.521C543.425 136.521 543.4 138.492 542.551 140.015C542.551 140.015 541.677 141.537 540.179 142.436C540.179 142.436 538.682 143.309 536.759 143.334C536.759 143.334 534.812 143.309 533.289 142.436C533.289 142.436 531.792 141.537 530.918 140.015C530.918 140.015 530.069 138.492 530.044 136.521V124.865H532.79V135.772C532.79 135.772 532.79 136.945 532.915 137.644C532.915 137.644 533.04 138.343 533.364 138.892C533.364 138.892 533.864 139.765 534.762 140.24C534.762 140.24 535.661 140.739 536.759 140.739C536.759 140.739 537.833 140.739 538.732 140.24C538.732 140.24 539.605 139.765 540.13 138.892C540.13 138.892 540.454 138.343 540.579 137.644L540.679 135.772V124.865Z" fill="#20484F"/>
<path d="M515.166 124.516C515.166 124.516 512.494 124.541 510.348 125.813C510.348 125.813 508.201 127.061 506.952 129.208C506.952 129.208 505.679 131.329 505.654 134C505.654 134 505.679 136.645 506.927 138.742C506.927 138.742 508.201 140.839 510.323 142.061C510.323 142.061 512.469 143.309 515.166 143.334C515.166 143.334 517.787 143.309 519.909 142.037C519.909 142.037 522.031 140.789 523.279 138.667C523.279 138.667 524.552 136.546 524.577 133.925C524.577 133.925 524.552 131.304 523.279 129.183C523.279 129.183 522.031 127.061 519.909 125.813C519.909 125.813 517.787 124.541 515.166 124.516ZM515.141 127.086C515.141 127.086 517.063 127.111 518.561 128.01C518.561 128.01 520.059 128.908 520.932 130.431C520.932 130.431 521.806 131.978 521.831 133.95C521.831 133.95 521.806 135.847 520.932 137.394C520.932 137.394 520.034 138.917 518.511 139.815C518.511 139.815 517.013 140.739 515.141 140.739C515.141 140.739 513.243 140.714 511.721 139.84C511.721 139.84 510.198 138.942 509.299 137.419C509.299 137.419 508.425 135.872 508.4 133.95C508.4 133.95 508.425 132.003 509.299 130.456C509.299 130.456 510.173 128.908 511.696 128.01C511.696 128.01 513.218 127.111 515.141 127.086Z" fill="#20484F"/>
<path d="M497.366 124.865V140.389H502.684V142.985H494.62V124.865H497.366Z" fill="#20484F"/>
</g>
<path d="M426.4 69H428.44L432.808 53.688L437.176 69H439.216L444.352 51.12H442.408L438.16 66.36L433.84 51.12H431.8L427.456 66.408L423.208 51.12H421.264L426.4 69ZM451.368 69.288C452.248 69.288 453.048 69.144 453.768 68.856C454.504 68.552 455.136 68.16 455.664 67.68C456.192 67.184 456.584 66.648 456.84 66.072L455.304 65.256C454.904 65.928 454.384 66.488 453.744 66.936C453.104 67.384 452.312 67.608 451.368 67.608C450.6 67.608 449.88 67.424 449.208 67.056C448.536 66.688 447.984 66.176 447.552 65.52C447.136 64.848 446.912 64.048 446.88 63.12H457.008C457.04 62.912 457.064 62.712 457.08 62.52C457.096 62.312 457.104 62.128 457.104 61.968C457.104 61.2 456.968 60.456 456.696 59.736C456.424 59 456.032 58.344 455.52 57.768C455.008 57.176 454.384 56.712 453.648 56.376C452.928 56.024 452.104 55.848 451.176 55.848C450.008 55.848 448.952 56.136 448.008 56.712C447.08 57.288 446.344 58.08 445.8 59.088C445.256 60.08 444.984 61.224 444.984 62.52C444.984 63.816 445.264 64.976 445.824 66C446.384 67.024 447.144 67.832 448.104 68.424C449.08 69 450.168 69.288 451.368 69.288ZM451.176 57.528C451.896 57.528 452.552 57.696 453.144 58.032C453.752 58.368 454.232 58.832 454.584 59.424C454.952 60 455.144 60.672 455.16 61.44H446.928C447.024 60.64 447.272 59.952 447.672 59.376C448.088 58.784 448.6 58.328 449.208 58.008C449.816 57.688 450.472 57.528 451.176 57.528ZM467.188 69H468.988L472.084 58.824L475.156 69H476.956L481.372 56.136H479.356L476.068 66.24L472.972 56.136H471.172L468.1 66.24L464.812 56.136H462.772L467.188 69ZM489.27 69.288C490.47 69.288 491.558 69 492.534 68.424C493.526 67.848 494.318 67.056 494.91 66.048C495.502 65.024 495.798 63.856 495.798 62.544C495.798 61.248 495.51 60.096 494.934 59.088C494.374 58.08 493.598 57.288 492.606 56.712C491.63 56.136 490.518 55.848 489.27 55.848C488.022 55.848 486.902 56.144 485.91 56.736C484.934 57.312 484.158 58.104 483.582 59.112C483.006 60.12 482.718 61.264 482.718 62.544C482.718 63.84 483.006 65 483.582 66.024C484.174 67.032 484.966 67.832 485.958 68.424C486.95 69 488.054 69.288 489.27 69.288ZM489.27 67.488C488.406 67.488 487.622 67.272 486.918 66.84C486.23 66.408 485.678 65.816 485.262 65.064C484.846 64.312 484.638 63.472 484.638 62.544C484.638 61.616 484.846 60.784 485.262 60.048C485.678 59.312 486.23 58.728 486.918 58.296C487.622 57.864 488.406 57.648 489.27 57.648C490.134 57.648 490.91 57.864 491.598 58.296C492.302 58.728 492.854 59.312 493.254 60.048C493.67 60.784 493.878 61.616 493.878 62.544C493.878 63.472 493.67 64.312 493.254 65.064C492.854 65.816 492.302 66.408 491.598 66.84C490.91 67.272 490.134 67.488 489.27 67.488ZM498.973 69H500.773V61.08C500.773 60.024 501.053 59.208 501.613 58.632C502.173 58.056 502.917 57.768 503.845 57.768H504.973V55.968H504.157C503.373 55.968 502.693 56.104 502.117 56.376C501.557 56.648 501.109 57.032 500.773 57.528V56.136H498.973V69ZM507.082 69H508.882V65.136L511.33 62.616L515.962 69H518.122L512.626 61.296L517.666 56.136H515.338L508.882 62.664V50.88H507.082V69ZM527.141 69H528.941L532.037 58.824L535.109 69H536.909L541.325 56.136H539.309L536.021 66.24L532.925 56.136H531.125L528.053 66.24L524.765 56.136H522.725L527.141 69ZM543.434 53.76H545.234V51.12H543.434V53.76ZM543.434 69H545.234V56.136H543.434V69ZM553.838 69.144C553.982 69.144 554.174 69.136 554.414 69.12C554.654 69.104 554.87 69.072 555.062 69.024V67.392C554.934 67.408 554.782 67.424 554.606 67.44C554.43 67.456 554.278 67.464 554.15 67.464C553.35 67.464 552.798 67.256 552.494 66.84C552.19 66.424 552.038 65.896 552.038 65.256V57.936H554.87V56.136H552.038V53.16H550.238V54.24C550.238 54.784 550.078 55.24 549.758 55.608C549.438 55.96 549.006 56.136 548.462 56.136H547.862V57.936H550.238V65.256C550.238 66.504 550.55 67.464 551.174 68.136C551.798 68.808 552.686 69.144 553.838 69.144ZM558.223 69H560.023V61.344C560.023 60.192 560.343 59.288 560.983 58.632C561.639 57.976 562.447 57.648 563.407 57.648C564.367 57.648 565.159 57.976 565.783 58.632C566.423 59.272 566.743 60.176 566.743 61.344V69H568.543V60.648C568.543 59.736 568.327 58.92 567.895 58.2C567.479 57.464 566.903 56.888 566.167 56.472C565.447 56.056 564.631 55.848 563.719 55.848C562.919 55.848 562.199 56.016 561.559 56.352C560.919 56.688 560.407 57.144 560.023 57.72V51.12H558.223V69ZM580.523 69.288C581.419 69.288 582.211 69.136 582.899 68.832C583.587 68.512 584.123 68.072 584.507 67.512C584.907 66.952 585.107 66.32 585.107 65.616C585.107 64.752 584.811 64 584.219 63.36C583.643 62.72 582.835 62.248 581.795 61.944L579.659 61.32C579.435 61.256 579.171 61.16 578.867 61.032C578.579 60.904 578.323 60.712 578.099 60.456C577.875 60.2 577.763 59.856 577.763 59.424C577.763 58.864 577.979 58.4 578.411 58.032C578.843 57.664 579.419 57.48 580.139 57.48C580.875 57.48 581.539 57.688 582.131 58.104C582.739 58.504 583.203 59.064 583.523 59.784L585.059 59.064C584.691 58.056 584.059 57.272 583.163 56.712C582.283 56.136 581.299 55.848 580.211 55.848C579.411 55.848 578.683 56 578.027 56.304C577.371 56.608 576.851 57.04 576.467 57.6C576.083 58.16 575.891 58.816 575.891 59.568C575.891 60.368 576.155 61.072 576.683 61.68C577.211 62.288 578.067 62.76 579.251 63.096L581.099 63.624C581.355 63.688 581.651 63.792 581.987 63.936C582.323 64.08 582.619 64.288 582.875 64.56C583.131 64.816 583.259 65.168 583.259 65.616C583.259 66.224 582.995 66.72 582.467 67.104C581.939 67.472 581.291 67.656 580.523 67.656C579.723 67.656 578.987 67.424 578.315 66.96C577.659 66.496 577.147 65.872 576.779 65.088L575.267 65.808C575.683 66.88 576.355 67.728 577.283 68.352C578.211 68.976 579.291 69.288 580.523 69.288ZM594.294 69.288C595.494 69.288 596.582 69 597.558 68.424C598.55 67.848 599.342 67.056 599.934 66.048C600.526 65.024 600.822 63.856 600.822 62.544C600.822 61.248 600.534 60.096 599.958 59.088C599.398 58.08 598.622 57.288 597.63 56.712C596.654 56.136 595.542 55.848 594.294 55.848C593.046 55.848 591.926 56.144 590.934 56.736C589.958 57.312 589.182 58.104 588.606 59.112C588.03 60.12 587.742 61.264 587.742 62.544C587.742 63.84 588.03 65 588.606 66.024C589.198 67.032 589.99 67.832 590.982 68.424C591.974 69 593.078 69.288 594.294 69.288ZM594.294 67.488C593.43 67.488 592.646 67.272 591.942 66.84C591.254 66.408 590.702 65.816 590.286 65.064C589.87 64.312 589.662 63.472 589.662 62.544C589.662 61.616 589.87 60.784 590.286 60.048C590.702 59.312 591.254 58.728 591.942 58.296C592.646 57.864 593.43 57.648 594.294 57.648C595.158 57.648 595.934 57.864 596.622 58.296C597.326 58.728 597.878 59.312 598.278 60.048C598.694 60.784 598.902 61.616 598.902 62.544C598.902 63.472 598.694 64.312 598.278 65.064C597.878 65.816 597.326 66.408 596.622 66.84C595.934 67.272 595.158 67.488 594.294 67.488ZM603.996 69H605.796V61.344C605.796 60.192 606.108 59.288 606.732 58.632C607.356 57.976 608.132 57.648 609.06 57.648C609.988 57.648 610.756 57.976 611.364 58.632C611.972 59.272 612.276 60.176 612.276 61.344V69H614.076V61.344C614.076 60.192 614.388 59.288 615.012 58.632C615.636 57.976 616.412 57.648 617.34 57.648C618.268 57.648 619.036 57.976 619.644 58.632C620.252 59.272 620.556 60.176 620.556 61.344V69H622.356V60.648C622.356 59.736 622.132 58.92 621.684 58.2C621.252 57.464 620.668 56.888 619.932 56.472C619.212 56.056 618.42 55.848 617.556 55.848C616.692 55.848 615.892 56.056 615.156 56.472C614.436 56.888 613.884 57.496 613.5 58.296C613.1 57.56 612.532 56.968 611.796 56.52C611.06 56.072 610.252 55.848 609.372 55.848C608.636 55.848 607.948 56.016 607.308 56.352C606.684 56.672 606.18 57.128 605.796 57.72V56.136H603.996V69ZM631.649 69.288C632.529 69.288 633.329 69.144 634.049 68.856C634.785 68.552 635.417 68.16 635.945 67.68C636.473 67.184 636.865 66.648 637.121 66.072L635.585 65.256C635.185 65.928 634.665 66.488 634.025 66.936C633.385 67.384 632.593 67.608 631.649 67.608C630.881 67.608 630.161 67.424 629.489 67.056C628.817 66.688 628.265 66.176 627.833 65.52C627.417 64.848 627.193 64.048 627.161 63.12H637.289C637.321 62.912 637.345 62.712 637.361 62.52C637.377 62.312 637.385 62.128 637.385 61.968C637.385 61.2 637.249 60.456 636.977 59.736C636.705 59 636.313 58.344 635.801 57.768C635.289 57.176 634.665 56.712 633.929 56.376C633.209 56.024 632.385 55.848 631.457 55.848C630.289 55.848 629.233 56.136 628.289 56.712C627.361 57.288 626.625 58.08 626.081 59.088C625.537 60.08 625.265 61.224 625.265 62.52C625.265 63.816 625.545 64.976 626.105 66C626.665 67.024 627.425 67.832 628.385 68.424C629.361 69 630.449 69.288 631.649 69.288ZM631.457 57.528C632.177 57.528 632.833 57.696 633.425 58.032C634.033 58.368 634.513 58.832 634.865 59.424C635.233 60 635.425 60.672 635.441 61.44H627.209C627.305 60.64 627.553 59.952 627.953 59.376C628.369 58.784 628.881 58.328 629.489 58.008C630.097 57.688 630.753 57.528 631.457 57.528ZM650.661 69.288C651.861 69.288 652.949 69 653.925 68.424C654.917 67.848 655.709 67.056 656.301 66.048C656.893 65.024 657.189 63.856 657.189 62.544C657.189 61.248 656.901 60.096 656.325 59.088C655.765 58.08 654.989 57.288 653.997 56.712C653.021 56.136 651.909 55.848 650.661 55.848C649.413 55.848 648.293 56.144 647.301 56.736C646.325 57.312 645.549 58.104 644.973 59.112C644.397 60.12 644.109 61.264 644.109 62.544C644.109 63.84 644.397 65 644.973 66.024C645.565 67.032 646.357 67.832 647.349 68.424C648.341 69 649.445 69.288 650.661 69.288ZM650.661 67.488C649.797 67.488 649.013 67.272 648.309 66.84C647.621 66.408 647.069 65.816 646.653 65.064C646.237 64.312 646.029 63.472 646.029 62.544C646.029 61.616 646.237 60.784 646.653 60.048C647.069 59.312 647.621 58.728 648.309 58.296C649.013 57.864 649.797 57.648 650.661 57.648C651.525 57.648 652.301 57.864 652.989 58.296C653.693 58.728 654.245 59.312 654.645 60.048C655.061 60.784 655.269 61.616 655.269 62.544C655.269 63.472 655.061 64.312 654.645 65.064C654.245 65.816 653.693 66.408 652.989 66.84C652.301 67.272 651.525 67.488 650.661 67.488ZM661.215 69H663.015V57.936H666.159V56.136H663.015V54.984C663.015 54.072 663.271 53.432 663.783 53.064C664.295 52.696 664.935 52.512 665.703 52.512C665.783 52.512 665.919 52.52 666.111 52.536C666.303 52.536 666.455 52.552 666.567 52.584V50.952C666.439 50.92 666.271 50.896 666.063 50.88C665.855 50.848 665.671 50.832 665.511 50.832C664.759 50.832 664.055 50.992 663.399 51.312C662.743 51.632 662.215 52.104 661.815 52.728C661.415 53.336 661.215 54.088 661.215 54.984V56.136H658.647V57.936H661.215V69ZM678.315 69.144C678.459 69.144 678.651 69.136 678.891 69.12C679.131 69.104 679.347 69.072 679.539 69.024V67.392C679.411 67.408 679.259 67.424 679.083 67.44C678.907 67.456 678.755 67.464 678.627 67.464C677.827 67.464 677.275 67.256 676.971 66.84C676.667 66.424 676.515 65.896 676.515 65.256V57.936H679.347V56.136H676.515V53.16H674.715V54.24C674.715 54.784 674.555 55.24 674.235 55.608C673.915 55.96 673.483 56.136 672.939 56.136H672.339V57.936H674.715V65.256C674.715 66.504 675.027 67.464 675.651 68.136C676.275 68.808 677.163 69.144 678.315 69.144ZM682.7 69H684.5V61.344C684.5 60.192 684.82 59.288 685.46 58.632C686.116 57.976 686.924 57.648 687.884 57.648C688.844 57.648 689.636 57.976 690.26 58.632C690.9 59.272 691.22 60.176 691.22 61.344V69H693.02V60.648C693.02 59.736 692.804 58.92 692.372 58.2C691.956 57.464 691.38 56.888 690.644 56.472C689.924 56.056 689.108 55.848 688.196 55.848C687.396 55.848 686.676 56.016 686.036 56.352C685.396 56.688 684.884 57.144 684.5 57.72V51.12H682.7V69ZM702.313 69.288C703.193 69.288 703.993 69.144 704.713 68.856C705.449 68.552 706.081 68.16 706.609 67.68C707.137 67.184 707.529 66.648 707.785 66.072L706.249 65.256C705.849 65.928 705.329 66.488 704.689 66.936C704.049 67.384 703.257 67.608 702.313 67.608C701.545 67.608 700.825 67.424 700.153 67.056C699.481 66.688 698.929 66.176 698.497 65.52C698.081 64.848 697.857 64.048 697.825 63.12H707.953C707.985 62.912 708.009 62.712 708.025 62.52C708.041 62.312 708.049 62.128 708.049 61.968C708.049 61.2 707.913 60.456 707.641 59.736C707.369 59 706.977 58.344 706.465 57.768C705.953 57.176 705.329 56.712 704.593 56.376C703.873 56.024 703.049 55.848 702.121 55.848C700.953 55.848 699.897 56.136 698.953 56.712C698.025 57.288 697.289 58.08 696.745 59.088C696.201 60.08 695.929 61.224 695.929 62.52C695.929 63.816 696.209 64.976 696.769 66C697.329 67.024 698.089 67.832 699.049 68.424C700.025 69 701.113 69.288 702.313 69.288ZM702.121 57.528C702.841 57.528 703.497 57.696 704.089 58.032C704.697 58.368 705.177 58.832 705.529 59.424C705.897 60 706.089 60.672 706.105 61.44H697.873C697.969 60.64 698.217 59.952 698.617 59.376C699.033 58.784 699.545 58.328 700.153 58.008C700.761 57.688 701.417 57.528 702.121 57.528ZM718.133 69H719.933L723.029 58.824L726.101 69H727.901L732.317 56.136H730.301L727.013 66.24L723.917 56.136H722.117L719.045 66.24L715.757 56.136H713.717L718.133 69ZM740.216 69.288C741.416 69.288 742.504 69 743.48 68.424C744.472 67.848 745.264 67.056 745.856 66.048C746.448 65.024 746.744 63.856 746.744 62.544C746.744 61.248 746.456 60.096 745.88 59.088C745.32 58.08 744.544 57.288 743.552 56.712C742.576 56.136 741.464 55.848 740.216 55.848C738.968 55.848 737.848 56.144 736.856 56.736C735.88 57.312 735.104 58.104 734.528 59.112C733.952 60.12 733.664 61.264 733.664 62.544C733.664 63.84 733.952 65 734.528 66.024C735.12 67.032 735.912 67.832 736.904 68.424C737.896 69 739 69.288 740.216 69.288ZM740.216 67.488C739.352 67.488 738.568 67.272 737.864 66.84C737.176 66.408 736.624 65.816 736.208 65.064C735.792 64.312 735.584 63.472 735.584 62.544C735.584 61.616 735.792 60.784 736.208 60.048C736.624 59.312 737.176 58.728 737.864 58.296C738.568 57.864 739.352 57.648 740.216 57.648C741.08 57.648 741.856 57.864 742.544 58.296C743.248 58.728 743.8 59.312 744.2 60.048C744.616 60.784 744.824 61.616 744.824 62.544C744.824 63.472 744.616 64.312 744.2 65.064C743.8 65.816 743.248 66.408 742.544 66.84C741.856 67.272 741.08 67.488 740.216 67.488ZM749.918 69H751.718V61.08C751.718 60.024 751.998 59.208 752.558 58.632C753.118 58.056 753.862 57.768 754.79 57.768H755.918V55.968H755.102C754.318 55.968 753.638 56.104 753.062 56.376C752.502 56.648 752.054 57.032 751.718 57.528V56.136H749.918V69ZM758.028 69H759.828V51.12H758.028V69ZM769.32 69.288C770.312 69.288 771.224 69.08 772.056 68.664C772.888 68.248 773.544 67.664 774.024 66.912V69H775.824V51.12H774.024V58.08C773.496 57.392 772.832 56.848 772.032 56.448C771.232 56.048 770.328 55.848 769.32 55.848C768.104 55.848 767.016 56.144 766.056 56.736C765.112 57.312 764.36 58.104 763.8 59.112C763.256 60.12 762.984 61.272 762.984 62.568C762.984 63.848 763.256 65 763.8 66.024C764.36 67.032 765.12 67.832 766.08 68.424C767.04 69 768.12 69.288 769.32 69.288ZM769.416 67.488C768.552 67.488 767.776 67.272 767.088 66.84C766.416 66.408 765.88 65.824 765.48 65.088C765.096 64.336 764.904 63.496 764.904 62.568C764.904 61.624 765.096 60.784 765.48 60.048C765.88 59.312 766.424 58.728 767.112 58.296C767.8 57.864 768.568 57.648 769.416 57.648C770.28 57.648 771.056 57.864 771.744 58.296C772.448 58.728 773 59.32 773.4 60.072C773.816 60.808 774.024 61.64 774.024 62.568C774.024 63.496 773.816 64.336 773.4 65.088C773 65.824 772.448 66.408 771.744 66.84C771.056 67.272 770.28 67.488 769.416 67.488ZM779.592 56.64C780.392 56.448 780.992 56.048 781.392 55.44C781.792 54.832 781.992 54.064 781.992 53.136V51.12H780.072V53.76H781.104C781.088 54.304 780.952 54.768 780.696 55.152C780.44 55.536 780.072 55.792 779.592 55.92V56.64ZM790.453 69.288C791.349 69.288 792.141 69.136 792.829 68.832C793.517 68.512 794.053 68.072 794.437 67.512C794.837 66.952 795.037 66.32 795.037 65.616C795.037 64.752 794.741 64 794.149 63.36C793.573 62.72 792.765 62.248 791.725 61.944L789.589 61.32C789.365 61.256 789.101 61.16 788.797 61.032C788.509 60.904 788.253 60.712 788.029 60.456C787.805 60.2 787.693 59.856 787.693 59.424C787.693 58.864 787.909 58.4 788.341 58.032C788.773 57.664 789.349 57.48 790.069 57.48C790.805 57.48 791.469 57.688 792.061 58.104C792.669 58.504 793.133 59.064 793.453 59.784L794.989 59.064C794.621 58.056 793.989 57.272 793.093 56.712C792.213 56.136 791.229 55.848 790.141 55.848C789.341 55.848 788.613 56 787.957 56.304C787.301 56.608 786.781 57.04 786.397 57.6C786.013 58.16 785.821 58.816 785.821 59.568C785.821 60.368 786.085 61.072 786.613 61.68C787.141 62.288 787.997 62.76 789.181 63.096L791.029 63.624C791.285 63.688 791.581 63.792 791.917 63.936C792.253 64.08 792.549 64.288 792.805 64.56C793.061 64.816 793.189 65.168 793.189 65.616C793.189 66.224 792.925 66.72 792.397 67.104C791.869 67.472 791.221 67.656 790.453 67.656C789.653 67.656 788.917 67.424 788.245 66.96C787.589 66.496 787.077 65.872 786.709 65.088L785.197 65.808C785.613 66.88 786.285 67.728 787.213 68.352C788.141 68.976 789.221 69.288 790.453 69.288ZM801.894 69H805.038V51.12H801.894V69ZM814.133 69.288C815.461 69.288 816.621 68.992 817.613 68.4C818.621 67.792 819.325 67.024 819.725 66.096L817.181 64.848C816.893 65.344 816.493 65.752 815.981 66.072C815.485 66.376 814.877 66.528 814.157 66.528C813.213 66.528 812.421 66.24 811.781 65.664C811.141 65.088 810.773 64.32 810.677 63.36H820.085C820.149 63.184 820.189 62.984 820.205 62.76C820.237 62.52 820.253 62.28 820.253 62.04C820.253 60.872 820.005 59.808 819.509 58.848C819.013 57.888 818.293 57.12 817.349 56.544C816.405 55.952 815.253 55.656 813.893 55.656C812.677 55.656 811.573 55.952 810.581 56.544C809.605 57.136 808.829 57.944 808.253 58.968C807.693 59.976 807.413 61.136 807.413 62.448C807.413 63.712 807.693 64.864 808.253 65.904C808.813 66.944 809.597 67.768 810.605 68.376C811.613 68.984 812.789 69.288 814.133 69.288ZM813.893 58.248C814.725 58.248 815.413 58.504 815.957 59.016C816.517 59.512 816.829 60.16 816.893 60.96H810.749C810.925 60.096 811.293 59.432 811.853 58.968C812.429 58.488 813.109 58.248 813.893 58.248ZM826.526 69.288C828.222 69.288 829.582 68.728 830.606 67.608V69H833.582V60.312C833.582 59.4 833.35 58.592 832.886 57.888C832.422 57.184 831.782 56.64 830.966 56.256C830.166 55.856 829.23 55.656 828.158 55.656C826.846 55.656 825.678 55.968 824.654 56.592C823.63 57.216 822.926 58.04 822.542 59.064L825.11 60.312C825.35 59.72 825.726 59.248 826.238 58.896C826.75 58.528 827.35 58.344 828.038 58.344C828.758 58.344 829.334 58.536 829.766 58.92C830.214 59.288 830.438 59.752 830.438 60.312V60.744L826.55 61.368C825.014 61.624 823.878 62.112 823.142 62.832C822.406 63.552 822.038 64.456 822.038 65.544C822.038 66.696 822.446 67.608 823.262 68.28C824.078 68.952 825.166 69.288 826.526 69.288ZM825.302 65.424C825.302 64.512 825.918 63.936 827.15 63.696L830.438 63.144V63.672C830.438 64.568 830.126 65.328 829.502 65.952C828.894 66.576 828.094 66.888 827.102 66.888C826.574 66.888 826.142 66.76 825.806 66.504C825.47 66.232 825.302 65.872 825.302 65.424ZM842.559 69.288C843.407 69.288 844.191 69.144 844.911 68.856C845.631 68.552 846.231 68.12 846.711 67.56V69H849.687V51.12H846.543V57.264C845.567 56.192 844.231 55.656 842.535 55.656C841.303 55.656 840.183 55.96 839.175 56.568C838.183 57.16 837.399 57.976 836.823 59.016C836.247 60.04 835.959 61.192 835.959 62.472C835.959 63.752 836.247 64.912 836.823 65.952C837.399 66.976 838.183 67.792 839.175 68.4C840.167 68.992 841.295 69.288 842.559 69.288ZM842.895 66.408C842.191 66.408 841.559 66.24 840.999 65.904C840.439 65.568 839.999 65.104 839.679 64.512C839.375 63.904 839.223 63.224 839.223 62.472C839.223 61.72 839.375 61.048 839.679 60.456C839.999 59.864 840.439 59.4 840.999 59.064C841.559 58.712 842.191 58.536 842.895 58.536C843.599 58.536 844.223 58.704 844.767 59.04C845.327 59.376 845.759 59.84 846.063 60.432C846.383 61.024 846.543 61.704 846.543 62.472C846.543 63.24 846.383 63.92 846.063 64.512C845.759 65.104 845.327 65.568 844.767 65.904C844.223 66.24 843.599 66.408 842.895 66.408ZM852.612 54.48H855.756V51.12H852.612V54.48ZM852.612 69H855.756V55.944H852.612V69ZM858.659 69H861.803V61.344C861.803 60.496 862.043 59.816 862.523 59.304C863.019 58.792 863.659 58.536 864.443 58.536C865.227 58.536 865.859 58.792 866.339 59.304C866.835 59.8 867.083 60.48 867.083 61.344V69H870.227V60.6C870.227 59.624 870.019 58.768 869.603 58.032C869.187 57.28 868.603 56.696 867.851 56.28C867.115 55.864 866.267 55.656 865.307 55.656C864.491 55.656 863.755 55.816 863.099 56.136C862.459 56.456 861.963 56.928 861.611 57.552V55.944H858.659V69ZM879.222 74.28C880.47 74.28 881.574 74.024 882.534 73.512C883.494 73 884.246 72.296 884.79 71.4C885.334 70.504 885.606 69.488 885.606 68.352V55.944H882.63V57.456C881.638 56.256 880.302 55.656 878.622 55.656C877.422 55.656 876.35 55.936 875.406 56.496C874.462 57.04 873.718 57.792 873.174 58.752C872.63 59.712 872.358 60.808 872.358 62.04C872.358 63.256 872.63 64.352 873.174 65.328C873.718 66.304 874.47 67.072 875.43 67.632C876.39 68.192 877.478 68.472 878.694 68.472C880.278 68.472 881.534 67.96 882.462 66.936V68.352C882.462 69.312 882.158 70.056 881.55 70.584C880.942 71.128 880.166 71.4 879.222 71.4C878.39 71.4 877.686 71.208 877.11 70.824C876.55 70.456 876.174 69.968 875.982 69.36L873.054 70.464C873.47 71.616 874.23 72.536 875.334 73.224C876.454 73.928 877.75 74.28 879.222 74.28ZM879.078 65.568C878.07 65.568 877.238 65.24 876.582 64.584C875.942 63.912 875.622 63.072 875.622 62.064C875.622 61.392 875.766 60.792 876.054 60.264C876.358 59.72 876.774 59.296 877.302 58.992C877.83 58.688 878.422 58.536 879.078 58.536C880.07 58.536 880.878 58.872 881.502 59.544C882.142 60.2 882.462 61.04 882.462 62.064C882.462 63.088 882.142 63.928 881.502 64.584C880.878 65.24 880.07 65.568 879.078 65.568ZM898.884 69.288C899.684 69.288 900.436 69.144 901.14 68.856C901.844 68.568 902.468 68.176 903.012 67.68C903.556 67.184 903.964 66.624 904.236 66L902.604 65.112C902.268 65.832 901.772 66.408 901.116 66.84C900.476 67.272 899.732 67.488 898.884 67.488C898.036 67.488 897.268 67.272 896.58 66.84C895.908 66.408 895.372 65.824 894.972 65.088C894.588 64.336 894.396 63.496 894.396 62.568C894.396 61.624 894.588 60.784 894.972 60.048C895.372 59.296 895.908 58.712 896.58 58.296C897.268 57.864 898.036 57.648 898.884 57.648C899.732 57.648 900.484 57.864 901.14 58.296C901.796 58.728 902.284 59.288 902.604 59.976L904.236 59.136C903.964 58.496 903.556 57.936 903.012 57.456C902.468 56.96 901.844 56.568 901.14 56.28C900.436 55.992 899.684 55.848 898.884 55.848C897.62 55.848 896.508 56.144 895.548 56.736C894.588 57.312 893.836 58.104 893.292 59.112C892.748 60.12 892.476 61.264 892.476 62.544C892.476 63.824 892.748 64.976 893.292 66C893.836 67.008 894.588 67.808 895.548 68.4C896.508 68.992 897.62 69.288 898.884 69.288ZM913.419 69.288C914.619 69.288 915.707 69 916.683 68.424C917.675 67.848 918.467 67.056 919.059 66.048C919.651 65.024 919.947 63.856 919.947 62.544C919.947 61.248 919.659 60.096 919.083 59.088C918.523 58.08 917.747 57.288 916.755 56.712C915.779 56.136 914.667 55.848 913.419 55.848C912.171 55.848 911.051 56.144 910.059 56.736C909.083 57.312 908.307 58.104 907.731 59.112C907.155 60.12 906.867 61.264 906.867 62.544C906.867 63.84 907.155 65 907.731 66.024C908.323 67.032 909.115 67.832 910.107 68.424C911.099 69 912.203 69.288 913.419 69.288ZM913.419 67.488C912.555 67.488 911.771 67.272 911.067 66.84C910.379 66.408 909.827 65.816 909.411 65.064C908.995 64.312 908.787 63.472 908.787 62.544C908.787 61.616 908.995 60.784 909.411 60.048C909.827 59.312 910.379 58.728 911.067 58.296C911.771 57.864 912.555 57.648 913.419 57.648C914.283 57.648 915.059 57.864 915.747 58.296C916.451 58.728 917.003 59.312 917.403 60.048C917.819 60.784 918.027 61.616 918.027 62.544C918.027 63.472 917.819 64.312 917.403 65.064C917.003 65.816 916.451 66.408 915.747 66.84C915.059 67.272 914.283 67.488 913.419 67.488ZM923.121 69H924.921V61.344C924.921 60.192 925.233 59.288 925.857 58.632C926.481 57.976 927.257 57.648 928.185 57.648C929.113 57.648 929.881 57.976 930.489 58.632C931.097 59.272 931.401 60.176 931.401 61.344V69H933.201V61.344C933.201 60.192 933.513 59.288 934.137 58.632C934.761 57.976 935.537 57.648 936.465 57.648C937.393 57.648 938.161 57.976 938.769 58.632C939.377 59.272 939.681 60.176 939.681 61.344V69H941.481V60.648C941.481 59.736 941.257 58.92 940.809 58.2C940.377 57.464 939.793 56.888 939.057 56.472C938.337 56.056 937.545 55.848 936.681 55.848C935.817 55.848 935.017 56.056 934.281 56.472C933.561 56.888 933.009 57.496 932.625 58.296C932.225 57.56 931.657 56.968 930.921 56.52C930.185 56.072 929.377 55.848 928.497 55.848C927.761 55.848 927.073 56.016 926.433 56.352C925.809 56.672 925.305 57.128 924.921 57.72V56.136H923.121V69ZM944.918 73.8H946.718V66.912C947.198 67.664 947.854 68.248 948.686 68.664C949.518 69.08 950.43 69.288 951.422 69.288C952.638 69.288 953.718 69 954.662 68.424C955.622 67.832 956.374 67.032 956.918 66.024C957.478 65 957.758 63.848 957.758 62.568C957.758 61.272 957.478 60.12 956.918 59.112C956.374 58.104 955.622 57.312 954.662 56.736C953.718 56.144 952.638 55.848 951.422 55.848C950.414 55.848 949.51 56.048 948.71 56.448C947.91 56.848 947.246 57.392 946.718 58.08V56.136H944.918V73.8ZM951.326 67.488C950.462 67.488 949.678 67.272 948.974 66.84C948.286 66.408 947.734 65.824 947.318 65.088C946.918 64.336 946.718 63.496 946.718 62.568C946.718 61.64 946.918 60.808 947.318 60.072C947.734 59.32 948.286 58.728 948.974 58.296C949.678 57.864 950.462 57.648 951.326 57.648C952.19 57.648 952.958 57.864 953.63 58.296C954.318 58.728 954.854 59.312 955.238 60.048C955.638 60.784 955.838 61.624 955.838 62.568C955.838 63.496 955.638 64.336 955.238 65.088C954.854 65.824 954.318 66.408 953.63 66.84C952.958 67.272 952.19 67.488 951.326 67.488ZM964.646 69.288C965.638 69.288 966.534 69.088 967.334 68.688C968.134 68.288 968.742 67.776 969.158 67.152V69H970.958V60.168C970.958 59.32 970.75 58.576 970.334 57.936C969.934 57.28 969.366 56.768 968.63 56.4C967.91 56.032 967.078 55.848 966.134 55.848C965.414 55.848 964.718 55.984 964.046 56.256C963.374 56.512 962.774 56.864 962.246 57.312C961.734 57.76 961.358 58.256 961.118 58.8L962.75 59.688C963.038 59.064 963.478 58.56 964.07 58.176C964.662 57.776 965.35 57.576 966.134 57.576C967.03 57.576 967.758 57.816 968.318 58.296C968.878 58.776 969.158 59.4 969.158 60.168V60.84L964.502 61.608C963.078 61.848 962.038 62.336 961.382 63.072C960.726 63.808 960.398 64.672 960.398 65.664C960.398 66.368 960.582 66.992 960.95 67.536C961.318 68.08 961.822 68.512 962.462 68.832C963.102 69.136 963.83 69.288 964.646 69.288ZM962.318 65.592C962.318 65 962.518 64.488 962.918 64.056C963.334 63.624 964.006 63.328 964.934 63.168L969.158 62.472V63.432C969.158 64.216 968.974 64.928 968.606 65.568C968.238 66.208 967.726 66.72 967.07 67.104C966.414 67.472 965.646 67.656 964.766 67.656C964.046 67.656 963.454 67.456 962.99 67.056C962.542 66.656 962.318 66.168 962.318 65.592ZM974.661 69H976.461V61.344C976.461 60.192 976.781 59.288 977.421 58.632C978.061 57.976 978.869 57.648 979.845 57.648C980.837 57.648 981.637 57.976 982.245 58.632C982.869 59.272 983.181 60.176 983.181 61.344V69H984.981V60.648C984.981 59.736 984.765 58.92 984.333 58.2C983.917 57.464 983.341 56.888 982.605 56.472C981.885 56.056 981.069 55.848 980.157 55.848C979.357 55.848 978.637 56.016 977.997 56.352C977.357 56.688 976.845 57.144 976.461 57.72V56.136H974.661V69ZM988.418 53.76H990.218V51.12H988.418V53.76ZM988.418 69H990.218V56.136H988.418V69ZM999.759 69.288C1000.64 69.288 1001.44 69.144 1002.16 68.856C1002.89 68.552 1003.53 68.16 1004.05 67.68C1004.58 67.184 1004.97 66.648 1005.23 66.072L1003.69 65.256C1003.29 65.928 1002.77 66.488 1002.13 66.936C1001.49 67.384 1000.7 67.608 999.759 67.608C998.991 67.608 998.271 67.424 997.599 67.056C996.927 66.688 996.375 66.176 995.943 65.52C995.527 64.848 995.303 64.048 995.271 63.12H1005.4C1005.43 62.912 1005.45 62.712 1005.47 62.52C1005.49 62.312 1005.49 62.128 1005.49 61.968C1005.49 61.2 1005.36 60.456 1005.09 59.736C1004.81 59 1004.42 58.344 1003.91 57.768C1003.4 57.176 1002.77 56.712 1002.04 56.376C1001.32 56.024 1000.49 55.848 999.567 55.848C998.399 55.848 997.343 56.136 996.399 56.712C995.471 57.288 994.735 58.08 994.191 59.088C993.647 60.08 993.375 61.224 993.375 62.52C993.375 63.816 993.655 64.976 994.215 66C994.775 67.024 995.535 67.832 996.495 68.424C997.471 69 998.559 69.288 999.759 69.288ZM999.567 57.528C1000.29 57.528 1000.94 57.696 1001.53 58.032C1002.14 58.368 1002.62 58.832 1002.97 59.424C1003.34 60 1003.53 60.672 1003.55 61.44H995.319C995.415 60.64 995.663 59.952 996.063 59.376C996.479 58.784 996.991 58.328 997.599 58.008C998.207 57.688 998.863 57.528 999.567 57.528ZM1013.13 69.288C1014.03 69.288 1014.82 69.136 1015.51 68.832C1016.2 68.512 1016.73 68.072 1017.12 67.512C1017.52 66.952 1017.72 66.32 1017.72 65.616C1017.72 64.752 1017.42 64 1016.83 63.36C1016.25 62.72 1015.44 62.248 1014.4 61.944L1012.27 61.32C1012.04 61.256 1011.78 61.16 1011.48 61.032C1011.19 60.904 1010.93 60.712 1010.71 60.456C1010.48 60.2 1010.37 59.856 1010.37 59.424C1010.37 58.864 1010.59 58.4 1011.02 58.032C1011.45 57.664 1012.03 57.48 1012.75 57.48C1013.48 57.48 1014.15 57.688 1014.74 58.104C1015.35 58.504 1015.81 59.064 1016.13 59.784L1017.67 59.064C1017.3 58.056 1016.67 57.272 1015.77 56.712C1014.89 56.136 1013.91 55.848 1012.82 55.848C1012.02 55.848 1011.29 56 1010.64 56.304C1009.98 56.608 1009.46 57.04 1009.08 57.6C1008.69 58.16 1008.5 58.816 1008.5 59.568C1008.5 60.368 1008.76 61.072 1009.29 61.68C1009.82 62.288 1010.68 62.76 1011.86 63.096L1013.71 63.624C1013.96 63.688 1014.26 63.792 1014.6 63.936C1014.93 64.08 1015.23 64.288 1015.48 64.56C1015.74 64.816 1015.87 65.168 1015.87 65.616C1015.87 66.224 1015.6 66.72 1015.08 67.104C1014.55 67.472 1013.9 67.656 1013.13 67.656C1012.33 67.656 1011.6 67.424 1010.92 66.96C1010.27 66.496 1009.76 65.872 1009.39 65.088L1007.88 65.808C1008.29 66.88 1008.96 67.728 1009.89 68.352C1010.82 68.976 1011.9 69.288 1013.13 69.288Z" fill="#20484F"/>
<defs>
<clipPath id="clip0_79_1771">
<rect width="150" height="29.04" fill="white" transform="translate(1036 119)"/>
</clipPath>
<clipPath id="clip1_79_1771">
<rect width="203" height="22" fill="white" transform="translate(494 123)"/>
</clipPath>
</defs>
</svg>
