<svg width="261" height="147" viewBox="0 0 261 147" fill="none" xmlns="http://www.w3.org/2000/svg">
<path d="M3.6 118H4.96L7.872 107.792L10.784 118H12.144L15.568 106.08H14.272L11.44 116.24L8.56 106.08H7.2L4.304 116.272L1.472 106.08H0.176L3.6 118ZM20.2454 118.192C20.832 118.192 21.3654 118.096 21.8454 117.904C22.336 117.701 22.7574 117.44 23.1094 117.12C23.4614 116.789 23.7227 116.432 23.8934 116.048L22.8694 115.504C22.6027 115.952 22.256 116.325 21.8294 116.624C21.4027 116.923 20.8747 117.072 20.2454 117.072C19.7334 117.072 19.2534 116.949 18.8054 116.704C18.3574 116.459 17.9894 116.117 17.7014 115.68C17.424 115.232 17.2747 114.699 17.2534 114.08H24.0054C24.0267 113.941 24.0427 113.808 24.0534 113.68C24.064 113.541 24.0694 113.419 24.0694 113.312C24.0694 112.8 23.9787 112.304 23.7974 111.824C23.616 111.333 23.3547 110.896 23.0134 110.512C22.672 110.117 22.256 109.808 21.7654 109.584C21.2854 109.349 20.736 109.232 20.1174 109.232C19.3387 109.232 18.6347 109.424 18.0054 109.808C17.3867 110.192 16.896 110.72 16.5334 111.392C16.1707 112.053 15.9894 112.816 15.9894 113.68C15.9894 114.544 16.176 115.317 16.5494 116C16.9227 116.683 17.4294 117.221 18.0694 117.616C18.72 118 19.4454 118.192 20.2454 118.192ZM20.1174 110.352C20.5974 110.352 21.0347 110.464 21.4294 110.688C21.8347 110.912 22.1547 111.221 22.3894 111.616C22.6347 112 22.7627 112.448 22.7734 112.96H17.2854C17.3494 112.427 17.5147 111.968 17.7814 111.584C18.0587 111.189 18.4 110.885 18.8054 110.672C19.2107 110.459 19.648 110.352 20.1174 110.352ZM28.9039 118H30.1039V112.896C30.1039 112.128 30.3172 111.525 30.7439 111.088C31.1812 110.651 31.7199 110.432 32.3599 110.432C32.9999 110.432 33.5279 110.651 33.9439 111.088C34.3705 111.515 34.5839 112.117 34.5839 112.896V118H35.7839V112.432C35.7839 111.824 35.6399 111.28 35.3519 110.8C35.0745 110.309 34.6905 109.925 34.1999 109.648C33.7199 109.371 33.1759 109.232 32.5679 109.232C32.0345 109.232 31.5545 109.344 31.1279 109.568C30.7012 109.792 30.3599 110.096 30.1039 110.48V106.08H28.9039V118ZM40.5558 118.192C41.2171 118.192 41.8144 118.059 42.3478 117.792C42.8811 117.525 43.2864 117.184 43.5638 116.768V118H44.7638V112.112C44.7638 111.547 44.6251 111.051 44.3478 110.624C44.0811 110.187 43.7024 109.845 43.2118 109.6C42.7318 109.355 42.1771 109.232 41.5477 109.232C41.0678 109.232 40.6038 109.323 40.1558 109.504C39.7078 109.675 39.3078 109.909 38.9557 110.208C38.6144 110.507 38.3638 110.837 38.2038 111.2L39.2918 111.792C39.4838 111.376 39.7771 111.04 40.1718 110.784C40.5664 110.517 41.0251 110.384 41.5477 110.384C42.1451 110.384 42.6304 110.544 43.0038 110.864C43.3771 111.184 43.5638 111.6 43.5638 112.112V112.56L40.4598 113.072C39.5104 113.232 38.8171 113.557 38.3798 114.048C37.9424 114.539 37.7238 115.115 37.7238 115.776C37.7238 116.245 37.8464 116.661 38.0918 117.024C38.3371 117.387 38.6731 117.675 39.0998 117.888C39.5264 118.091 40.0118 118.192 40.5558 118.192ZM39.0038 115.728C39.0038 115.333 39.1371 114.992 39.4038 114.704C39.6811 114.416 40.1291 114.219 40.7478 114.112L43.5638 113.648V114.288C43.5638 114.811 43.4411 115.285 43.1958 115.712C42.9504 116.139 42.6091 116.48 42.1718 116.736C41.7344 116.981 41.2224 117.104 40.6358 117.104C40.1558 117.104 39.7611 116.971 39.4518 116.704C39.1531 116.437 39.0038 116.112 39.0038 115.728ZM49.3638 118H50.5638L53.9398 109.424H52.5798L49.9718 116.368L47.3638 109.424H46.0198L49.3638 118ZM59.0891 118.192C59.6758 118.192 60.2091 118.096 60.6891 117.904C61.1798 117.701 61.6011 117.44 61.9531 117.12C62.3051 116.789 62.5665 116.432 62.7371 116.048L61.7131 115.504C61.4465 115.952 61.0998 116.325 60.6731 116.624C60.2465 116.923 59.7185 117.072 59.0891 117.072C58.5771 117.072 58.0971 116.949 57.6491 116.704C57.2011 116.459 56.8331 116.117 56.5451 115.68C56.2678 115.232 56.1185 114.699 56.0971 114.08H62.8491C62.8705 113.941 62.8865 113.808 62.8971 113.68C62.9078 113.541 62.9131 113.419 62.9131 113.312C62.9131 112.8 62.8225 112.304 62.6411 111.824C62.4598 111.333 62.1985 110.896 61.8571 110.512C61.5158 110.117 61.0998 109.808 60.6091 109.584C60.1291 109.349 59.5798 109.232 58.9611 109.232C58.1825 109.232 57.4785 109.424 56.8491 109.808C56.2305 110.192 55.7398 110.72 55.3771 111.392C55.0145 112.053 54.8331 112.816 54.8331 113.68C54.8331 114.544 55.0198 115.317 55.3931 116C55.7665 116.683 56.2731 117.221 56.9131 117.616C57.5638 118 58.2891 118.192 59.0891 118.192ZM58.9611 110.352C59.4411 110.352 59.8785 110.464 60.2731 110.688C60.6785 110.912 60.9985 111.221 61.2331 111.616C61.4785 112 61.6065 112.448 61.6171 112.96H56.1291C56.1931 112.427 56.3585 111.968 56.6251 111.584C56.9025 111.189 57.2438 110.885 57.6491 110.672C58.0545 110.459 58.4918 110.352 58.9611 110.352ZM69.4116 118H70.6916V106.08H67.1716V107.2H69.4116V118ZM79.2531 118H80.3731V115.184H81.8291V114.144H80.3731V106.08H79.2531L73.1891 114.144V115.184H79.2531V118ZM79.2531 114.144H74.5171L79.2531 107.824V114.144ZM88.4033 118.192C89.3419 118.192 90.1633 117.936 90.8673 117.424C91.5713 116.912 92.1153 116.192 92.4993 115.264C92.8939 114.336 93.0913 113.259 93.0913 112.032C93.0913 110.805 92.8939 109.733 92.4993 108.816C92.1046 107.888 91.5553 107.168 90.8513 106.656C90.1473 106.144 89.3259 105.888 88.3873 105.888C87.4486 105.888 86.6273 106.144 85.9233 106.656C85.2193 107.168 84.6699 107.888 84.2753 108.816C83.8806 109.733 83.6833 110.805 83.6833 112.032C83.6833 113.259 83.8806 114.336 84.2753 115.264C84.6699 116.181 85.2193 116.901 85.9233 117.424C86.6379 117.936 87.4646 118.192 88.4033 118.192ZM88.4033 116.992C87.7206 116.992 87.1179 116.784 86.5953 116.368C86.0833 115.952 85.6833 115.371 85.3953 114.624C85.1073 113.877 84.9633 113.013 84.9633 112.032C84.9633 111.04 85.1073 110.176 85.3953 109.44C85.6833 108.693 86.0833 108.117 86.5953 107.712C87.1073 107.296 87.7046 107.088 88.3873 107.088C89.0806 107.088 89.6833 107.296 90.1953 107.712C90.7073 108.117 91.1073 108.693 91.3953 109.44C91.6833 110.176 91.8273 111.04 91.8273 112.032C91.8273 113.024 91.6833 113.893 91.3953 114.64C91.1073 115.376 90.7073 115.952 90.1953 116.368C89.6833 116.784 89.0859 116.992 88.4033 116.992ZM101.177 118.192C101.774 118.192 102.302 118.091 102.761 117.888C103.219 117.675 103.577 117.381 103.833 117.008C104.099 116.635 104.233 116.213 104.233 115.744C104.233 115.168 104.035 114.667 103.641 114.24C103.257 113.813 102.718 113.499 102.025 113.296L100.601 112.88C100.451 112.837 100.275 112.773 100.073 112.688C99.8808 112.603 99.7101 112.475 99.5608 112.304C99.4114 112.133 99.3368 111.904 99.3368 111.616C99.3368 111.243 99.4808 110.933 99.7688 110.688C100.057 110.443 100.441 110.32 100.921 110.32C101.411 110.32 101.854 110.459 102.249 110.736C102.654 111.003 102.963 111.376 103.177 111.856L104.201 111.376C103.955 110.704 103.534 110.181 102.937 109.808C102.35 109.424 101.694 109.232 100.969 109.232C100.435 109.232 99.9501 109.333 99.5128 109.536C99.0754 109.739 98.7288 110.027 98.4728 110.4C98.2168 110.773 98.0888 111.211 98.0888 111.712C98.0888 112.245 98.2648 112.715 98.6168 113.12C98.9688 113.525 99.5394 113.84 100.329 114.064L101.561 114.416C101.731 114.459 101.929 114.528 102.153 114.624C102.377 114.72 102.574 114.859 102.745 115.04C102.915 115.211 103.001 115.445 103.001 115.744C103.001 116.149 102.825 116.48 102.473 116.736C102.121 116.981 101.689 117.104 101.177 117.104C100.643 117.104 100.153 116.949 99.7048 116.64C99.2674 116.331 98.9261 115.915 98.6808 115.392L97.6728 115.872C97.9501 116.587 98.3981 117.152 99.0168 117.568C99.6354 117.984 100.355 118.192 101.177 118.192ZM109.381 118.192C109.915 118.192 110.395 118.08 110.821 117.856C111.248 117.632 111.589 117.328 111.845 116.944V118H113.045V109.424H111.845V114.528C111.845 115.296 111.632 115.899 111.205 116.336C110.789 116.773 110.251 116.992 109.589 116.992C108.939 116.992 108.405 116.784 107.989 116.368C107.573 115.941 107.365 115.381 107.365 114.688V109.424H106.165V114.832C106.165 115.493 106.304 116.08 106.581 116.592C106.869 117.093 107.259 117.488 107.749 117.776C108.24 118.053 108.784 118.192 109.381 118.192ZM115.513 121.2H116.713V116.608C117.033 117.109 117.471 117.499 118.025 117.776C118.58 118.053 119.188 118.192 119.849 118.192C120.66 118.192 121.38 118 122.009 117.616C122.649 117.221 123.151 116.688 123.513 116.016C123.887 115.333 124.073 114.565 124.073 113.712C124.073 112.848 123.887 112.08 123.513 111.408C123.151 110.736 122.649 110.208 122.009 109.824C121.38 109.429 120.66 109.232 119.849 109.232C119.177 109.232 118.575 109.365 118.041 109.632C117.508 109.899 117.065 110.261 116.713 110.72V109.424H115.513V121.2ZM119.785 116.992C119.209 116.992 118.687 116.848 118.217 116.56C117.759 116.272 117.391 115.883 117.113 115.392C116.847 114.891 116.713 114.331 116.713 113.712C116.713 113.093 116.847 112.539 117.113 112.048C117.391 111.547 117.759 111.152 118.217 110.864C118.687 110.576 119.209 110.432 119.785 110.432C120.361 110.432 120.873 110.576 121.321 110.864C121.78 111.152 122.137 111.541 122.393 112.032C122.66 112.523 122.793 113.083 122.793 113.712C122.793 114.331 122.66 114.891 122.393 115.392C122.137 115.883 121.78 116.272 121.321 116.56C120.873 116.848 120.361 116.992 119.785 116.992ZM126.185 121.2H127.385V116.608C127.705 117.109 128.142 117.499 128.697 117.776C129.252 118.053 129.86 118.192 130.521 118.192C131.332 118.192 132.052 118 132.681 117.616C133.321 117.221 133.822 116.688 134.185 116.016C134.558 115.333 134.745 114.565 134.745 113.712C134.745 112.848 134.558 112.08 134.185 111.408C133.822 110.736 133.321 110.208 132.681 109.824C132.052 109.429 131.332 109.232 130.521 109.232C129.849 109.232 129.246 109.365 128.713 109.632C128.18 109.899 127.737 110.261 127.385 110.72V109.424H126.185V121.2ZM130.457 116.992C129.881 116.992 129.358 116.848 128.889 116.56C128.43 116.272 128.062 115.883 127.785 115.392C127.518 114.891 127.385 114.331 127.385 113.712C127.385 113.093 127.518 112.539 127.785 112.048C128.062 111.547 128.43 111.152 128.889 110.864C129.358 110.576 129.881 110.432 130.457 110.432C131.033 110.432 131.545 110.576 131.993 110.864C132.452 111.152 132.809 111.541 133.065 112.032C133.332 112.523 133.465 113.083 133.465 113.712C133.465 114.331 133.332 114.891 133.065 115.392C132.809 115.883 132.452 116.272 131.993 116.56C131.545 116.848 131.033 116.992 130.457 116.992ZM140.873 118.192C141.673 118.192 142.398 118 143.049 117.616C143.71 117.232 144.238 116.704 144.633 116.032C145.028 115.349 145.225 114.571 145.225 113.696C145.225 112.832 145.033 112.064 144.649 111.392C144.276 110.72 143.758 110.192 143.097 109.808C142.446 109.424 141.705 109.232 140.873 109.232C140.041 109.232 139.294 109.429 138.633 109.824C137.982 110.208 137.465 110.736 137.081 111.408C136.697 112.08 136.505 112.843 136.505 113.696C136.505 114.56 136.697 115.333 137.081 116.016C137.476 116.688 138.004 117.221 138.665 117.616C139.326 118 140.062 118.192 140.873 118.192ZM140.873 116.992C140.297 116.992 139.774 116.848 139.305 116.56C138.846 116.272 138.478 115.877 138.201 115.376C137.924 114.875 137.785 114.315 137.785 113.696C137.785 113.077 137.924 112.523 138.201 112.032C138.478 111.541 138.846 111.152 139.305 110.864C139.774 110.576 140.297 110.432 140.873 110.432C141.449 110.432 141.966 110.576 142.425 110.864C142.894 111.152 143.262 111.541 143.529 112.032C143.806 112.523 143.945 113.077 143.945 113.696C143.945 114.315 143.806 114.875 143.529 115.376C143.262 115.877 142.894 116.272 142.425 116.56C141.966 116.848 141.449 116.992 140.873 116.992ZM147.341 118H148.541V112.72C148.541 112.016 148.728 111.472 149.101 111.088C149.475 110.704 149.971 110.512 150.589 110.512H151.341V109.312H150.797C150.275 109.312 149.821 109.403 149.437 109.584C149.064 109.765 148.765 110.021 148.541 110.352V109.424H147.341V118ZM156.028 118.096C156.124 118.096 156.252 118.091 156.412 118.08C156.572 118.069 156.716 118.048 156.844 118.016V116.928C156.758 116.939 156.657 116.949 156.54 116.96C156.422 116.971 156.321 116.976 156.236 116.976C155.702 116.976 155.334 116.837 155.132 116.56C154.929 116.283 154.828 115.931 154.828 115.504V110.624H156.716V109.424H154.828V107.44H153.628V108.16C153.628 108.523 153.521 108.827 153.308 109.072C153.094 109.307 152.806 109.424 152.444 109.424H152.044V110.624H153.628V115.504C153.628 116.336 153.836 116.976 154.252 117.424C154.668 117.872 155.26 118.096 156.028 118.096ZM164.646 118.192C165.243 118.192 165.771 118.091 166.23 117.888C166.688 117.675 167.046 117.381 167.302 117.008C167.568 116.635 167.702 116.213 167.702 115.744C167.702 115.168 167.504 114.667 167.11 114.24C166.726 113.813 166.187 113.499 165.494 113.296L164.07 112.88C163.92 112.837 163.744 112.773 163.542 112.688C163.35 112.603 163.179 112.475 163.03 112.304C162.88 112.133 162.806 111.904 162.806 111.616C162.806 111.243 162.95 110.933 163.238 110.688C163.526 110.443 163.91 110.32 164.39 110.32C164.88 110.32 165.323 110.459 165.718 110.736C166.123 111.003 166.432 111.376 166.646 111.856L167.67 111.376C167.424 110.704 167.003 110.181 166.406 109.808C165.819 109.424 165.163 109.232 164.438 109.232C163.904 109.232 163.419 109.333 162.982 109.536C162.544 109.739 162.198 110.027 161.942 110.4C161.686 110.773 161.558 111.211 161.558 111.712C161.558 112.245 161.734 112.715 162.086 113.12C162.438 113.525 163.008 113.84 163.798 114.064L165.03 114.416C165.2 114.459 165.398 114.528 165.622 114.624C165.846 114.72 166.043 114.859 166.214 115.04C166.384 115.211 166.47 115.445 166.47 115.744C166.47 116.149 166.294 116.48 165.942 116.736C165.59 116.981 165.158 117.104 164.646 117.104C164.112 117.104 163.622 116.949 163.174 116.64C162.736 116.331 162.395 115.915 162.15 115.392L161.142 115.872C161.419 116.587 161.867 117.152 162.486 117.568C163.104 117.984 163.824 118.192 164.646 118.192ZM173.09 118.096C173.186 118.096 173.314 118.091 173.474 118.08C173.634 118.069 173.778 118.048 173.906 118.016V116.928C173.821 116.939 173.719 116.949 173.602 116.96C173.485 116.971 173.383 116.976 173.298 116.976C172.765 116.976 172.397 116.837 172.194 116.56C171.991 116.283 171.89 115.931 171.89 115.504V110.624H173.778V109.424H171.89V107.44H170.69V108.16C170.69 108.523 170.583 108.827 170.37 109.072C170.157 109.307 169.869 109.424 169.506 109.424H169.106V110.624H170.69V115.504C170.69 116.336 170.898 116.976 171.314 117.424C171.73 117.872 172.322 118.096 173.09 118.096ZM178.337 118.192C178.998 118.192 179.596 118.059 180.129 117.792C180.662 117.525 181.068 117.184 181.345 116.768V118H182.545V112.112C182.545 111.547 182.406 111.051 182.129 110.624C181.862 110.187 181.484 109.845 180.993 109.6C180.513 109.355 179.958 109.232 179.329 109.232C178.849 109.232 178.385 109.323 177.937 109.504C177.489 109.675 177.089 109.909 176.737 110.208C176.396 110.507 176.145 110.837 175.985 111.2L177.073 111.792C177.265 111.376 177.558 111.04 177.953 110.784C178.348 110.517 178.806 110.384 179.329 110.384C179.926 110.384 180.412 110.544 180.785 110.864C181.158 111.184 181.345 111.6 181.345 112.112V112.56L178.241 113.072C177.292 113.232 176.598 113.557 176.161 114.048C175.724 114.539 175.505 115.115 175.505 115.776C175.505 116.245 175.628 116.661 175.873 117.024C176.118 117.387 176.454 117.675 176.881 117.888C177.308 118.091 177.793 118.192 178.337 118.192ZM176.785 115.728C176.785 115.333 176.918 114.992 177.185 114.704C177.462 114.416 177.91 114.219 178.529 114.112L181.345 113.648V114.288C181.345 114.811 181.222 115.285 180.977 115.712C180.732 116.139 180.39 116.48 179.953 116.736C179.516 116.981 179.004 117.104 178.417 117.104C177.937 117.104 177.542 116.971 177.233 116.704C176.934 116.437 176.785 116.112 176.785 115.728ZM185.893 118H187.093V110.624H192.021V118H193.221V110.624H195.317V109.424H193.221V108.656C193.221 108.048 193.392 107.621 193.733 107.376C194.075 107.131 194.501 107.008 195.013 107.008C195.067 107.008 195.157 107.013 195.285 107.024C195.413 107.024 195.515 107.035 195.589 107.056V105.968C195.504 105.947 195.392 105.931 195.253 105.92C195.115 105.899 194.992 105.888 194.885 105.888C194.384 105.888 193.915 105.995 193.477 106.208C193.04 106.421 192.688 106.736 192.421 107.152C192.155 107.557 192.021 108.059 192.021 108.656V109.424H187.093V108.656C187.093 108.048 187.264 107.621 187.605 107.376C187.947 107.131 188.373 107.008 188.885 107.008C188.939 107.008 189.029 107.013 189.157 107.024C189.285 107.024 189.387 107.035 189.461 107.056V105.968C189.376 105.947 189.264 105.931 189.125 105.92C188.987 105.899 188.864 105.888 188.757 105.888C188.256 105.888 187.787 105.995 187.349 106.208C186.912 106.421 186.56 106.736 186.293 107.152C186.027 107.557 185.893 108.059 185.893 108.656V109.424H184.181V110.624H185.893V118ZM204.17 118.192C204.97 118.192 205.695 118 206.346 117.616C207.007 117.232 207.535 116.704 207.93 116.032C208.325 115.349 208.522 114.571 208.522 113.696C208.522 112.832 208.33 112.064 207.946 111.392C207.573 110.72 207.055 110.192 206.394 109.808C205.743 109.424 205.002 109.232 204.17 109.232C203.338 109.232 202.591 109.429 201.93 109.824C201.279 110.208 200.762 110.736 200.378 111.408C199.994 112.08 199.802 112.843 199.802 113.696C199.802 114.56 199.994 115.333 200.378 116.016C200.773 116.688 201.301 117.221 201.962 117.616C202.623 118 203.359 118.192 204.17 118.192ZM204.17 116.992C203.594 116.992 203.071 116.848 202.602 116.56C202.143 116.272 201.775 115.877 201.498 115.376C201.221 114.875 201.082 114.315 201.082 113.696C201.082 113.077 201.221 112.523 201.498 112.032C201.775 111.541 202.143 111.152 202.602 110.864C203.071 110.576 203.594 110.432 204.17 110.432C204.746 110.432 205.263 110.576 205.722 110.864C206.191 111.152 206.559 111.541 206.826 112.032C207.103 112.523 207.242 113.077 207.242 113.696C207.242 114.315 207.103 114.875 206.826 115.376C206.559 115.877 206.191 116.272 205.722 116.56C205.263 116.848 204.746 116.992 204.17 116.992ZM210.638 118H211.838V112.896C211.838 112.128 212.052 111.525 212.478 111.088C212.905 110.651 213.444 110.432 214.094 110.432C214.756 110.432 215.289 110.651 215.694 111.088C216.11 111.515 216.318 112.117 216.318 112.896V118H217.518V112.432C217.518 111.824 217.374 111.28 217.086 110.8C216.809 110.309 216.425 109.925 215.934 109.648C215.454 109.371 214.91 109.232 214.302 109.232C213.769 109.232 213.289 109.344 212.862 109.568C212.436 109.792 212.094 110.096 211.838 110.48V109.424H210.638V118ZM226.449 118.192C226.982 118.192 227.484 118.096 227.953 117.904C228.422 117.712 228.838 117.451 229.201 117.12C229.564 116.789 229.836 116.416 230.017 116L228.929 115.408C228.705 115.888 228.374 116.272 227.937 116.56C227.51 116.848 227.014 116.992 226.449 116.992C225.884 116.992 225.372 116.848 224.913 116.56C224.465 116.272 224.108 115.883 223.841 115.392C223.585 114.891 223.457 114.331 223.457 113.712C223.457 113.083 223.585 112.523 223.841 112.032C224.108 111.531 224.465 111.141 224.913 110.864C225.372 110.576 225.884 110.432 226.449 110.432C227.014 110.432 227.516 110.576 227.953 110.864C228.39 111.152 228.716 111.525 228.929 111.984L230.017 111.424C229.836 110.997 229.564 110.624 229.201 110.304C228.838 109.973 228.422 109.712 227.953 109.52C227.484 109.328 226.982 109.232 226.449 109.232C225.606 109.232 224.865 109.429 224.225 109.824C223.585 110.208 223.084 110.736 222.721 111.408C222.358 112.08 222.177 112.843 222.177 113.696C222.177 114.549 222.358 115.317 222.721 116C223.084 116.672 223.585 117.205 224.225 117.6C224.865 117.995 225.606 118.192 226.449 118.192ZM234.446 118.192C235.108 118.192 235.705 118.059 236.238 117.792C236.772 117.525 237.177 117.184 237.454 116.768V118H238.654V112.112C238.654 111.547 238.516 111.051 238.238 110.624C237.972 110.187 237.593 109.845 237.102 109.6C236.622 109.355 236.068 109.232 235.438 109.232C234.958 109.232 234.494 109.323 234.046 109.504C233.598 109.675 233.198 109.909 232.846 110.208C232.505 110.507 232.254 110.837 232.094 111.2L233.182 111.792C233.374 111.376 233.668 111.04 234.062 110.784C234.457 110.517 234.916 110.384 235.438 110.384C236.036 110.384 236.521 110.544 236.894 110.864C237.268 111.184 237.454 111.6 237.454 112.112V112.56L234.35 113.072C233.401 113.232 232.708 113.557 232.27 114.048C231.833 114.539 231.614 115.115 231.614 115.776C231.614 116.245 231.737 116.661 231.982 117.024C232.228 117.387 232.564 117.675 232.99 117.888C233.417 118.091 233.902 118.192 234.446 118.192ZM232.894 115.728C232.894 115.333 233.028 114.992 233.294 114.704C233.572 114.416 234.02 114.219 234.638 114.112L237.454 113.648V114.288C237.454 114.811 237.332 115.285 237.086 115.712C236.841 116.139 236.5 116.48 236.062 116.736C235.625 116.981 235.113 117.104 234.526 117.104C234.046 117.104 233.652 116.971 233.342 116.704C233.044 116.437 232.894 116.112 232.894 115.728ZM241.123 118H242.323V106.08H241.123V118ZM244.779 118H245.979V106.08H244.779V118ZM0.928 142H8.672V140.88H2.768L5.792 137.552C6.37867 136.912 6.85867 136.352 7.232 135.872C7.60533 135.392 7.88267 134.944 8.064 134.528C8.256 134.112 8.352 133.68 8.352 133.232C8.352 132.581 8.19733 132.005 7.888 131.504C7.58933 131.003 7.17333 130.608 6.64 130.32C6.10667 130.032 5.48267 129.888 4.768 129.888C3.76533 129.888 2.912 130.176 2.208 130.752C1.504 131.317 1.04533 132.085 0.832 133.056L2 133.312C2.17067 132.587 2.496 132.021 2.976 131.616C3.46667 131.211 4.06933 131.008 4.784 131.008C5.47733 131.008 6.032 131.2 6.448 131.584C6.864 131.968 7.072 132.517 7.072 133.232C7.072 133.68 6.97067 134.096 6.768 134.48C6.56533 134.864 6.256 135.291 5.84 135.76C5.43467 136.229 4.90667 136.821 4.256 137.536L0.928 141.2V142ZM16.2375 142H17.3575V139.184H18.8135V138.144H17.3575V130.08H16.2375L10.1735 138.144V139.184H16.2375V142ZM16.2375 138.144H11.5015L16.2375 131.824V138.144ZM19.5476 142.64H20.9396L26.3476 129.44H24.9556L19.5476 142.64ZM27.639 142H28.983L34.343 131.184V130.064H27.063V131.184H33.015L27.639 142ZM42.2933 142.096C42.3893 142.096 42.5173 142.091 42.6773 142.08C42.8373 142.069 42.9813 142.048 43.1093 142.016V140.928C43.0239 140.939 42.9226 140.949 42.8053 140.96C42.6879 140.971 42.5866 140.976 42.5013 140.976C41.9679 140.976 41.5999 140.837 41.3973 140.56C41.1946 140.283 41.0933 139.931 41.0933 139.504V134.624H42.9813V133.424H41.0933V131.44H39.8932V132.16C39.8932 132.523 39.7866 132.827 39.5733 133.072C39.3599 133.307 39.0719 133.424 38.7093 133.424H38.3092V134.624H39.8932V139.504C39.8932 140.336 40.1013 140.976 40.5173 141.424C40.9333 141.872 41.5253 142.096 42.2933 142.096ZM48.9199 142.192C49.7199 142.192 50.4452 142 51.0959 141.616C51.7572 141.232 52.2852 140.704 52.6799 140.032C53.0745 139.349 53.2719 138.571 53.2719 137.696C53.2719 136.832 53.0799 136.064 52.6959 135.392C52.3225 134.72 51.8052 134.192 51.1439 133.808C50.4932 133.424 49.7519 133.232 48.9199 133.232C48.0879 133.232 47.3412 133.429 46.6799 133.824C46.0292 134.208 45.5119 134.736 45.1279 135.408C44.7439 136.08 44.5519 136.843 44.5519 137.696C44.5519 138.56 44.7439 139.333 45.1279 140.016C45.5225 140.688 46.0505 141.221 46.7119 141.616C47.3732 142 48.1092 142.192 48.9199 142.192ZM48.9199 140.992C48.3439 140.992 47.8212 140.848 47.3519 140.56C46.8932 140.272 46.5252 139.877 46.2479 139.376C45.9705 138.875 45.8319 138.315 45.8319 137.696C45.8319 137.077 45.9705 136.523 46.2479 136.032C46.5252 135.541 46.8932 135.152 47.3519 134.864C47.8212 134.576 48.3439 134.432 48.9199 134.432C49.4959 134.432 50.0132 134.576 50.4719 134.864C50.9412 135.152 51.3092 135.541 51.5759 136.032C51.8532 136.523 51.9919 137.077 51.9919 137.696C51.9919 138.315 51.8532 138.875 51.5759 139.376C51.3092 139.877 50.9412 140.272 50.4719 140.56C50.0132 140.848 49.4959 140.992 48.9199 140.992ZM61.083 142.192C61.6803 142.192 62.2083 142.091 62.667 141.888C63.1257 141.675 63.483 141.381 63.739 141.008C64.0057 140.635 64.139 140.213 64.139 139.744C64.139 139.168 63.9417 138.667 63.547 138.24C63.163 137.813 62.6243 137.499 61.931 137.296L60.507 136.88C60.3577 136.837 60.1817 136.773 59.979 136.688C59.787 136.603 59.6163 136.475 59.467 136.304C59.3177 136.133 59.243 135.904 59.243 135.616C59.243 135.243 59.387 134.933 59.675 134.688C59.963 134.443 60.347 134.32 60.827 134.32C61.3177 134.32 61.7603 134.459 62.155 134.736C62.5603 135.003 62.8697 135.376 63.083 135.856L64.107 135.376C63.8617 134.704 63.4403 134.181 62.843 133.808C62.2563 133.424 61.6003 133.232 60.875 133.232C60.3417 133.232 59.8563 133.333 59.419 133.536C58.9817 133.739 58.635 134.027 58.379 134.4C58.123 134.773 57.995 135.211 57.995 135.712C57.995 136.245 58.171 136.715 58.523 137.12C58.875 137.525 59.4457 137.84 60.235 138.064L61.467 138.416C61.6377 138.459 61.835 138.528 62.059 138.624C62.283 138.72 62.4803 138.859 62.651 139.04C62.8217 139.211 62.907 139.445 62.907 139.744C62.907 140.149 62.731 140.48 62.379 140.736C62.027 140.981 61.595 141.104 61.083 141.104C60.5497 141.104 60.059 140.949 59.611 140.64C59.1737 140.331 58.8323 139.915 58.587 139.392L57.579 139.872C57.8563 140.587 58.3043 141.152 58.923 141.568C59.5417 141.984 60.2617 142.192 61.083 142.192ZM69.2876 142.192C69.821 142.192 70.301 142.08 70.7276 141.856C71.1543 141.632 71.4956 141.328 71.7516 140.944V142H72.9516V133.424H71.7516V138.528C71.7516 139.296 71.5383 139.899 71.1116 140.336C70.6956 140.773 70.157 140.992 69.4956 140.992C68.845 140.992 68.3116 140.784 67.8956 140.368C67.4796 139.941 67.2716 139.381 67.2716 138.688V133.424H66.0716V138.832C66.0716 139.493 66.2103 140.08 66.4876 140.592C66.7756 141.093 67.165 141.488 67.6556 141.776C68.1463 142.053 68.6903 142.192 69.2876 142.192ZM75.4195 145.2H76.6195V140.608C76.9395 141.109 77.3768 141.499 77.9315 141.776C78.4862 142.053 79.0942 142.192 79.7555 142.192C80.5662 142.192 81.2862 142 81.9155 141.616C82.5555 141.221 83.0568 140.688 83.4195 140.016C83.7928 139.333 83.9795 138.565 83.9795 137.712C83.9795 136.848 83.7928 136.08 83.4195 135.408C83.0568 134.736 82.5555 134.208 81.9155 133.824C81.2862 133.429 80.5662 133.232 79.7555 133.232C79.0835 133.232 78.4808 133.365 77.9475 133.632C77.4142 133.899 76.9715 134.261 76.6195 134.72V133.424H75.4195V145.2ZM79.6915 140.992C79.1155 140.992 78.5928 140.848 78.1235 140.56C77.6648 140.272 77.2968 139.883 77.0195 139.392C76.7528 138.891 76.6195 138.331 76.6195 137.712C76.6195 137.093 76.7528 136.539 77.0195 136.048C77.2968 135.547 77.6648 135.152 78.1235 134.864C78.5928 134.576 79.1155 134.432 79.6915 134.432C80.2675 134.432 80.7795 134.576 81.2275 134.864C81.6862 135.152 82.0435 135.541 82.2995 136.032C82.5662 136.523 82.6995 137.083 82.6995 137.712C82.6995 138.331 82.5662 138.891 82.2995 139.392C82.0435 139.883 81.6862 140.272 81.2275 140.56C80.7795 140.848 80.2675 140.992 79.6915 140.992ZM86.0914 145.2H87.2914V140.608C87.6114 141.109 88.0487 141.499 88.6034 141.776C89.158 142.053 89.766 142.192 90.4274 142.192C91.238 142.192 91.958 142 92.5874 141.616C93.2274 141.221 93.7287 140.688 94.0914 140.016C94.4647 139.333 94.6514 138.565 94.6514 137.712C94.6514 136.848 94.4647 136.08 94.0914 135.408C93.7287 134.736 93.2274 134.208 92.5874 133.824C91.958 133.429 91.238 133.232 90.4274 133.232C89.7554 133.232 89.1527 133.365 88.6194 133.632C88.086 133.899 87.6434 134.261 87.2914 134.72V133.424H86.0914V145.2ZM90.3634 140.992C89.7874 140.992 89.2647 140.848 88.7954 140.56C88.3367 140.272 87.9687 139.883 87.6914 139.392C87.4247 138.891 87.2914 138.331 87.2914 137.712C87.2914 137.093 87.4247 136.539 87.6914 136.048C87.9687 135.547 88.3367 135.152 88.7954 134.864C89.2647 134.576 89.7874 134.432 90.3634 134.432C90.9394 134.432 91.4514 134.576 91.8994 134.864C92.358 135.152 92.7154 135.541 92.9714 136.032C93.238 136.523 93.3714 137.083 93.3714 137.712C93.3714 138.331 93.238 138.891 92.9714 139.392C92.7154 139.883 92.358 140.272 91.8994 140.56C91.4514 140.848 90.9394 140.992 90.3634 140.992ZM100.779 142.192C101.579 142.192 102.305 142 102.955 141.616C103.617 141.232 104.145 140.704 104.539 140.032C104.934 139.349 105.131 138.571 105.131 137.696C105.131 136.832 104.939 136.064 104.555 135.392C104.182 134.72 103.665 134.192 103.003 133.808C102.353 133.424 101.611 133.232 100.779 133.232C99.9473 133.232 99.2006 133.429 98.5393 133.824C97.8886 134.208 97.3713 134.736 96.9873 135.408C96.6033 136.08 96.4113 136.843 96.4113 137.696C96.4113 138.56 96.6033 139.333 96.9873 140.016C97.3819 140.688 97.9099 141.221 98.5713 141.616C99.2326 142 99.9686 142.192 100.779 142.192ZM100.779 140.992C100.203 140.992 99.6806 140.848 99.2113 140.56C98.7526 140.272 98.3846 139.877 98.1073 139.376C97.8299 138.875 97.6913 138.315 97.6913 137.696C97.6913 137.077 97.8299 136.523 98.1073 136.032C98.3846 135.541 98.7526 135.152 99.2113 134.864C99.6806 134.576 100.203 134.432 100.779 134.432C101.355 134.432 101.873 134.576 102.331 134.864C102.801 135.152 103.169 135.541 103.435 136.032C103.713 136.523 103.851 137.077 103.851 137.696C103.851 138.315 103.713 138.875 103.435 139.376C103.169 139.877 102.801 140.272 102.331 140.56C101.873 140.848 101.355 140.992 100.779 140.992ZM107.248 142H108.448V136.72C108.448 136.016 108.634 135.472 109.008 135.088C109.381 134.704 109.877 134.512 110.496 134.512H111.248V133.312H110.704C110.181 133.312 109.728 133.403 109.344 133.584C108.97 133.765 108.672 134.021 108.448 134.352V133.424H107.248V142ZM115.934 142.096C116.03 142.096 116.158 142.091 116.318 142.08C116.478 142.069 116.622 142.048 116.75 142.016V140.928C116.665 140.939 116.563 140.949 116.446 140.96C116.329 140.971 116.227 140.976 116.142 140.976C115.609 140.976 115.241 140.837 115.038 140.56C114.835 140.283 114.734 139.931 114.734 139.504V134.624H116.622V133.424H114.734V131.44H113.534V132.16C113.534 132.523 113.427 132.827 113.214 133.072C113.001 133.307 112.713 133.424 112.35 133.424H111.95V134.624H113.534V139.504C113.534 140.336 113.742 140.976 114.158 141.424C114.574 141.872 115.166 142.096 115.934 142.096ZM121.752 145.52C122.317 145.52 122.797 145.403 123.192 145.168C123.586 144.944 123.912 144.645 124.168 144.272C124.434 143.899 124.653 143.504 124.824 143.088L128.744 133.408H127.416L124.616 140.496L121.816 133.408H120.52L123.944 142L123.64 142.736C123.373 143.355 123.101 143.771 122.824 143.984C122.546 144.208 122.146 144.32 121.624 144.32C121.453 144.32 121.282 144.304 121.112 144.272C120.952 144.251 120.818 144.235 120.712 144.224V145.344C120.882 145.408 121.053 145.451 121.224 145.472C121.405 145.504 121.581 145.52 121.752 145.52ZM134.014 142.192C134.814 142.192 135.539 142 136.19 141.616C136.851 141.232 137.379 140.704 137.774 140.032C138.168 139.349 138.366 138.571 138.366 137.696C138.366 136.832 138.174 136.064 137.79 135.392C137.416 134.72 136.899 134.192 136.238 133.808C135.587 133.424 134.846 133.232 134.014 133.232C133.182 133.232 132.435 133.429 131.774 133.824C131.123 134.208 130.606 134.736 130.222 135.408C129.838 136.08 129.646 136.843 129.646 137.696C129.646 138.56 129.838 139.333 130.222 140.016C130.616 140.688 131.144 141.221 131.806 141.616C132.467 142 133.203 142.192 134.014 142.192ZM134.014 140.992C133.438 140.992 132.915 140.848 132.446 140.56C131.987 140.272 131.619 139.877 131.342 139.376C131.064 138.875 130.926 138.315 130.926 137.696C130.926 137.077 131.064 136.523 131.342 136.032C131.619 135.541 131.987 135.152 132.446 134.864C132.915 134.576 133.438 134.432 134.014 134.432C134.59 134.432 135.107 134.576 135.566 134.864C136.035 135.152 136.403 135.541 136.67 136.032C136.947 136.523 137.086 137.077 137.086 137.696C137.086 138.315 136.947 138.875 136.67 139.376C136.403 139.877 136.035 140.272 135.566 140.56C135.107 140.848 134.59 140.992 134.014 140.992ZM143.522 142.192C144.055 142.192 144.535 142.08 144.962 141.856C145.389 141.632 145.73 141.328 145.986 140.944V142H147.186V133.424H145.986V138.528C145.986 139.296 145.773 139.899 145.346 140.336C144.93 140.773 144.391 140.992 143.73 140.992C143.079 140.992 142.546 140.784 142.13 140.368C141.714 139.941 141.506 139.381 141.506 138.688V133.424H140.306V138.832C140.306 139.493 140.445 140.08 140.722 140.592C141.01 141.093 141.399 141.488 141.89 141.776C142.381 142.053 142.925 142.192 143.522 142.192ZM149.654 142H150.854V136.72C150.854 136.016 151.041 135.472 151.414 135.088C151.787 134.704 152.283 134.512 152.902 134.512H153.654V133.312H153.11C152.587 133.312 152.134 133.403 151.75 133.584C151.377 133.765 151.078 134.021 150.854 134.352V133.424H149.654V142ZM157.779 142H158.979V136.896C158.979 136.128 159.192 135.525 159.619 135.088C160.046 134.651 160.584 134.432 161.235 134.432C161.896 134.432 162.43 134.651 162.835 135.088C163.251 135.515 163.459 136.117 163.459 136.896V142H164.659V136.432C164.659 135.824 164.515 135.28 164.227 134.8C163.95 134.309 163.566 133.925 163.075 133.648C162.595 133.371 162.051 133.232 161.443 133.232C160.91 133.232 160.43 133.344 160.003 133.568C159.576 133.792 159.235 134.096 158.979 134.48V133.424H157.779V142ZM170.855 142.192C171.441 142.192 171.975 142.096 172.455 141.904C172.945 141.701 173.367 141.44 173.719 141.12C174.071 140.789 174.332 140.432 174.503 140.048L173.479 139.504C173.212 139.952 172.865 140.325 172.439 140.624C172.012 140.923 171.484 141.072 170.855 141.072C170.343 141.072 169.863 140.949 169.415 140.704C168.967 140.459 168.599 140.117 168.311 139.68C168.033 139.232 167.884 138.699 167.863 138.08H174.615C174.636 137.941 174.652 137.808 174.663 137.68C174.673 137.541 174.679 137.419 174.679 137.312C174.679 136.8 174.588 136.304 174.407 135.824C174.225 135.333 173.964 134.896 173.623 134.512C173.281 134.117 172.865 133.808 172.375 133.584C171.895 133.349 171.345 133.232 170.727 133.232C169.948 133.232 169.244 133.424 168.615 133.808C167.996 134.192 167.505 134.72 167.143 135.392C166.78 136.053 166.599 136.816 166.599 137.68C166.599 138.544 166.785 139.317 167.159 140C167.532 140.683 168.039 141.221 168.679 141.616C169.329 142 170.055 142.192 170.855 142.192ZM170.727 134.352C171.207 134.352 171.644 134.464 172.039 134.688C172.444 134.912 172.764 135.221 172.999 135.616C173.244 136 173.372 136.448 173.383 136.96H167.895C167.959 136.427 168.124 135.968 168.391 135.584C168.668 135.189 169.009 134.885 169.415 134.672C169.82 134.459 170.257 134.352 170.727 134.352ZM180.699 142.192C181.285 142.192 181.819 142.096 182.299 141.904C182.789 141.701 183.211 141.44 183.562 141.12C183.915 140.789 184.176 140.432 184.347 140.048L183.323 139.504C183.056 139.952 182.709 140.325 182.283 140.624C181.856 140.923 181.328 141.072 180.699 141.072C180.187 141.072 179.707 140.949 179.259 140.704C178.811 140.459 178.443 140.117 178.155 139.68C177.877 139.232 177.728 138.699 177.707 138.08H184.459C184.48 137.941 184.496 137.808 184.507 137.68C184.517 137.541 184.523 137.419 184.523 137.312C184.523 136.8 184.432 136.304 184.251 135.824C184.069 135.333 183.808 134.896 183.467 134.512C183.125 134.117 182.709 133.808 182.219 133.584C181.739 133.349 181.189 133.232 180.571 133.232C179.792 133.232 179.088 133.424 178.459 133.808C177.84 134.192 177.349 134.72 176.987 135.392C176.624 136.053 176.443 136.816 176.443 137.68C176.443 138.544 176.629 139.317 177.003 140C177.376 140.683 177.883 141.221 178.523 141.616C179.173 142 179.899 142.192 180.699 142.192ZM180.571 134.352C181.051 134.352 181.488 134.464 181.883 134.688C182.288 134.912 182.608 135.221 182.843 135.616C183.088 136 183.216 136.448 183.227 136.96H177.739C177.803 136.427 177.968 135.968 178.235 135.584C178.512 135.189 178.853 134.885 179.259 134.672C179.664 134.459 180.101 134.352 180.571 134.352ZM190.51 142.192C191.172 142.192 191.78 142.053 192.334 141.776C192.889 141.499 193.326 141.109 193.646 140.608V142H194.846V130.08H193.646V134.72C193.294 134.261 192.852 133.899 192.318 133.632C191.785 133.365 191.182 133.232 190.51 133.232C189.7 133.232 188.974 133.429 188.334 133.824C187.705 134.208 187.204 134.736 186.83 135.408C186.468 136.08 186.286 136.848 186.286 137.712C186.286 138.565 186.468 139.333 186.83 140.016C187.204 140.688 187.71 141.221 188.35 141.616C188.99 142 189.71 142.192 190.51 142.192ZM190.574 140.992C189.998 140.992 189.481 140.848 189.022 140.56C188.574 140.272 188.217 139.883 187.95 139.392C187.694 138.891 187.566 138.331 187.566 137.712C187.566 137.083 187.694 136.523 187.95 136.032C188.217 135.541 188.58 135.152 189.038 134.864C189.497 134.576 190.009 134.432 190.574 134.432C191.15 134.432 191.668 134.576 192.126 134.864C192.596 135.152 192.964 135.547 193.23 136.048C193.508 136.539 193.646 137.093 193.646 137.712C193.646 138.331 193.508 138.891 193.23 139.392C192.964 139.883 192.596 140.272 192.126 140.56C191.668 140.848 191.15 140.992 190.574 140.992ZM200.286 142.192C200.883 142.192 201.411 142.091 201.87 141.888C202.329 141.675 202.686 141.381 202.942 141.008C203.209 140.635 203.342 140.213 203.342 139.744C203.342 139.168 203.145 138.667 202.75 138.24C202.366 137.813 201.827 137.499 201.134 137.296L199.71 136.88C199.561 136.837 199.385 136.773 199.182 136.688C198.99 136.603 198.819 136.475 198.67 136.304C198.521 136.133 198.446 135.904 198.446 135.616C198.446 135.243 198.59 134.933 198.878 134.688C199.166 134.443 199.55 134.32 200.03 134.32C200.521 134.32 200.963 134.459 201.358 134.736C201.763 135.003 202.073 135.376 202.286 135.856L203.31 135.376C203.065 134.704 202.643 134.181 202.046 133.808C201.459 133.424 200.803 133.232 200.078 133.232C199.545 133.232 199.059 133.333 198.622 133.536C198.185 133.739 197.838 134.027 197.582 134.4C197.326 134.773 197.198 135.211 197.198 135.712C197.198 136.245 197.374 136.715 197.726 137.12C198.078 137.525 198.649 137.84 199.438 138.064L200.67 138.416C200.841 138.459 201.038 138.528 201.262 138.624C201.486 138.72 201.683 138.859 201.854 139.04C202.025 139.211 202.11 139.445 202.11 139.744C202.11 140.149 201.934 140.48 201.582 140.736C201.23 140.981 200.798 141.104 200.286 141.104C199.753 141.104 199.262 140.949 198.814 140.64C198.377 140.331 198.035 139.915 197.79 139.392L196.782 139.872C197.059 140.587 197.507 141.152 198.126 141.568C198.745 141.984 199.465 142.192 200.286 142.192ZM205.867 142H207.147V140.24H205.867V142Z" fill="#072125"/>
<rect x="1" width="44" height="44" rx="12" fill="#DCF2ED"/>
<g clip-path="url(#clip0_1376_475)">
<path d="M22.5 12C17.81 12 14 15.81 14 20.5C14 25.19 17.81 29 22.5 29H23V32C27.86 29.66 31 25 31 20.5C31 15.81 27.19 12 22.5 12ZM23.5 26.5H21.5V24.5H23.5V26.5ZM23.5 23H21.5C21.5 19.75 24.5 20 24.5 18C24.5 16.9 23.6 16 22.5 16C21.4 16 20.5 16.9 20.5 18H18.5C18.5 15.79 20.29 14 22.5 14C24.71 14 26.5 15.79 26.5 18C26.5 20.5 23.5 20.75 23.5 23Z" fill="#20484F"/>
</g>
<path d="M7.462 83.216C8.494 83.216 9.406 83 10.198 82.568C11.002 82.136 11.632 81.542 12.088 80.786C12.544 80.03 12.772 79.172 12.772 78.212V69.59H10.324V78.086C10.324 78.65 10.198 79.154 9.946 79.598C9.706 80.03 9.37 80.372 8.938 80.624C8.518 80.864 8.026 80.984 7.462 80.984C6.91 80.984 6.418 80.864 5.986 80.624C5.554 80.372 5.212 80.03 4.96 79.598C4.72 79.154 4.6 78.65 4.6 78.086V69.59H2.152V78.212C2.152 79.172 2.38 80.03 2.836 80.786C3.292 81.542 3.916 82.136 4.708 82.568C5.512 83 6.43 83.216 7.462 83.216ZM15.0179 83H17.3759V77.258C17.3759 76.622 17.5559 76.112 17.9159 75.728C18.2879 75.344 18.7679 75.152 19.3559 75.152C19.9439 75.152 20.4179 75.344 20.7779 75.728C21.1499 76.1 21.3359 76.61 21.3359 77.258V83H23.6939V76.7C23.6939 75.968 23.5379 75.326 23.2259 74.774C22.9139 74.21 22.4759 73.772 21.9119 73.46C21.3599 73.148 20.7239 72.992 20.0039 72.992C19.3919 72.992 18.8399 73.112 18.3479 73.352C17.8679 73.592 17.4959 73.946 17.2319 74.414V73.208H15.0179V83ZM31.0338 83.216C31.9818 83.216 32.8278 82.994 33.5718 82.55C34.3158 82.094 34.9038 81.482 35.3358 80.714C35.7678 79.934 35.9838 79.064 35.9838 78.104C35.9838 77.144 35.7678 76.28 35.3358 75.512C34.9038 74.732 34.3158 74.12 33.5718 73.676C32.8278 73.22 31.9878 72.992 31.0518 72.992C29.7798 72.992 28.7778 73.394 28.0458 74.198V69.59H25.6878V83H27.9018V81.902C28.2618 82.322 28.7118 82.646 29.2518 82.874C29.8038 83.102 30.3978 83.216 31.0338 83.216ZM30.7638 81.056C30.2478 81.056 29.7798 80.93 29.3598 80.678C28.9518 80.426 28.6278 80.078 28.3878 79.634C28.1598 79.19 28.0458 78.68 28.0458 78.104C28.0458 77.528 28.1598 77.018 28.3878 76.574C28.6278 76.13 28.9518 75.782 29.3598 75.53C29.7798 75.278 30.2478 75.152 30.7638 75.152C31.3038 75.152 31.7778 75.284 32.1858 75.548C32.6058 75.8 32.9358 76.148 33.1758 76.592C33.4158 77.036 33.5358 77.54 33.5358 78.104C33.5358 78.668 33.4158 79.178 33.1758 79.634C32.9358 80.078 32.6058 80.426 32.1858 80.678C31.7778 80.93 31.3038 81.056 30.7638 81.056ZM42.4256 83.216C43.4216 83.216 44.2916 82.994 45.0356 82.55C45.7916 82.094 46.3196 81.518 46.6196 80.822L44.7116 79.886C44.4956 80.258 44.1956 80.564 43.8116 80.804C43.4396 81.032 42.9836 81.146 42.4436 81.146C41.7356 81.146 41.1416 80.93 40.6616 80.498C40.1816 80.066 39.9056 79.49 39.8336 78.77H46.8896C46.9376 78.638 46.9676 78.488 46.9796 78.32C47.0036 78.14 47.0156 77.96 47.0156 77.78C47.0156 76.904 46.8296 76.106 46.4576 75.386C46.0856 74.666 45.5456 74.09 44.8376 73.658C44.1296 73.214 43.2656 72.992 42.2456 72.992C41.3336 72.992 40.5056 73.214 39.7616 73.658C39.0296 74.102 38.4476 74.708 38.0156 75.476C37.5956 76.232 37.3856 77.102 37.3856 78.086C37.3856 79.034 37.5956 79.898 38.0156 80.678C38.4356 81.458 39.0236 82.076 39.7796 82.532C40.5356 82.988 41.4176 83.216 42.4256 83.216ZM42.2456 74.936C42.8696 74.936 43.3856 75.128 43.7936 75.512C44.2136 75.884 44.4476 76.37 44.4956 76.97H39.8876C40.0196 76.322 40.2956 75.824 40.7156 75.476C41.1476 75.116 41.6576 74.936 42.2456 74.936ZM51.7203 83.216C52.9923 83.216 54.0123 82.796 54.7803 81.956V83H57.0123V76.484C57.0123 75.8 56.8383 75.194 56.4903 74.666C56.1423 74.138 55.6623 73.73 55.0503 73.442C54.4503 73.142 53.7483 72.992 52.9443 72.992C51.9603 72.992 51.0843 73.226 50.3163 73.694C49.5483 74.162 49.0203 74.78 48.7323 75.548L50.6583 76.484C50.8383 76.04 51.1203 75.686 51.5043 75.422C51.8883 75.146 52.3383 75.008 52.8543 75.008C53.3943 75.008 53.8263 75.152 54.1503 75.44C54.4863 75.716 54.6543 76.064 54.6543 76.484V76.808L51.7383 77.276C50.5863 77.468 49.7343 77.834 49.1823 78.374C48.6303 78.914 48.3543 79.592 48.3543 80.408C48.3543 81.272 48.6603 81.956 49.2723 82.46C49.8843 82.964 50.7003 83.216 51.7203 83.216ZM50.8023 80.318C50.8023 79.634 51.2643 79.202 52.1883 79.022L54.6543 78.608V79.004C54.6543 79.676 54.4203 80.246 53.9523 80.714C53.4963 81.182 52.8963 81.416 52.1523 81.416C51.7563 81.416 51.4323 81.32 51.1803 81.128C50.9283 80.924 50.8023 80.654 50.8023 80.318ZM63.48 83.108C63.876 83.108 64.266 83.078 64.65 83.018V80.984C64.422 81.02 64.212 81.038 64.02 81.038C63.444 81.038 63.024 80.906 62.76 80.642C62.496 80.378 62.364 80 62.364 79.508V75.314H64.614V73.208H62.364V70.976H60.006V71.732C60.006 72.212 59.874 72.578 59.61 72.83C59.346 73.082 58.974 73.208 58.494 73.208H58.314V75.314H60.006V79.634C60.006 80.726 60.306 81.578 60.906 82.19C61.518 82.802 62.376 83.108 63.48 83.108ZM69.3688 83.216C70.6408 83.216 71.6608 82.796 72.4288 81.956V83H74.6608V76.484C74.6608 75.8 74.4868 75.194 74.1388 74.666C73.7908 74.138 73.3108 73.73 72.6988 73.442C72.0988 73.142 71.3968 72.992 70.5928 72.992C69.6088 72.992 68.7328 73.226 67.9648 73.694C67.1968 74.162 66.6688 74.78 66.3808 75.548L68.3068 76.484C68.4868 76.04 68.7688 75.686 69.1528 75.422C69.5368 75.146 69.9868 75.008 70.5028 75.008C71.0428 75.008 71.4748 75.152 71.7988 75.44C72.1348 75.716 72.3028 76.064 72.3028 76.484V76.808L69.3868 77.276C68.2348 77.468 67.3828 77.834 66.8308 78.374C66.2788 78.914 66.0028 79.592 66.0028 80.408C66.0028 81.272 66.3088 81.956 66.9208 82.46C67.5328 82.964 68.3488 83.216 69.3688 83.216ZM68.4508 80.318C68.4508 79.634 68.9128 79.202 69.8368 79.022L72.3028 78.608V79.004C72.3028 79.676 72.0688 80.246 71.6008 80.714C71.1448 81.182 70.5448 81.416 69.8008 81.416C69.4048 81.416 69.0808 81.32 68.8288 81.128C68.5768 80.924 68.4508 80.654 68.4508 80.318ZM82.1862 83.216C83.1342 83.216 83.9802 82.994 84.7242 82.55C85.4682 82.094 86.0562 81.482 86.4882 80.714C86.9202 79.934 87.1362 79.064 87.1362 78.104C87.1362 77.144 86.9202 76.28 86.4882 75.512C86.0562 74.732 85.4682 74.12 84.7242 73.676C83.9802 73.22 83.1402 72.992 82.2042 72.992C80.9322 72.992 79.9302 73.394 79.1982 74.198V69.59H76.8402V83H79.0542V81.902C79.4142 82.322 79.8642 82.646 80.4042 82.874C80.9562 83.102 81.5502 83.216 82.1862 83.216ZM81.9162 81.056C81.4002 81.056 80.9322 80.93 80.5122 80.678C80.1042 80.426 79.7802 80.078 79.5402 79.634C79.3122 79.19 79.1982 78.68 79.1982 78.104C79.1982 77.528 79.3122 77.018 79.5402 76.574C79.7802 76.13 80.1042 75.782 80.5122 75.53C80.9322 75.278 81.4002 75.152 81.9162 75.152C82.4562 75.152 82.9302 75.284 83.3382 75.548C83.7582 75.8 84.0882 76.148 84.3282 76.592C84.5682 77.036 84.6882 77.54 84.6882 78.104C84.6882 78.668 84.5682 79.178 84.3282 79.634C84.0882 80.078 83.7582 80.426 83.3382 80.678C82.9302 80.93 82.4562 81.056 81.9162 81.056ZM88.9339 83H91.2919V69.59H88.9339V83ZM98.1131 83.216C99.1091 83.216 99.9791 82.994 100.723 82.55C101.479 82.094 102.007 81.518 102.307 80.822L100.399 79.886C100.183 80.258 99.8831 80.564 99.4991 80.804C99.1271 81.032 98.6711 81.146 98.1311 81.146C97.4231 81.146 96.8291 80.93 96.3491 80.498C95.8691 80.066 95.5931 79.49 95.5211 78.77H102.577C102.625 78.638 102.655 78.488 102.667 78.32C102.691 78.14 102.703 77.96 102.703 77.78C102.703 76.904 102.517 76.106 102.145 75.386C101.773 74.666 101.233 74.09 100.525 73.658C99.8171 73.214 98.9531 72.992 97.9331 72.992C97.0211 72.992 96.1931 73.214 95.4491 73.658C94.7171 74.102 94.1351 74.708 93.7031 75.476C93.2831 76.232 93.0731 77.102 93.0731 78.086C93.0731 79.034 93.2831 79.898 93.7031 80.678C94.1231 81.458 94.7111 82.076 95.4671 82.532C96.2231 82.988 97.1051 83.216 98.1131 83.216ZM97.9331 74.936C98.5571 74.936 99.0731 75.128 99.4811 75.512C99.9011 75.884 100.135 76.37 100.183 76.97H95.5751C95.7071 76.322 95.9831 75.824 96.4031 75.476C96.8351 75.116 97.3451 74.936 97.9331 74.936ZM111.416 83.216C112.16 83.216 112.808 83.09 113.36 82.838C113.912 82.586 114.344 82.238 114.656 81.794C114.968 81.338 115.124 80.816 115.124 80.228C115.124 79.544 114.908 78.956 114.476 78.464C114.044 77.972 113.42 77.612 112.604 77.384L111.038 76.916C110.702 76.82 110.426 76.694 110.21 76.538C109.994 76.382 109.886 76.166 109.886 75.89C109.886 75.602 110 75.368 110.228 75.188C110.456 75.008 110.768 74.918 111.164 74.918C111.656 74.918 112.1 75.05 112.496 75.314C112.904 75.578 113.186 75.932 113.342 76.376L115.142 75.53C114.842 74.738 114.338 74.12 113.63 73.676C112.922 73.22 112.106 72.992 111.182 72.992C110.474 72.992 109.844 73.118 109.292 73.37C108.752 73.622 108.326 73.976 108.014 74.432C107.714 74.876 107.564 75.398 107.564 75.998C107.564 76.67 107.774 77.252 108.194 77.744C108.626 78.236 109.256 78.602 110.084 78.842L111.686 79.292C111.998 79.376 112.262 79.502 112.478 79.67C112.706 79.826 112.82 80.042 112.82 80.318C112.82 80.642 112.688 80.9 112.424 81.092C112.172 81.272 111.836 81.362 111.416 81.362C110.864 81.362 110.366 81.206 109.922 80.894C109.478 80.582 109.124 80.15 108.86 79.598L107.096 80.444C107.384 81.284 107.912 81.956 108.68 82.46C109.46 82.964 110.372 83.216 111.416 83.216ZM120.428 83.216C121.04 83.216 121.58 83.102 122.048 82.874C122.528 82.634 122.906 82.286 123.182 81.83V83H125.414V73.208H123.056V78.95C123.056 79.598 122.87 80.114 122.498 80.498C122.126 80.87 121.652 81.056 121.076 81.056C120.488 81.056 120.008 80.87 119.636 80.498C119.276 80.126 119.096 79.628 119.096 79.004V73.208H116.738V79.202C116.738 80.402 117.062 81.374 117.71 82.118C118.37 82.85 119.276 83.216 120.428 83.216ZM127.606 86.6H129.964V82.064C130.324 82.436 130.762 82.724 131.278 82.928C131.794 83.12 132.352 83.216 132.952 83.216C133.9 83.216 134.746 82.994 135.49 82.55C136.234 82.094 136.822 81.482 137.254 80.714C137.686 79.934 137.902 79.064 137.902 78.104C137.902 77.144 137.686 76.28 137.254 75.512C136.822 74.732 136.234 74.12 135.49 73.676C134.746 73.22 133.906 72.992 132.97 72.992C132.298 72.992 131.692 73.112 131.152 73.352C130.612 73.592 130.168 73.928 129.82 74.36V73.208H127.606V86.6ZM132.682 81.056C132.166 81.056 131.698 80.93 131.278 80.678C130.87 80.426 130.546 80.078 130.306 79.634C130.078 79.19 129.964 78.68 129.964 78.104C129.964 77.528 130.078 77.018 130.306 76.574C130.546 76.13 130.87 75.782 131.278 75.53C131.698 75.278 132.166 75.152 132.682 75.152C133.222 75.152 133.696 75.284 134.104 75.548C134.524 75.8 134.854 76.148 135.094 76.592C135.334 77.036 135.454 77.54 135.454 78.104C135.454 78.668 135.334 79.178 135.094 79.634C134.854 80.078 134.524 80.426 134.104 80.678C133.696 80.93 133.222 81.056 132.682 81.056ZM139.7 86.6H142.058V82.064C142.418 82.436 142.856 82.724 143.372 82.928C143.888 83.12 144.446 83.216 145.046 83.216C145.994 83.216 146.84 82.994 147.584 82.55C148.328 82.094 148.916 81.482 149.348 80.714C149.78 79.934 149.996 79.064 149.996 78.104C149.996 77.144 149.78 76.28 149.348 75.512C148.916 74.732 148.328 74.12 147.584 73.676C146.84 73.22 146 72.992 145.064 72.992C144.392 72.992 143.786 73.112 143.246 73.352C142.706 73.592 142.262 73.928 141.914 74.36V73.208H139.7V86.6ZM144.776 81.056C144.26 81.056 143.792 80.93 143.372 80.678C142.964 80.426 142.64 80.078 142.4 79.634C142.172 79.19 142.058 78.68 142.058 78.104C142.058 77.528 142.172 77.018 142.4 76.574C142.64 76.13 142.964 75.782 143.372 75.53C143.792 75.278 144.26 75.152 144.776 75.152C145.316 75.152 145.79 75.284 146.198 75.548C146.618 75.8 146.948 76.148 147.188 76.592C147.428 77.036 147.548 77.54 147.548 78.104C147.548 78.668 147.428 79.178 147.188 79.634C146.948 80.078 146.618 80.426 146.198 80.678C145.79 80.93 145.316 81.056 144.776 81.056ZM156.581 83.216C157.529 83.216 158.393 83 159.173 82.568C159.953 82.124 160.577 81.518 161.045 80.75C161.513 79.97 161.747 79.088 161.747 78.104C161.747 77.12 161.513 76.244 161.045 75.476C160.589 74.708 159.971 74.102 159.191 73.658C158.411 73.214 157.541 72.992 156.581 72.992C155.609 72.992 154.733 73.214 153.953 73.658C153.173 74.102 152.549 74.708 152.081 75.476C151.625 76.244 151.397 77.12 151.397 78.104C151.397 79.088 151.625 79.964 152.081 80.732C152.549 81.5 153.173 82.106 153.953 82.55C154.745 82.994 155.621 83.216 156.581 83.216ZM156.581 81.056C156.053 81.056 155.579 80.93 155.159 80.678C154.751 80.426 154.427 80.078 154.187 79.634C153.959 79.178 153.845 78.668 153.845 78.104C153.845 77.54 153.959 77.036 154.187 76.592C154.427 76.148 154.751 75.8 155.159 75.548C155.579 75.284 156.053 75.152 156.581 75.152C157.109 75.152 157.571 75.284 157.967 75.548C158.375 75.8 158.693 76.148 158.921 76.592C159.161 77.036 159.281 77.54 159.281 78.104C159.281 78.668 159.161 79.178 158.921 79.634C158.693 80.078 158.375 80.426 157.967 80.678C157.571 80.93 157.109 81.056 156.581 81.056ZM163.536 83H165.894V77.546C165.894 76.802 166.098 76.226 166.506 75.818C166.926 75.398 167.466 75.188 168.126 75.188H168.972V73.1H168.396C167.796 73.1 167.268 73.208 166.812 73.424C166.356 73.64 166.002 74.03 165.75 74.594V73.208H163.536V83ZM174.996 83.108C175.392 83.108 175.782 83.078 176.166 83.018V80.984C175.938 81.02 175.728 81.038 175.536 81.038C174.96 81.038 174.54 80.906 174.276 80.642C174.012 80.378 173.88 80 173.88 79.508V75.314H176.13V73.208H173.88V70.976H171.522V71.732C171.522 72.212 171.39 72.578 171.126 72.83C170.862 73.082 170.49 73.208 170.01 73.208H169.83V75.314H171.522V79.634C171.522 80.726 171.822 81.578 172.422 82.19C173.034 82.802 173.892 83.108 174.996 83.108Z" fill="#072125"/>
<defs>
<clipPath id="clip0_1376_475">
<rect width="24" height="24" fill="white" transform="translate(11 10)"/>
</clipPath>
</defs>
</svg>
