<svg width="243" height="147" viewBox="0 0 243 147" fill="none" xmlns="http://www.w3.org/2000/svg">
<path d="M1.408 118H2.688V106.08H1.408V118ZM6.20575 118H7.40575V110.624H9.50175V109.424H7.40575V108.656C7.40575 108.048 7.57642 107.621 7.91775 107.376C8.25908 107.131 8.68575 107.008 9.19775 107.008C9.25108 107.008 9.34175 107.013 9.46975 107.024C9.59775 107.024 9.69908 107.035 9.77375 107.056V105.968C9.68842 105.947 9.57642 105.931 9.43775 105.92C9.29908 105.899 9.17642 105.888 9.06975 105.888C8.56842 105.888 8.09908 105.995 7.66175 106.208C7.22442 106.421 6.87242 106.736 6.60575 107.152C6.33908 107.557 6.20575 108.059 6.20575 108.656V109.424H4.49375V110.624H6.20575V118ZM14.5018 121.52C15.0671 121.52 15.5471 121.403 15.9418 121.168C16.3364 120.944 16.6618 120.645 16.9178 120.272C17.1844 119.899 17.4031 119.504 17.5738 119.088L21.4938 109.408H20.1658L17.3658 116.496L14.5658 109.408H13.2698L16.6938 118L16.3898 118.736C16.1231 119.355 15.8511 119.771 15.5738 119.984C15.2964 120.208 14.8964 120.32 14.3738 120.32C14.2031 120.32 14.0324 120.304 13.8618 120.272C13.7018 120.251 13.5684 120.235 13.4618 120.224V121.344C13.6324 121.408 13.8031 121.451 13.9738 121.472C14.1551 121.504 14.3311 121.52 14.5018 121.52ZM26.7636 118.192C27.5636 118.192 28.289 118 28.9396 117.616C29.601 117.232 30.129 116.704 30.5236 116.032C30.9183 115.349 31.1156 114.571 31.1156 113.696C31.1156 112.832 30.9236 112.064 30.5396 111.392C30.1663 110.72 29.649 110.192 28.9876 109.808C28.337 109.424 27.5956 109.232 26.7636 109.232C25.9316 109.232 25.185 109.429 24.5236 109.824C23.873 110.208 23.3556 110.736 22.9716 111.408C22.5876 112.08 22.3956 112.843 22.3956 113.696C22.3956 114.56 22.5876 115.333 22.9716 116.016C23.3663 116.688 23.8943 117.221 24.5556 117.616C25.217 118 25.953 118.192 26.7636 118.192ZM26.7636 116.992C26.1876 116.992 25.665 116.848 25.1956 116.56C24.737 116.272 24.369 115.877 24.0916 115.376C23.8143 114.875 23.6756 114.315 23.6756 113.696C23.6756 113.077 23.8143 112.523 24.0916 112.032C24.369 111.541 24.737 111.152 25.1956 110.864C25.665 110.576 26.1876 110.432 26.7636 110.432C27.3396 110.432 27.857 110.576 28.3156 110.864C28.785 111.152 29.153 111.541 29.4196 112.032C29.697 112.523 29.8356 113.077 29.8356 113.696C29.8356 114.315 29.697 114.875 29.4196 115.376C29.153 115.877 28.785 116.272 28.3156 116.56C27.857 116.848 27.3396 116.992 26.7636 116.992ZM36.272 118.192C36.8053 118.192 37.2853 118.08 37.712 117.856C38.1387 117.632 38.48 117.328 38.736 116.944V118H39.936V109.424H38.736V114.528C38.736 115.296 38.5227 115.899 38.096 116.336C37.68 116.773 37.1413 116.992 36.48 116.992C35.8293 116.992 35.296 116.784 34.88 116.368C34.464 115.941 34.256 115.381 34.256 114.688V109.424H33.056V114.832C33.056 115.493 33.1947 116.08 33.472 116.592C33.76 117.093 34.1493 117.488 34.64 117.776C35.1307 118.053 35.6747 118.192 36.272 118.192ZM46.0026 118H47.2026V110.624H49.2986V109.424H47.2026V108.656C47.2026 108.048 47.3733 107.621 47.7146 107.376C48.056 107.131 48.4826 107.008 48.9946 107.008C49.048 107.008 49.1386 107.013 49.2666 107.024C49.3946 107.024 49.496 107.035 49.5706 107.056V105.968C49.4853 105.947 49.3733 105.931 49.2346 105.92C49.096 105.899 48.9733 105.888 48.8666 105.888C48.3653 105.888 47.896 105.995 47.4586 106.208C47.0213 106.421 46.6693 106.736 46.4026 107.152C46.136 107.557 46.0026 108.059 46.0026 108.656V109.424H44.2906V110.624H46.0026V118ZM54.8235 118.192C55.4102 118.192 55.9435 118.096 56.4235 117.904C56.9142 117.701 57.3355 117.44 57.6875 117.12C58.0395 116.789 58.3008 116.432 58.4715 116.048L57.4475 115.504C57.1808 115.952 56.8342 116.325 56.4075 116.624C55.9808 116.923 55.4528 117.072 54.8235 117.072C54.3115 117.072 53.8315 116.949 53.3835 116.704C52.9355 116.459 52.5675 116.117 52.2795 115.68C52.0022 115.232 51.8528 114.699 51.8315 114.08H58.5835C58.6048 113.941 58.6208 113.808 58.6315 113.68C58.6422 113.541 58.6475 113.419 58.6475 113.312C58.6475 112.8 58.5568 112.304 58.3755 111.824C58.1942 111.333 57.9328 110.896 57.5915 110.512C57.2502 110.117 56.8342 109.808 56.3435 109.584C55.8635 109.349 55.3142 109.232 54.6955 109.232C53.9168 109.232 53.2128 109.424 52.5835 109.808C51.9648 110.192 51.4742 110.72 51.1115 111.392C50.7488 112.053 50.5675 112.816 50.5675 113.68C50.5675 114.544 50.7542 115.317 51.1275 116C51.5008 116.683 52.0075 117.221 52.6475 117.616C53.2982 118 54.0235 118.192 54.8235 118.192ZM54.6955 110.352C55.1755 110.352 55.6128 110.464 56.0075 110.688C56.4128 110.912 56.7328 111.221 56.9675 111.616C57.2128 112 57.3408 112.448 57.3515 112.96H51.8635C51.9275 112.427 52.0928 111.968 52.3595 111.584C52.6368 111.189 52.9782 110.885 53.3835 110.672C53.7888 110.459 54.2262 110.352 54.6955 110.352ZM64.6673 118.192C65.2539 118.192 65.7873 118.096 66.2673 117.904C66.7579 117.701 67.1793 117.44 67.5312 117.12C67.8833 116.789 68.1446 116.432 68.3153 116.048L67.2913 115.504C67.0246 115.952 66.6779 116.325 66.2513 116.624C65.8246 116.923 65.2966 117.072 64.6673 117.072C64.1553 117.072 63.6753 116.949 63.2273 116.704C62.7793 116.459 62.4113 116.117 62.1233 115.68C61.8459 115.232 61.6966 114.699 61.6753 114.08H68.4273C68.4486 113.941 68.4646 113.808 68.4753 113.68C68.4859 113.541 68.4913 113.419 68.4913 113.312C68.4913 112.8 68.4006 112.304 68.2193 111.824C68.0379 111.333 67.7766 110.896 67.4353 110.512C67.0939 110.117 66.6779 109.808 66.1873 109.584C65.7073 109.349 65.1579 109.232 64.5393 109.232C63.7606 109.232 63.0566 109.424 62.4273 109.808C61.8086 110.192 61.3179 110.72 60.9553 111.392C60.5926 112.053 60.4113 112.816 60.4113 113.68C60.4113 114.544 60.5979 115.317 60.9713 116C61.3446 116.683 61.8513 117.221 62.4913 117.616C63.1419 118 63.8673 118.192 64.6673 118.192ZM64.5393 110.352C65.0193 110.352 65.4566 110.464 65.8513 110.688C66.2566 110.912 66.5766 111.221 66.8113 111.616C67.0566 112 67.1846 112.448 67.1953 112.96H61.7073C61.7713 112.427 61.9366 111.968 62.2033 111.584C62.4806 111.189 62.8219 110.885 63.2273 110.672C63.6326 110.459 64.0699 110.352 64.5393 110.352ZM70.607 118H71.807V106.08H70.607V118ZM80.854 118.192C81.5153 118.192 82.1233 118.053 82.678 117.776C83.2327 117.499 83.67 117.109 83.99 116.608V118H85.19V106.08H83.99V110.72C83.638 110.261 83.1953 109.899 82.662 109.632C82.1287 109.365 81.526 109.232 80.854 109.232C80.0433 109.232 79.318 109.429 78.678 109.824C78.0487 110.208 77.5473 110.736 77.174 111.408C76.8113 112.08 76.63 112.848 76.63 113.712C76.63 114.565 76.8113 115.333 77.174 116.016C77.5473 116.688 78.054 117.221 78.694 117.616C79.334 118 80.054 118.192 80.854 118.192ZM80.918 116.992C80.342 116.992 79.8247 116.848 79.366 116.56C78.918 116.272 78.5607 115.883 78.294 115.392C78.038 114.891 77.91 114.331 77.91 113.712C77.91 113.083 78.038 112.523 78.294 112.032C78.5607 111.541 78.9233 111.152 79.382 110.864C79.8407 110.576 80.3527 110.432 80.918 110.432C81.494 110.432 82.0113 110.576 82.47 110.864C82.9393 111.152 83.3073 111.547 83.574 112.048C83.8513 112.539 83.99 113.093 83.99 113.712C83.99 114.331 83.8513 114.891 83.574 115.392C83.3073 115.883 82.9393 116.272 82.47 116.56C82.0113 116.848 81.494 116.992 80.918 116.992ZM91.6699 118.192C92.4699 118.192 93.1952 118 93.8459 117.616C94.5072 117.232 95.0352 116.704 95.4299 116.032C95.8245 115.349 96.0219 114.571 96.0219 113.696C96.0219 112.832 95.8299 112.064 95.4459 111.392C95.0725 110.72 94.5552 110.192 93.8939 109.808C93.2432 109.424 92.5019 109.232 91.6699 109.232C90.8379 109.232 90.0912 109.429 89.4299 109.824C88.7792 110.208 88.2619 110.736 87.8779 111.408C87.4939 112.08 87.3019 112.843 87.3019 113.696C87.3019 114.56 87.4939 115.333 87.8779 116.016C88.2725 116.688 88.8005 117.221 89.4619 117.616C90.1232 118 90.8592 118.192 91.6699 118.192ZM91.6699 116.992C91.0939 116.992 90.5712 116.848 90.1019 116.56C89.6432 116.272 89.2752 115.877 88.9979 115.376C88.7205 114.875 88.5819 114.315 88.5819 113.696C88.5819 113.077 88.7205 112.523 88.9979 112.032C89.2752 111.541 89.6432 111.152 90.1019 110.864C90.5712 110.576 91.0939 110.432 91.6699 110.432C92.2459 110.432 92.7632 110.576 93.2219 110.864C93.6912 111.152 94.0592 111.541 94.3259 112.032C94.6032 112.523 94.7419 113.077 94.7419 113.696C94.7419 114.315 94.6032 114.875 94.3259 115.376C94.0592 115.877 93.6912 116.272 93.2219 116.56C92.7632 116.848 92.2459 116.992 91.6699 116.992ZM99.87 118H101.07L103.134 111.216L105.182 118H106.382L109.326 109.424H107.982L105.79 116.16L103.726 109.424H102.526L100.478 116.16L98.286 109.424H96.926L99.87 118ZM110.732 118H111.932V112.896C111.932 112.128 112.145 111.525 112.572 111.088C112.999 110.651 113.537 110.432 114.188 110.432C114.849 110.432 115.383 110.651 115.788 111.088C116.204 111.515 116.412 112.117 116.412 112.896V118H117.612V112.432C117.612 111.824 117.468 111.28 117.18 110.8C116.903 110.309 116.519 109.925 116.028 109.648C115.548 109.371 115.004 109.232 114.396 109.232C113.863 109.232 113.383 109.344 112.956 109.568C112.529 109.792 112.188 110.096 111.932 110.48V109.424H110.732V118ZM122.799 121.52C123.364 121.52 123.844 121.403 124.239 121.168C124.633 120.944 124.959 120.645 125.215 120.272C125.481 119.899 125.7 119.504 125.871 119.088L129.791 109.408H128.463L125.663 116.496L122.863 109.408H121.567L124.991 118L124.687 118.736C124.42 119.355 124.148 119.771 123.871 119.984C123.593 120.208 123.193 120.32 122.671 120.32C122.5 120.32 122.329 120.304 122.159 120.272C121.999 120.251 121.865 120.235 121.759 120.224V121.344C121.929 121.408 122.1 121.451 122.271 121.472C122.452 121.504 122.628 121.52 122.799 121.52ZM135.061 118.192C135.861 118.192 136.586 118 137.237 117.616C137.898 117.232 138.426 116.704 138.821 116.032C139.215 115.349 139.413 114.571 139.413 113.696C139.413 112.832 139.221 112.064 138.837 111.392C138.463 110.72 137.946 110.192 137.285 109.808C136.634 109.424 135.893 109.232 135.061 109.232C134.229 109.232 133.482 109.429 132.821 109.824C132.17 110.208 131.653 110.736 131.269 111.408C130.885 112.08 130.693 112.843 130.693 113.696C130.693 114.56 130.885 115.333 131.269 116.016C131.663 116.688 132.191 117.221 132.853 117.616C133.514 118 134.25 118.192 135.061 118.192ZM135.061 116.992C134.485 116.992 133.962 116.848 133.493 116.56C133.034 116.272 132.666 115.877 132.389 115.376C132.111 114.875 131.973 114.315 131.973 113.696C131.973 113.077 132.111 112.523 132.389 112.032C132.666 111.541 133.034 111.152 133.493 110.864C133.962 110.576 134.485 110.432 135.061 110.432C135.637 110.432 136.154 110.576 136.613 110.864C137.082 111.152 137.45 111.541 137.717 112.032C137.994 112.523 138.133 113.077 138.133 113.696C138.133 114.315 137.994 114.875 137.717 115.376C137.45 115.877 137.082 116.272 136.613 116.56C136.154 116.848 135.637 116.992 135.061 116.992ZM144.569 118.192C145.102 118.192 145.582 118.08 146.009 117.856C146.436 117.632 146.777 117.328 147.033 116.944V118H148.233V109.424H147.033V114.528C147.033 115.296 146.82 115.899 146.393 116.336C145.977 116.773 145.438 116.992 144.777 116.992C144.126 116.992 143.593 116.784 143.177 116.368C142.761 115.941 142.553 115.381 142.553 114.688V109.424H141.353V114.832C141.353 115.493 141.492 116.08 141.769 116.592C142.057 117.093 142.446 117.488 142.937 117.776C143.428 118.053 143.972 118.192 144.569 118.192ZM157.34 118.192C157.873 118.192 158.374 118.096 158.844 117.904C159.313 117.712 159.729 117.451 160.092 117.12C160.454 116.789 160.726 116.416 160.908 116L159.82 115.408C159.596 115.888 159.265 116.272 158.828 116.56C158.401 116.848 157.905 116.992 157.34 116.992C156.774 116.992 156.262 116.848 155.804 116.56C155.356 116.272 154.998 115.883 154.732 115.392C154.476 114.891 154.348 114.331 154.348 113.712C154.348 113.083 154.476 112.523 154.732 112.032C154.998 111.531 155.356 111.141 155.804 110.864C156.262 110.576 156.774 110.432 157.34 110.432C157.905 110.432 158.406 110.576 158.844 110.864C159.281 111.152 159.606 111.525 159.82 111.984L160.908 111.424C160.726 110.997 160.454 110.624 160.092 110.304C159.729 109.973 159.313 109.712 158.844 109.52C158.374 109.328 157.873 109.232 157.34 109.232C156.497 109.232 155.756 109.429 155.116 109.824C154.476 110.208 153.974 110.736 153.612 111.408C153.249 112.08 153.068 112.843 153.068 113.696C153.068 114.549 153.249 115.317 153.612 116C153.974 116.672 154.476 117.205 155.116 117.6C155.756 117.995 156.497 118.192 157.34 118.192ZM165.337 118.192C165.998 118.192 166.596 118.059 167.129 117.792C167.662 117.525 168.068 117.184 168.345 116.768V118H169.545V112.112C169.545 111.547 169.406 111.051 169.129 110.624C168.862 110.187 168.484 109.845 167.993 109.6C167.513 109.355 166.958 109.232 166.329 109.232C165.849 109.232 165.385 109.323 164.937 109.504C164.489 109.675 164.089 109.909 163.737 110.208C163.396 110.507 163.145 110.837 162.985 111.2L164.073 111.792C164.265 111.376 164.558 111.04 164.953 110.784C165.348 110.517 165.806 110.384 166.329 110.384C166.926 110.384 167.412 110.544 167.785 110.864C168.158 111.184 168.345 111.6 168.345 112.112V112.56L165.241 113.072C164.292 113.232 163.598 113.557 163.161 114.048C162.724 114.539 162.505 115.115 162.505 115.776C162.505 116.245 162.628 116.661 162.873 117.024C163.118 117.387 163.454 117.675 163.881 117.888C164.308 118.091 164.793 118.192 165.337 118.192ZM163.785 115.728C163.785 115.333 163.918 114.992 164.185 114.704C164.462 114.416 164.91 114.219 165.529 114.112L168.345 113.648V114.288C168.345 114.811 168.222 115.285 167.977 115.712C167.732 116.139 167.39 116.48 166.953 116.736C166.516 116.981 166.004 117.104 165.417 117.104C164.937 117.104 164.542 116.971 164.233 116.704C163.934 116.437 163.785 116.112 163.785 115.728ZM172.013 118H173.213V112.896C173.213 112.128 173.427 111.525 173.853 111.088C174.28 110.651 174.819 110.432 175.469 110.432C176.131 110.432 176.664 110.651 177.069 111.088C177.485 111.515 177.693 112.117 177.693 112.896V118H178.893V112.432C178.893 111.824 178.749 111.28 178.461 110.8C178.184 110.309 177.8 109.925 177.309 109.648C176.829 109.371 176.285 109.232 175.677 109.232C175.144 109.232 174.664 109.344 174.237 109.568C173.811 109.792 173.469 110.096 173.213 110.48V109.424H172.013V118ZM183.904 118H185.104V106.08H183.904V118ZM187.56 107.84H188.76V106.08H187.56V107.84ZM187.56 118H188.76V109.424H187.56V118ZM194.192 118.192C194.79 118.192 195.318 118.091 195.776 117.888C196.235 117.675 196.592 117.381 196.848 117.008C197.115 116.635 197.248 116.213 197.248 115.744C197.248 115.168 197.051 114.667 196.656 114.24C196.272 113.813 195.734 113.499 195.04 113.296L193.616 112.88C193.467 112.837 193.291 112.773 193.088 112.688C192.896 112.603 192.726 112.475 192.576 112.304C192.427 112.133 192.352 111.904 192.352 111.616C192.352 111.243 192.496 110.933 192.784 110.688C193.072 110.443 193.456 110.32 193.936 110.32C194.427 110.32 194.87 110.459 195.264 110.736C195.67 111.003 195.979 111.376 196.192 111.856L197.216 111.376C196.971 110.704 196.55 110.181 195.952 109.808C195.366 109.424 194.71 109.232 193.984 109.232C193.451 109.232 192.966 109.333 192.528 109.536C192.091 109.739 191.744 110.027 191.488 110.4C191.232 110.773 191.104 111.211 191.104 111.712C191.104 112.245 191.28 112.715 191.632 113.12C191.984 113.525 192.555 113.84 193.344 114.064L194.576 114.416C194.747 114.459 194.944 114.528 195.168 114.624C195.392 114.72 195.59 114.859 195.76 115.04C195.931 115.211 196.016 115.445 196.016 115.744C196.016 116.149 195.84 116.48 195.488 116.736C195.136 116.981 194.704 117.104 194.192 117.104C193.659 117.104 193.168 116.949 192.72 116.64C192.283 116.331 191.942 115.915 191.696 115.392L190.688 115.872C190.966 116.587 191.414 117.152 192.032 117.568C192.651 117.984 193.371 118.192 194.192 118.192ZM202.637 118.096C202.733 118.096 202.861 118.091 203.021 118.08C203.181 118.069 203.325 118.048 203.453 118.016V116.928C203.368 116.939 203.266 116.949 203.149 116.96C203.032 116.971 202.93 116.976 202.845 116.976C202.312 116.976 201.944 116.837 201.741 116.56C201.538 116.283 201.437 115.931 201.437 115.504V110.624H203.325V109.424H201.437V107.44H200.237V108.16C200.237 108.523 200.13 108.827 199.917 109.072C199.704 109.307 199.416 109.424 199.053 109.424H198.653V110.624H200.237V115.504C200.237 116.336 200.445 116.976 200.861 117.424C201.277 117.872 201.869 118.096 202.637 118.096ZM209.152 118.192C209.738 118.192 210.272 118.096 210.752 117.904C211.242 117.701 211.664 117.44 212.016 117.12C212.368 116.789 212.629 116.432 212.8 116.048L211.776 115.504C211.509 115.952 211.162 116.325 210.736 116.624C210.309 116.923 209.781 117.072 209.152 117.072C208.64 117.072 208.16 116.949 207.712 116.704C207.264 116.459 206.896 116.117 206.608 115.68C206.33 115.232 206.181 114.699 206.16 114.08H212.912C212.933 113.941 212.949 113.808 212.96 113.68C212.97 113.541 212.976 113.419 212.976 113.312C212.976 112.8 212.885 112.304 212.704 111.824C212.522 111.333 212.261 110.896 211.92 110.512C211.578 110.117 211.162 109.808 210.672 109.584C210.192 109.349 209.642 109.232 209.024 109.232C208.245 109.232 207.541 109.424 206.912 109.808C206.293 110.192 205.802 110.72 205.44 111.392C205.077 112.053 204.896 112.816 204.896 113.68C204.896 114.544 205.082 115.317 205.456 116C205.829 116.683 206.336 117.221 206.976 117.616C207.626 118 208.352 118.192 209.152 118.192ZM209.024 110.352C209.504 110.352 209.941 110.464 210.336 110.688C210.741 110.912 211.061 111.221 211.296 111.616C211.541 112 211.669 112.448 211.68 112.96H206.192C206.256 112.427 206.421 111.968 206.688 111.584C206.965 111.189 207.306 110.885 207.712 110.672C208.117 110.459 208.554 110.352 209.024 110.352ZM215.091 118H216.291V112.896C216.291 112.128 216.505 111.525 216.931 111.088C217.358 110.651 217.897 110.432 218.547 110.432C219.209 110.432 219.742 110.651 220.147 111.088C220.563 111.515 220.771 112.117 220.771 112.896V118H221.971V112.432C221.971 111.824 221.827 111.28 221.539 110.8C221.262 110.309 220.878 109.925 220.387 109.648C219.907 109.371 219.363 109.232 218.755 109.232C218.222 109.232 217.742 109.344 217.315 109.568C216.889 109.792 216.547 110.096 216.291 110.48V109.424H215.091V118ZM230.262 118.096C230.358 118.096 230.486 118.091 230.646 118.08C230.806 118.069 230.95 118.048 231.078 118.016V116.928C230.993 116.939 230.891 116.949 230.774 116.96C230.657 116.971 230.555 116.976 230.47 116.976C229.937 116.976 229.569 116.837 229.366 116.56C229.163 116.283 229.062 115.931 229.062 115.504V110.624H230.95V109.424H229.062V107.44H227.862V108.16C227.862 108.523 227.755 108.827 227.542 109.072C227.329 109.307 227.041 109.424 226.678 109.424H226.278V110.624H227.862V115.504C227.862 116.336 228.07 116.976 228.486 117.424C228.902 117.872 229.494 118.096 230.262 118.096ZM236.889 118.192C237.689 118.192 238.414 118 239.065 117.616C239.726 117.232 240.254 116.704 240.649 116.032C241.043 115.349 241.241 114.571 241.241 113.696C241.241 112.832 241.049 112.064 240.665 111.392C240.291 110.72 239.774 110.192 239.113 109.808C238.462 109.424 237.721 109.232 236.889 109.232C236.057 109.232 235.31 109.429 234.649 109.824C233.998 110.208 233.481 110.736 233.097 111.408C232.713 112.08 232.521 112.843 232.521 113.696C232.521 114.56 232.713 115.333 233.097 116.016C233.491 116.688 234.019 117.221 234.681 117.616C235.342 118 236.078 118.192 236.889 118.192ZM236.889 116.992C236.313 116.992 235.79 116.848 235.321 116.56C234.862 116.272 234.494 115.877 234.217 115.376C233.939 114.875 233.801 114.315 233.801 113.696C233.801 113.077 233.939 112.523 234.217 112.032C234.494 111.541 234.862 111.152 235.321 110.864C235.79 110.576 236.313 110.432 236.889 110.432C237.465 110.432 237.982 110.576 238.441 110.864C238.91 111.152 239.278 111.541 239.545 112.032C239.822 112.523 239.961 113.077 239.961 113.696C239.961 114.315 239.822 114.875 239.545 115.376C239.278 115.877 238.91 116.272 238.441 116.56C237.982 116.848 237.465 116.992 236.889 116.992ZM4.512 142.096C4.608 142.096 4.736 142.091 4.896 142.08C5.056 142.069 5.2 142.048 5.328 142.016V140.928C5.24267 140.939 5.14133 140.949 5.024 140.96C4.90667 140.971 4.80533 140.976 4.72 140.976C4.18667 140.976 3.81867 140.837 3.616 140.56C3.41333 140.283 3.312 139.931 3.312 139.504V134.624H5.2V133.424H3.312V131.44H2.112V132.16C2.112 132.523 2.00533 132.827 1.792 133.072C1.57867 133.307 1.29067 133.424 0.928 133.424H0.528V134.624H2.112V139.504C2.112 140.336 2.32 140.976 2.736 141.424C3.152 141.872 3.744 142.096 4.512 142.096ZM7.43513 142H8.63513V136.896C8.63513 136.128 8.84846 135.525 9.27513 135.088C9.71246 134.651 10.2511 134.432 10.8911 134.432C11.5311 134.432 12.0591 134.651 12.4751 135.088C12.9018 135.515 13.1151 136.117 13.1151 136.896V142H14.3151V136.432C14.3151 135.824 14.1711 135.28 13.8831 134.8C13.6058 134.309 13.2218 133.925 12.7311 133.648C12.2511 133.371 11.7071 133.232 11.0991 133.232C10.5658 133.232 10.0858 133.344 9.65913 133.568C9.23246 133.792 8.89113 134.096 8.63513 134.48V130.08H7.43513V142ZM20.511 142.192C21.0977 142.192 21.631 142.096 22.111 141.904C22.6017 141.701 23.023 141.44 23.375 141.12C23.727 140.789 23.9883 140.432 24.159 140.048L23.135 139.504C22.8683 139.952 22.5217 140.325 22.095 140.624C21.6683 140.923 21.1403 141.072 20.511 141.072C19.999 141.072 19.519 140.949 19.071 140.704C18.623 140.459 18.255 140.117 17.967 139.68C17.6897 139.232 17.5403 138.699 17.519 138.08H24.271C24.2923 137.941 24.3083 137.808 24.319 137.68C24.3297 137.541 24.335 137.419 24.335 137.312C24.335 136.8 24.2443 136.304 24.063 135.824C23.8817 135.333 23.6203 134.896 23.279 134.512C22.9377 134.117 22.5217 133.808 22.031 133.584C21.551 133.349 21.0017 133.232 20.383 133.232C19.6043 133.232 18.9003 133.424 18.271 133.808C17.6523 134.192 17.1617 134.72 16.799 135.392C16.4363 136.053 16.255 136.816 16.255 137.68C16.255 138.544 16.4417 139.317 16.815 140C17.1883 140.683 17.695 141.221 18.335 141.616C18.9857 142 19.711 142.192 20.511 142.192ZM20.383 134.352C20.863 134.352 21.3003 134.464 21.695 134.688C22.1003 134.912 22.4203 135.221 22.655 135.616C22.9003 136 23.0283 136.448 23.039 136.96H17.551C17.615 136.427 17.7803 135.968 18.047 135.584C18.3243 135.189 18.6657 134.885 19.071 134.672C19.4763 134.459 19.9137 134.352 20.383 134.352ZM29.3455 142H30.6255V130.08H29.3455V142ZM37.1353 142.192C37.7966 142.192 38.4046 142.053 38.9593 141.776C39.5139 141.499 39.9513 141.109 40.2713 140.608V142H41.4713V130.08H40.2713V134.72C39.9193 134.261 39.4766 133.899 38.9433 133.632C38.4099 133.365 37.8073 133.232 37.1353 133.232C36.3246 133.232 35.5993 133.429 34.9593 133.824C34.3299 134.208 33.8286 134.736 33.4553 135.408C33.0926 136.08 32.9113 136.848 32.9113 137.712C32.9113 138.565 33.0926 139.333 33.4553 140.016C33.8286 140.688 34.3353 141.221 34.9753 141.616C35.6153 142 36.3353 142.192 37.1353 142.192ZM37.1993 140.992C36.6233 140.992 36.1059 140.848 35.6473 140.56C35.1993 140.272 34.8419 139.883 34.5753 139.392C34.3193 138.891 34.1913 138.331 34.1913 137.712C34.1913 137.083 34.3193 136.523 34.5753 136.032C34.8419 135.541 35.2046 135.152 35.6633 134.864C36.1219 134.576 36.6339 134.432 37.1993 134.432C37.7753 134.432 38.2926 134.576 38.7513 134.864C39.2206 135.152 39.5886 135.547 39.8553 136.048C40.1326 136.539 40.2713 137.093 40.2713 137.712C40.2713 138.331 40.1326 138.891 39.8553 139.392C39.5886 139.883 39.2206 140.272 38.7513 140.56C38.2926 140.848 37.7753 140.992 37.1993 140.992ZM43.9351 142H45.1351V130.08H43.9351V142ZM51.4954 142.192C52.082 142.192 52.6154 142.096 53.0954 141.904C53.586 141.701 54.0074 141.44 54.3594 141.12C54.7114 140.789 54.9727 140.432 55.1434 140.048L54.1194 139.504C53.8527 139.952 53.506 140.325 53.0794 140.624C52.6527 140.923 52.1247 141.072 51.4954 141.072C50.9834 141.072 50.5034 140.949 50.0554 140.704C49.6074 140.459 49.2394 140.117 48.9514 139.68C48.674 139.232 48.5247 138.699 48.5034 138.08H55.2554C55.2767 137.941 55.2927 137.808 55.3034 137.68C55.314 137.541 55.3194 137.419 55.3194 137.312C55.3194 136.8 55.2287 136.304 55.0474 135.824C54.866 135.333 54.6047 134.896 54.2634 134.512C53.922 134.117 53.506 133.808 53.0154 133.584C52.5354 133.349 51.986 133.232 51.3674 133.232C50.5887 133.232 49.8847 133.424 49.2554 133.808C48.6367 134.192 48.146 134.72 47.7834 135.392C47.4207 136.053 47.2394 136.816 47.2394 137.68C47.2394 138.544 47.426 139.317 47.7994 140C48.1727 140.683 48.6794 141.221 49.3194 141.616C49.97 142 50.6954 142.192 51.4954 142.192ZM51.3674 134.352C51.8474 134.352 52.2847 134.464 52.6794 134.688C53.0847 134.912 53.4047 135.221 53.6394 135.616C53.8847 136 54.0127 136.448 54.0234 136.96H48.5354C48.5994 136.427 48.7647 135.968 49.0314 135.584C49.3087 135.189 49.65 134.885 50.0554 134.672C50.4607 134.459 50.898 134.352 51.3674 134.352ZM60.4111 142.192C61.0085 142.192 61.5365 142.091 61.9951 141.888C62.4538 141.675 62.8111 141.381 63.0671 141.008C63.3338 140.635 63.4671 140.213 63.4671 139.744C63.4671 139.168 63.2698 138.667 62.8751 138.24C62.4911 137.813 61.9525 137.499 61.2591 137.296L59.8351 136.88C59.6858 136.837 59.5098 136.773 59.3071 136.688C59.1151 136.603 58.9445 136.475 58.7951 136.304C58.6458 136.133 58.5711 135.904 58.5711 135.616C58.5711 135.243 58.7151 134.933 59.0031 134.688C59.2911 134.443 59.6751 134.32 60.1551 134.32C60.6458 134.32 61.0885 134.459 61.4831 134.736C61.8885 135.003 62.1978 135.376 62.4111 135.856L63.4351 135.376C63.1898 134.704 62.7685 134.181 62.1711 133.808C61.5845 133.424 60.9285 133.232 60.2031 133.232C59.6698 133.232 59.1845 133.333 58.7471 133.536C58.3098 133.739 57.9631 134.027 57.7071 134.4C57.4511 134.773 57.3231 135.211 57.3231 135.712C57.3231 136.245 57.4991 136.715 57.8511 137.12C58.2031 137.525 58.7738 137.84 59.5631 138.064L60.7951 138.416C60.9658 138.459 61.1631 138.528 61.3871 138.624C61.6111 138.72 61.8085 138.859 61.9791 139.04C62.1498 139.211 62.2351 139.445 62.2351 139.744C62.2351 140.149 62.0591 140.48 61.7071 140.736C61.3551 140.981 60.9231 141.104 60.4111 141.104C59.8778 141.104 59.3871 140.949 58.9391 140.64C58.5018 140.331 58.1605 139.915 57.9151 139.392L56.9071 139.872C57.1845 140.587 57.6325 141.152 58.2511 141.568C58.8698 141.984 59.5898 142.192 60.4111 142.192ZM70.1825 142H71.3825L73.4465 135.216L75.4945 142H76.6945L79.6385 133.424H78.2945L76.1025 140.16L74.0385 133.424H72.8385L70.7905 140.16L68.5985 133.424H67.2385L70.1825 142ZM81.0445 131.84H82.2445V130.08H81.0445V131.84ZM81.0445 142H82.2445V133.424H81.0445V142ZM87.9808 142.096C88.0768 142.096 88.2048 142.091 88.3648 142.08C88.5248 142.069 88.6688 142.048 88.7968 142.016V140.928C88.7114 140.939 88.6101 140.949 88.4928 140.96C88.3754 140.971 88.2741 140.976 88.1888 140.976C87.6554 140.976 87.2874 140.837 87.0848 140.56C86.8821 140.283 86.7808 139.931 86.7808 139.504V134.624H88.6688V133.424H86.7808V131.44H85.5807V132.16C85.5807 132.523 85.4741 132.827 85.2608 133.072C85.0474 133.307 84.7594 133.424 84.3968 133.424H83.9967V134.624H85.5807V139.504C85.5807 140.336 85.7888 140.976 86.2048 141.424C86.6208 141.872 87.2128 142.096 87.9808 142.096ZM90.9039 142H92.1039V136.896C92.1039 136.128 92.3172 135.525 92.7439 135.088C93.1812 134.651 93.7199 134.432 94.3599 134.432C94.9999 134.432 95.5279 134.651 95.9439 135.088C96.3705 135.515 96.5839 136.117 96.5839 136.896V142H97.7839V136.432C97.7839 135.824 97.6399 135.28 97.3519 134.8C97.0745 134.309 96.6905 133.925 96.1999 133.648C95.7199 133.371 95.1759 133.232 94.5679 133.232C94.0345 133.232 93.5545 133.344 93.1279 133.568C92.7012 133.792 92.3599 134.096 92.1039 134.48V130.08H90.9039V142ZM105.275 142.192C105.936 142.192 106.533 142.059 107.067 141.792C107.6 141.525 108.005 141.184 108.283 140.768V142H109.483V136.112C109.483 135.547 109.344 135.051 109.067 134.624C108.8 134.187 108.421 133.845 107.931 133.6C107.451 133.355 106.896 133.232 106.266 133.232C105.787 133.232 105.323 133.323 104.875 133.504C104.427 133.675 104.027 133.909 103.674 134.208C103.333 134.507 103.083 134.837 102.923 135.2L104.011 135.792C104.203 135.376 104.496 135.04 104.891 134.784C105.285 134.517 105.744 134.384 106.266 134.384C106.864 134.384 107.349 134.544 107.723 134.864C108.096 135.184 108.283 135.6 108.283 136.112V136.56L105.179 137.072C104.229 137.232 103.536 137.557 103.099 138.048C102.661 138.539 102.443 139.115 102.443 139.776C102.443 140.245 102.565 140.661 102.811 141.024C103.056 141.387 103.392 141.675 103.819 141.888C104.245 142.091 104.731 142.192 105.275 142.192ZM103.723 139.728C103.723 139.333 103.856 138.992 104.123 138.704C104.4 138.416 104.848 138.219 105.467 138.112L108.283 137.648V138.288C108.283 138.811 108.16 139.285 107.915 139.712C107.669 140.139 107.328 140.48 106.891 140.736C106.453 140.981 105.941 141.104 105.355 141.104C104.875 141.104 104.48 140.971 104.171 140.704C103.872 140.437 103.723 140.112 103.723 139.728ZM115.549 142H116.75V134.624H118.846V133.424H116.75V132.656C116.75 132.048 116.92 131.621 117.262 131.376C117.603 131.131 118.03 131.008 118.542 131.008C118.595 131.008 118.686 131.013 118.814 131.024C118.942 131.024 119.043 131.035 119.118 131.056V129.968C119.032 129.947 118.92 129.931 118.782 129.92C118.643 129.899 118.52 129.888 118.414 129.888C117.912 129.888 117.443 129.995 117.006 130.208C116.568 130.421 116.216 130.736 115.95 131.152C115.683 131.557 115.549 132.059 115.549 132.656V133.424H113.838V134.624H115.549V142ZM120.795 142H121.995V136.72C121.995 136.016 122.181 135.472 122.555 135.088C122.928 134.704 123.424 134.512 124.043 134.512H124.795V133.312H124.251C123.728 133.312 123.275 133.403 122.891 133.584C122.517 133.765 122.219 134.021 121.995 134.352V133.424H120.795V142ZM126.201 131.84H127.401V130.08H126.201V131.84ZM126.201 142H127.401V133.424H126.201V142ZM133.761 142.192C134.348 142.192 134.881 142.096 135.361 141.904C135.852 141.701 136.273 141.44 136.625 141.12C136.977 140.789 137.238 140.432 137.409 140.048L136.385 139.504C136.118 139.952 135.772 140.325 135.345 140.624C134.918 140.923 134.39 141.072 133.761 141.072C133.249 141.072 132.769 140.949 132.321 140.704C131.873 140.459 131.505 140.117 131.217 139.68C130.94 139.232 130.79 138.699 130.769 138.08H137.521C137.542 137.941 137.558 137.808 137.569 137.68C137.58 137.541 137.585 137.419 137.585 137.312C137.585 136.8 137.494 136.304 137.313 135.824C137.132 135.333 136.87 134.896 136.529 134.512C136.188 134.117 135.772 133.808 135.281 133.584C134.801 133.349 134.252 133.232 133.633 133.232C132.854 133.232 132.15 133.424 131.521 133.808C130.902 134.192 130.412 134.72 130.049 135.392C129.686 136.053 129.505 136.816 129.505 137.68C129.505 138.544 129.692 139.317 130.065 140C130.438 140.683 130.945 141.221 131.585 141.616C132.236 142 132.961 142.192 133.761 142.192ZM133.633 134.352C134.113 134.352 134.55 134.464 134.945 134.688C135.35 134.912 135.67 135.221 135.905 135.616C136.15 136 136.278 136.448 136.289 136.96H130.801C130.865 136.427 131.03 135.968 131.297 135.584C131.574 135.189 131.916 134.885 132.321 134.672C132.726 134.459 133.164 134.352 133.633 134.352ZM139.701 142H140.901V136.896C140.901 136.128 141.114 135.525 141.541 135.088C141.967 134.651 142.506 134.432 143.157 134.432C143.818 134.432 144.351 134.651 144.757 135.088C145.173 135.515 145.381 136.117 145.381 136.896V142H146.581V136.432C146.581 135.824 146.437 135.28 146.149 134.8C145.871 134.309 145.487 133.925 144.997 133.648C144.517 133.371 143.973 133.232 143.365 133.232C142.831 133.232 142.351 133.344 141.925 133.568C141.498 133.792 141.157 134.096 140.901 134.48V133.424H139.701V142ZM152.745 142.192C153.406 142.192 154.014 142.053 154.569 141.776C155.123 141.499 155.561 141.109 155.881 140.608V142H157.081V130.08H155.881V134.72C155.529 134.261 155.086 133.899 154.553 133.632C154.019 133.365 153.417 133.232 152.745 133.232C151.934 133.232 151.209 133.429 150.569 133.824C149.939 134.208 149.438 134.736 149.065 135.408C148.702 136.08 148.521 136.848 148.521 137.712C148.521 138.565 148.702 139.333 149.065 140.016C149.438 140.688 149.945 141.221 150.585 141.616C151.225 142 151.945 142.192 152.745 142.192ZM152.809 140.992C152.233 140.992 151.715 140.848 151.257 140.56C150.809 140.272 150.451 139.883 150.185 139.392C149.929 138.891 149.801 138.331 149.801 137.712C149.801 137.083 149.929 136.523 150.185 136.032C150.451 135.541 150.814 135.152 151.273 134.864C151.731 134.576 152.243 134.432 152.809 134.432C153.385 134.432 153.902 134.576 154.361 134.864C154.83 135.152 155.198 135.547 155.465 136.048C155.742 136.539 155.881 137.093 155.881 137.712C155.881 138.331 155.742 138.891 155.465 139.392C155.198 139.883 154.83 140.272 154.361 140.56C153.902 140.848 153.385 140.992 152.809 140.992ZM159.545 142H160.745V130.08H159.545V142ZM163.377 145.52C163.942 145.52 164.422 145.403 164.817 145.168C165.211 144.944 165.537 144.645 165.793 144.272C166.059 143.899 166.278 143.504 166.449 143.088L170.369 133.408H169.041L166.241 140.496L163.441 133.408H162.145L165.569 142L165.265 142.736C164.998 143.355 164.726 143.771 164.449 143.984C164.171 144.208 163.771 144.32 163.249 144.32C163.078 144.32 162.907 144.304 162.737 144.272C162.577 144.251 162.443 144.235 162.337 144.224V145.344C162.507 145.408 162.678 145.451 162.849 145.472C163.03 145.504 163.206 145.52 163.377 145.52ZM174.498 142H175.698V136.72C175.698 136.016 175.884 135.472 176.258 135.088C176.631 134.704 177.127 134.512 177.746 134.512H178.498V133.312H177.954C177.431 133.312 176.978 133.403 176.594 133.584C176.22 133.765 175.922 134.021 175.698 134.352V133.424H174.498V142ZM183.92 142.192C184.72 142.192 185.445 142 186.096 141.616C186.757 141.232 187.285 140.704 187.68 140.032C188.075 139.349 188.272 138.571 188.272 137.696C188.272 136.832 188.08 136.064 187.696 135.392C187.323 134.72 186.805 134.192 186.144 133.808C185.493 133.424 184.752 133.232 183.92 133.232C183.088 133.232 182.341 133.429 181.68 133.824C181.029 134.208 180.512 134.736 180.128 135.408C179.744 136.08 179.552 136.843 179.552 137.696C179.552 138.56 179.744 139.333 180.128 140.016C180.523 140.688 181.051 141.221 181.712 141.616C182.373 142 183.109 142.192 183.92 142.192ZM183.92 140.992C183.344 140.992 182.821 140.848 182.352 140.56C181.893 140.272 181.525 139.877 181.248 139.376C180.971 138.875 180.832 138.315 180.832 137.696C180.832 137.077 180.971 136.523 181.248 136.032C181.525 135.541 181.893 135.152 182.352 134.864C182.821 134.576 183.344 134.432 183.92 134.432C184.496 134.432 185.013 134.576 185.472 134.864C185.941 135.152 186.309 135.541 186.576 136.032C186.853 136.523 186.992 137.077 186.992 137.696C186.992 138.315 186.853 138.875 186.576 139.376C186.309 139.877 185.941 140.272 185.472 140.56C185.013 140.848 184.496 140.992 183.92 140.992ZM194.724 142.192C195.535 142.192 196.255 142 196.884 141.616C197.524 141.221 198.026 140.688 198.388 140.016C198.762 139.333 198.948 138.565 198.948 137.712C198.948 136.848 198.762 136.08 198.388 135.408C198.026 134.736 197.524 134.208 196.884 133.824C196.255 133.429 195.535 133.232 194.724 133.232C194.052 133.232 193.45 133.365 192.916 133.632C192.383 133.899 191.94 134.261 191.588 134.72V130.08H190.388V142H191.588V140.608C191.908 141.109 192.346 141.499 192.9 141.776C193.455 142.053 194.063 142.192 194.724 142.192ZM194.66 140.992C194.084 140.992 193.562 140.848 193.092 140.56C192.634 140.272 192.266 139.883 191.988 139.392C191.722 138.891 191.588 138.331 191.588 137.712C191.588 137.093 191.722 136.539 191.988 136.048C192.266 135.547 192.634 135.152 193.092 134.864C193.562 134.576 194.084 134.432 194.66 134.432C195.236 134.432 195.748 134.576 196.196 134.864C196.655 135.152 197.012 135.541 197.268 136.032C197.535 136.523 197.668 137.083 197.668 137.712C197.668 138.331 197.535 138.891 197.268 139.392C197.012 139.883 196.655 140.272 196.196 140.56C195.748 140.848 195.236 140.992 194.66 140.992ZM205.076 142.192C205.876 142.192 206.601 142 207.252 141.616C207.913 141.232 208.441 140.704 208.836 140.032C209.231 139.349 209.428 138.571 209.428 137.696C209.428 136.832 209.236 136.064 208.852 135.392C208.479 134.72 207.961 134.192 207.3 133.808C206.649 133.424 205.908 133.232 205.076 133.232C204.244 133.232 203.497 133.429 202.836 133.824C202.185 134.208 201.668 134.736 201.284 135.408C200.9 136.08 200.708 136.843 200.708 137.696C200.708 138.56 200.9 139.333 201.284 140.016C201.679 140.688 202.207 141.221 202.868 141.616C203.529 142 204.265 142.192 205.076 142.192ZM205.076 140.992C204.5 140.992 203.977 140.848 203.508 140.56C203.049 140.272 202.681 139.877 202.404 139.376C202.127 138.875 201.988 138.315 201.988 137.696C201.988 137.077 202.127 136.523 202.404 136.032C202.681 135.541 203.049 135.152 203.508 134.864C203.977 134.576 204.5 134.432 205.076 134.432C205.652 134.432 206.169 134.576 206.628 134.864C207.097 135.152 207.465 135.541 207.732 136.032C208.009 136.523 208.148 137.077 208.148 137.696C208.148 138.315 208.009 138.875 207.732 139.376C207.465 139.877 207.097 140.272 206.628 140.56C206.169 140.848 205.652 140.992 205.076 140.992ZM214.668 142.096C214.764 142.096 214.892 142.091 215.052 142.08C215.212 142.069 215.356 142.048 215.484 142.016V140.928C215.399 140.939 215.298 140.949 215.18 140.96C215.063 140.971 214.962 140.976 214.876 140.976C214.343 140.976 213.975 140.837 213.772 140.56C213.57 140.283 213.468 139.931 213.468 139.504V134.624H215.356V133.424H213.468V131.44H212.268V132.16C212.268 132.523 212.162 132.827 211.948 133.072C211.735 133.307 211.447 133.424 211.084 133.424H210.684V134.624H212.268V139.504C212.268 140.336 212.476 140.976 212.892 141.424C213.308 141.872 213.9 142.096 214.668 142.096Z" fill="#072125"/>
<rect width="44" height="44" rx="12" fill="#DCF2ED"/>
<g clip-path="url(#clip0_1376_499)">
<path d="M16 28C16 28.55 16.45 29 17 29H18V32.5C18 33.33 18.67 34 19.5 34C20.33 34 21 33.33 21 32.5V29H23V32.5C23 33.33 23.67 34 24.5 34C25.33 34 26 33.33 26 32.5V29H27C27.55 29 28 28.55 28 28V18H16V28ZM13.5 18C12.67 18 12 18.67 12 19.5V26.5C12 27.33 12.67 28 13.5 28C14.33 28 15 27.33 15 26.5V19.5C15 18.67 14.33 18 13.5 18ZM30.5 18C29.67 18 29 18.67 29 19.5V26.5C29 27.33 29.67 28 30.5 28C31.33 28 32 27.33 32 26.5V19.5C32 18.67 31.33 18 30.5 18ZM25.53 12.16L26.83 10.86C27.03 10.66 27.03 10.35 26.83 10.15C26.63 9.95 26.32 9.95 26.12 10.15L24.64 11.63C23.85 11.23 22.95 11 22 11C21.04 11 20.14 11.23 19.34 11.63L17.85 10.15C17.65 9.95 17.34 9.95 17.14 10.15C16.94 10.35 16.94 10.66 17.14 10.86L18.45 12.17C16.97 13.26 16 15.01 16 17H28C28 15.01 27.03 13.25 25.53 12.16ZM20 15H19V14H20V15ZM25 15H24V14H25V15Z" fill="#20484F"/>
</g>
<path d="M1.296 83H3.744V78.05H6.048L8.82 83H11.592L8.514 77.618C9.258 77.306 9.846 76.826 10.278 76.178C10.722 75.53 10.944 74.744 10.944 73.82C10.944 72.908 10.746 72.14 10.35 71.516C9.954 70.892 9.402 70.418 8.694 70.094C7.998 69.758 7.194 69.59 6.282 69.59H1.296V83ZM3.744 75.89V71.75H6.318C6.978 71.75 7.506 71.936 7.902 72.308C8.298 72.68 8.496 73.184 8.496 73.82C8.496 74.444 8.298 74.948 7.902 75.332C7.506 75.704 6.978 75.89 6.318 75.89H3.744ZM17.2415 83.216C18.1895 83.216 19.0535 83 19.8335 82.568C20.6135 82.124 21.2375 81.518 21.7055 80.75C22.1735 79.97 22.4075 79.088 22.4075 78.104C22.4075 77.12 22.1735 76.244 21.7055 75.476C21.2495 74.708 20.6315 74.102 19.8515 73.658C19.0715 73.214 18.2015 72.992 17.2415 72.992C16.2695 72.992 15.3935 73.214 14.6135 73.658C13.8335 74.102 13.2095 74.708 12.7415 75.476C12.2855 76.244 12.0575 77.12 12.0575 78.104C12.0575 79.088 12.2855 79.964 12.7415 80.732C13.2095 81.5 13.8335 82.106 14.6135 82.55C15.4055 82.994 16.2815 83.216 17.2415 83.216ZM17.2415 81.056C16.7135 81.056 16.2395 80.93 15.8195 80.678C15.4115 80.426 15.0875 80.078 14.8475 79.634C14.6195 79.178 14.5055 78.668 14.5055 78.104C14.5055 77.54 14.6195 77.036 14.8475 76.592C15.0875 76.148 15.4115 75.8 15.8195 75.548C16.2395 75.284 16.7135 75.152 17.2415 75.152C17.7695 75.152 18.2315 75.284 18.6275 75.548C19.0355 75.8 19.3535 76.148 19.5815 76.592C19.8215 77.036 19.9415 77.54 19.9415 78.104C19.9415 78.668 19.8215 79.178 19.5815 79.634C19.3535 80.078 19.0355 80.426 18.6275 80.678C18.2315 80.93 17.7695 81.056 17.2415 81.056ZM29.5417 83.216C30.4897 83.216 31.3357 82.994 32.0797 82.55C32.8237 82.094 33.4117 81.482 33.8437 80.714C34.2757 79.934 34.4917 79.064 34.4917 78.104C34.4917 77.144 34.2757 76.28 33.8437 75.512C33.4117 74.732 32.8237 74.12 32.0797 73.676C31.3357 73.22 30.4957 72.992 29.5597 72.992C28.2877 72.992 27.2857 73.394 26.5537 74.198V69.59H24.1957V83H26.4097V81.902C26.7697 82.322 27.2197 82.646 27.7597 82.874C28.3117 83.102 28.9057 83.216 29.5417 83.216ZM29.2717 81.056C28.7557 81.056 28.2877 80.93 27.8677 80.678C27.4597 80.426 27.1357 80.078 26.8957 79.634C26.6677 79.19 26.5537 78.68 26.5537 78.104C26.5537 77.528 26.6677 77.018 26.8957 76.574C27.1357 76.13 27.4597 75.782 27.8677 75.53C28.2877 75.278 28.7557 75.152 29.2717 75.152C29.8117 75.152 30.2857 75.284 30.6937 75.548C31.1137 75.8 31.4437 76.148 31.6837 76.592C31.9237 77.036 32.0437 77.54 32.0437 78.104C32.0437 78.668 31.9237 79.178 31.6837 79.634C31.4437 80.078 31.1137 80.426 30.6937 80.678C30.2857 80.93 29.8117 81.056 29.2717 81.056ZM41.0774 83.216C42.0254 83.216 42.8894 83 43.6694 82.568C44.4494 82.124 45.0734 81.518 45.5414 80.75C46.0094 79.97 46.2434 79.088 46.2434 78.104C46.2434 77.12 46.0094 76.244 45.5414 75.476C45.0854 74.708 44.4674 74.102 43.6874 73.658C42.9074 73.214 42.0374 72.992 41.0774 72.992C40.1054 72.992 39.2294 73.214 38.4494 73.658C37.6694 74.102 37.0454 74.708 36.5774 75.476C36.1214 76.244 35.8934 77.12 35.8934 78.104C35.8934 79.088 36.1214 79.964 36.5774 80.732C37.0454 81.5 37.6694 82.106 38.4494 82.55C39.2414 82.994 40.1174 83.216 41.0774 83.216ZM41.0774 81.056C40.5494 81.056 40.0754 80.93 39.6554 80.678C39.2474 80.426 38.9234 80.078 38.6834 79.634C38.4554 79.178 38.3414 78.668 38.3414 78.104C38.3414 77.54 38.4554 77.036 38.6834 76.592C38.9234 76.148 39.2474 75.8 39.6554 75.548C40.0754 75.284 40.5494 75.152 41.0774 75.152C41.6054 75.152 42.0674 75.284 42.4634 75.548C42.8714 75.8 43.1894 76.148 43.4174 76.592C43.6574 77.036 43.7774 77.54 43.7774 78.104C43.7774 78.668 43.6574 79.178 43.4174 79.634C43.1894 80.078 42.8714 80.426 42.4634 80.678C42.0674 80.93 41.6054 81.056 41.0774 81.056ZM52.3198 83.108C52.7158 83.108 53.1058 83.078 53.4898 83.018V80.984C53.2618 81.02 53.0518 81.038 52.8598 81.038C52.2838 81.038 51.8638 80.906 51.5998 80.642C51.3358 80.378 51.2038 80 51.2038 79.508V75.314H53.4538V73.208H51.2038V70.976H48.8458V71.732C48.8458 72.212 48.7138 72.578 48.4498 72.83C48.1858 73.082 47.8138 73.208 47.3338 73.208H47.1538V75.314H48.8458V79.634C48.8458 80.726 49.1458 81.578 49.7458 82.19C50.3578 82.802 51.2158 83.108 52.3198 83.108ZM59.6246 83H61.9826V75.314H64.1606V73.208H61.9826V72.884C61.9826 72.392 62.1266 72.032 62.4146 71.804C62.7146 71.564 63.1226 71.444 63.6386 71.444C63.8306 71.444 64.0346 71.462 64.2506 71.498V69.464C63.9746 69.404 63.6686 69.374 63.3326 69.374C62.2046 69.374 61.3046 69.68 60.6326 70.292C59.9606 70.904 59.6246 71.768 59.6246 72.884V73.208H57.8966V75.314H59.6246V83ZM65.7503 83H68.1083V77.546C68.1083 76.802 68.3123 76.226 68.7203 75.818C69.1403 75.398 69.6803 75.188 70.3403 75.188H71.1863V73.1H70.6103C70.0103 73.1 69.4823 73.208 69.0263 73.424C68.5703 73.64 68.2163 74.03 67.9643 74.594V73.208H65.7503V83ZM72.4828 72.11H74.8408V69.59H72.4828V72.11ZM72.4828 83H74.8408V73.208H72.4828V83ZM81.6619 83.216C82.6579 83.216 83.5279 82.994 84.2719 82.55C85.0279 82.094 85.5559 81.518 85.8559 80.822L83.9479 79.886C83.7319 80.258 83.4319 80.564 83.0479 80.804C82.6759 81.032 82.2199 81.146 81.6799 81.146C80.9719 81.146 80.3779 80.93 79.8979 80.498C79.4179 80.066 79.1419 79.49 79.0699 78.77H86.1259C86.1739 78.638 86.2039 78.488 86.2159 78.32C86.2399 78.14 86.2519 77.96 86.2519 77.78C86.2519 76.904 86.0659 76.106 85.6939 75.386C85.3219 74.666 84.7819 74.09 84.0739 73.658C83.3659 73.214 82.5019 72.992 81.4819 72.992C80.5699 72.992 79.7419 73.214 78.9979 73.658C78.2659 74.102 77.6839 74.708 77.2519 75.476C76.8319 76.232 76.6219 77.102 76.6219 78.086C76.6219 79.034 76.8319 79.898 77.2519 80.678C77.6719 81.458 78.2599 82.076 79.0159 82.532C79.7719 82.988 80.6539 83.216 81.6619 83.216ZM81.4819 74.936C82.1059 74.936 82.6219 75.128 83.0299 75.512C83.4499 75.884 83.6839 76.37 83.7319 76.97H79.1239C79.2559 76.322 79.5319 75.824 79.9519 75.476C80.3839 75.116 80.8939 74.936 81.4819 74.936ZM88.0394 83H90.3974V77.258C90.3974 76.622 90.5774 76.112 90.9374 75.728C91.3094 75.344 91.7894 75.152 92.3774 75.152C92.9654 75.152 93.4394 75.344 93.7994 75.728C94.1714 76.1 94.3574 76.61 94.3574 77.258V83H96.7154V76.7C96.7154 75.968 96.5594 75.326 96.2474 74.774C95.9354 74.21 95.4974 73.772 94.9334 73.46C94.3814 73.148 93.7454 72.992 93.0254 72.992C92.4134 72.992 91.8614 73.112 91.3694 73.352C90.8894 73.592 90.5174 73.946 90.2534 74.414V73.208H88.0394V83ZM103.263 83.216C103.899 83.216 104.487 83.108 105.027 82.892C105.567 82.664 106.017 82.34 106.377 81.92V83H108.609V69.59H106.251V74.198C105.519 73.394 104.517 72.992 103.245 72.992C102.321 72.992 101.481 73.22 100.725 73.676C99.9813 74.12 99.3933 74.732 98.9613 75.512C98.5293 76.28 98.3133 77.144 98.3133 78.104C98.3133 79.064 98.5293 79.934 98.9613 80.714C99.3933 81.482 99.9813 82.094 100.725 82.55C101.469 82.994 102.315 83.216 103.263 83.216ZM103.515 81.056C102.987 81.056 102.513 80.93 102.093 80.678C101.673 80.426 101.343 80.078 101.103 79.634C100.875 79.178 100.761 78.668 100.761 78.104C100.761 77.54 100.875 77.036 101.103 76.592C101.343 76.148 101.673 75.8 102.093 75.548C102.513 75.284 102.987 75.152 103.515 75.152C104.043 75.152 104.511 75.278 104.919 75.53C105.339 75.782 105.663 76.13 105.891 76.574C106.131 77.018 106.251 77.528 106.251 78.104C106.251 78.68 106.131 79.19 105.891 79.634C105.663 80.078 105.339 80.426 104.919 80.678C104.511 80.93 104.043 81.056 103.515 81.056ZM114.529 83.216C115.273 83.216 115.921 83.09 116.473 82.838C117.025 82.586 117.457 82.238 117.769 81.794C118.081 81.338 118.237 80.816 118.237 80.228C118.237 79.544 118.021 78.956 117.589 78.464C117.157 77.972 116.533 77.612 115.717 77.384L114.151 76.916C113.815 76.82 113.539 76.694 113.323 76.538C113.107 76.382 112.999 76.166 112.999 75.89C112.999 75.602 113.113 75.368 113.341 75.188C113.569 75.008 113.881 74.918 114.277 74.918C114.769 74.918 115.213 75.05 115.609 75.314C116.017 75.578 116.299 75.932 116.455 76.376L118.255 75.53C117.955 74.738 117.451 74.12 116.743 73.676C116.035 73.22 115.219 72.992 114.295 72.992C113.587 72.992 112.957 73.118 112.405 73.37C111.865 73.622 111.439 73.976 111.127 74.432C110.827 74.876 110.677 75.398 110.677 75.998C110.677 76.67 110.887 77.252 111.307 77.744C111.739 78.236 112.369 78.602 113.197 78.842L114.799 79.292C115.111 79.376 115.375 79.502 115.591 79.67C115.819 79.826 115.933 80.042 115.933 80.318C115.933 80.642 115.801 80.9 115.537 81.092C115.285 81.272 114.949 81.362 114.529 81.362C113.977 81.362 113.479 81.206 113.035 80.894C112.591 80.582 112.237 80.15 111.973 79.598L110.209 80.444C110.497 81.284 111.025 81.956 111.793 82.46C112.573 82.964 113.485 83.216 114.529 83.216ZM126.218 83.216C127.49 83.216 128.51 82.796 129.278 81.956V83H131.51V76.484C131.51 75.8 131.336 75.194 130.988 74.666C130.64 74.138 130.16 73.73 129.548 73.442C128.948 73.142 128.246 72.992 127.442 72.992C126.458 72.992 125.582 73.226 124.814 73.694C124.046 74.162 123.518 74.78 123.23 75.548L125.156 76.484C125.336 76.04 125.618 75.686 126.002 75.422C126.386 75.146 126.836 75.008 127.352 75.008C127.892 75.008 128.324 75.152 128.648 75.44C128.984 75.716 129.152 76.064 129.152 76.484V76.808L126.236 77.276C125.084 77.468 124.232 77.834 123.68 78.374C123.128 78.914 122.852 79.592 122.852 80.408C122.852 81.272 123.158 81.956 123.77 82.46C124.382 82.964 125.198 83.216 126.218 83.216ZM125.3 80.318C125.3 79.634 125.762 79.202 126.686 79.022L129.152 78.608V79.004C129.152 79.676 128.918 80.246 128.45 80.714C127.994 81.182 127.394 81.416 126.65 81.416C126.254 81.416 125.93 81.32 125.678 81.128C125.426 80.924 125.3 80.654 125.3 80.318ZM133.69 83H136.048V77.546C136.048 76.802 136.252 76.226 136.66 75.818C137.08 75.398 137.62 75.188 138.28 75.188H139.126V73.1H138.55C137.95 73.1 137.422 73.208 136.966 73.424C136.51 73.64 136.156 74.03 135.904 74.594V73.208H133.69V83ZM145.066 83.216C146.062 83.216 146.932 82.994 147.676 82.55C148.432 82.094 148.96 81.518 149.26 80.822L147.352 79.886C147.136 80.258 146.836 80.564 146.452 80.804C146.08 81.032 145.624 81.146 145.084 81.146C144.376 81.146 143.782 80.93 143.302 80.498C142.822 80.066 142.546 79.49 142.474 78.77H149.53C149.578 78.638 149.608 78.488 149.62 78.32C149.644 78.14 149.656 77.96 149.656 77.78C149.656 76.904 149.47 76.106 149.098 75.386C148.726 74.666 148.186 74.09 147.478 73.658C146.77 73.214 145.906 72.992 144.886 72.992C143.974 72.992 143.146 73.214 142.402 73.658C141.67 74.102 141.088 74.708 140.656 75.476C140.236 76.232 140.026 77.102 140.026 78.086C140.026 79.034 140.236 79.898 140.656 80.678C141.076 81.458 141.664 82.076 142.42 82.532C143.176 82.988 144.058 83.216 145.066 83.216ZM144.886 74.936C145.51 74.936 146.026 75.128 146.434 75.512C146.854 75.884 147.088 76.37 147.136 76.97H142.528C142.66 76.322 142.936 75.824 143.356 75.476C143.788 75.116 144.298 74.936 144.886 74.936ZM154.643 83H157.001V77.258C157.001 76.622 157.187 76.112 157.559 75.728C157.931 75.344 158.405 75.152 158.981 75.152C159.557 75.152 160.031 75.344 160.403 75.728C160.775 76.1 160.961 76.61 160.961 77.258V83H163.319V76.7C163.319 75.968 163.163 75.326 162.851 74.774C162.539 74.21 162.101 73.772 161.537 73.46C160.985 73.148 160.349 72.992 159.629 72.992C159.065 72.992 158.555 73.094 158.099 73.298C157.643 73.49 157.277 73.784 157.001 74.18V69.428H154.643V83ZM169.957 83.216C170.953 83.216 171.823 82.994 172.567 82.55C173.323 82.094 173.851 81.518 174.151 80.822L172.243 79.886C172.027 80.258 171.727 80.564 171.343 80.804C170.971 81.032 170.515 81.146 169.975 81.146C169.267 81.146 168.673 80.93 168.193 80.498C167.713 80.066 167.437 79.49 167.365 78.77H174.421C174.469 78.638 174.499 78.488 174.511 78.32C174.535 78.14 174.547 77.96 174.547 77.78C174.547 76.904 174.361 76.106 173.989 75.386C173.617 74.666 173.077 74.09 172.369 73.658C171.661 73.214 170.797 72.992 169.777 72.992C168.865 72.992 168.037 73.214 167.293 73.658C166.561 74.102 165.979 74.708 165.547 75.476C165.127 76.232 164.917 77.102 164.917 78.086C164.917 79.034 165.127 79.898 165.547 80.678C165.967 81.458 166.555 82.076 167.311 82.532C168.067 82.988 168.949 83.216 169.957 83.216ZM169.777 74.936C170.401 74.936 170.917 75.128 171.325 75.512C171.745 75.884 171.979 76.37 172.027 76.97H167.419C167.551 76.322 167.827 75.824 168.247 75.476C168.679 75.116 169.189 74.936 169.777 74.936ZM176.334 83H178.692V77.546C178.692 76.802 178.896 76.226 179.304 75.818C179.724 75.398 180.264 75.188 180.924 75.188H181.77V73.1H181.194C180.594 73.1 180.066 73.208 179.61 73.424C179.154 73.64 178.8 74.03 178.548 74.594V73.208H176.334V83ZM187.711 83.216C188.707 83.216 189.577 82.994 190.321 82.55C191.077 82.094 191.605 81.518 191.905 80.822L189.997 79.886C189.781 80.258 189.481 80.564 189.097 80.804C188.725 81.032 188.269 81.146 187.729 81.146C187.021 81.146 186.427 80.93 185.947 80.498C185.467 80.066 185.191 79.49 185.119 78.77H192.175C192.223 78.638 192.253 78.488 192.265 78.32C192.289 78.14 192.301 77.96 192.301 77.78C192.301 76.904 192.115 76.106 191.743 75.386C191.371 74.666 190.831 74.09 190.123 73.658C189.415 73.214 188.551 72.992 187.531 72.992C186.619 72.992 185.791 73.214 185.047 73.658C184.315 74.102 183.733 74.708 183.301 75.476C182.881 76.232 182.671 77.102 182.671 78.086C182.671 79.034 182.881 79.898 183.301 80.678C183.721 81.458 184.309 82.076 185.065 82.532C185.821 82.988 186.703 83.216 187.711 83.216ZM187.531 74.936C188.155 74.936 188.671 75.128 189.079 75.512C189.499 75.884 189.733 76.37 189.781 76.97H185.173C185.305 76.322 185.581 75.824 186.001 75.476C186.433 75.116 186.943 74.936 187.531 74.936Z" fill="#072125"/>
<defs>
<clipPath id="clip0_1376_499">
<rect width="24" height="24" fill="white" transform="translate(10 10)"/>
</clipPath>
</defs>
</svg>
