<svg width="261" height="147" viewBox="0 0 261 147" fill="none" xmlns="http://www.w3.org/2000/svg">
<path d="M1.408 118H2.688V112.624H8.288V111.424H2.688V107.28H8.768V106.08H1.408V118ZM10.5289 118H11.7289V106.08H10.5289V118ZM14.1851 107.84H15.3851V106.08H14.1851V107.84ZM14.1851 118H15.3851V109.424H14.1851V118ZM17.8414 121.2H19.0414V116.608C19.3614 117.109 19.7987 117.499 20.3534 117.776C20.908 118.053 21.516 118.192 22.1774 118.192C22.988 118.192 23.708 118 24.3374 117.616C24.9774 117.221 25.4787 116.688 25.8414 116.016C26.2147 115.333 26.4014 114.565 26.4014 113.712C26.4014 112.848 26.2147 112.08 25.8414 111.408C25.4787 110.736 24.9774 110.208 24.3374 109.824C23.708 109.429 22.988 109.232 22.1774 109.232C21.5054 109.232 20.9027 109.365 20.3694 109.632C19.836 109.899 19.3934 110.261 19.0414 110.72V109.424H17.8414V121.2ZM22.1134 116.992C21.5374 116.992 21.0147 116.848 20.5454 116.56C20.0867 116.272 19.7187 115.883 19.4414 115.392C19.1747 114.891 19.0414 114.331 19.0414 113.712C19.0414 113.093 19.1747 112.539 19.4414 112.048C19.7187 111.547 20.0867 111.152 20.5454 110.864C21.0147 110.576 21.5374 110.432 22.1134 110.432C22.6894 110.432 23.2014 110.576 23.6494 110.864C24.108 111.152 24.4654 111.541 24.7214 112.032C24.988 112.523 25.1214 113.083 25.1214 113.712C25.1214 114.331 24.988 114.891 24.7214 115.392C24.4654 115.883 24.108 116.272 23.6494 116.56C23.2014 116.848 22.6894 116.992 22.1134 116.992ZM31.232 107.84H32.432V106.08H31.232V107.84ZM31.232 118H32.432V109.424H31.232V118ZM38.1683 118.096C38.2643 118.096 38.3923 118.091 38.5523 118.08C38.7123 118.069 38.8563 118.048 38.9843 118.016V116.928C38.8989 116.939 38.7976 116.949 38.6803 116.96C38.5629 116.971 38.4616 116.976 38.3763 116.976C37.8429 116.976 37.4749 116.837 37.2723 116.56C37.0696 116.283 36.9683 115.931 36.9683 115.504V110.624H38.8563V109.424H36.9683V107.44H35.7682V108.16C35.7682 108.523 35.6616 108.827 35.4483 109.072C35.2349 109.307 34.9469 109.424 34.5843 109.424H34.1842V110.624H35.7682V115.504C35.7682 116.336 35.9763 116.976 36.3923 117.424C36.8083 117.872 37.4003 118.096 38.1683 118.096ZM41.1394 120.08C42.206 119.824 42.7394 118.992 42.7394 117.584V116.24H41.4594V118H42.1474C42.1154 118.896 41.7794 119.429 41.1394 119.6V120.08ZM52.0426 118.192C52.576 118.192 53.0773 118.096 53.5466 117.904C54.016 117.712 54.432 117.451 54.7946 117.12C55.1573 116.789 55.4293 116.416 55.6106 116L54.5226 115.408C54.2986 115.888 53.968 116.272 53.5306 116.56C53.104 116.848 52.608 116.992 52.0426 116.992C51.4773 116.992 50.9653 116.848 50.5066 116.56C50.0586 116.272 49.7013 115.883 49.4346 115.392C49.1786 114.891 49.0506 114.331 49.0506 113.712C49.0506 113.083 49.1786 112.523 49.4346 112.032C49.7013 111.531 50.0586 111.141 50.5066 110.864C50.9653 110.576 51.4773 110.432 52.0426 110.432C52.608 110.432 53.1093 110.576 53.5466 110.864C53.984 111.152 54.3093 111.525 54.5226 111.984L55.6106 111.424C55.4293 110.997 55.1573 110.624 54.7946 110.304C54.432 109.973 54.016 109.712 53.5466 109.52C53.0773 109.328 52.576 109.232 52.0426 109.232C51.2 109.232 50.4586 109.429 49.8186 109.824C49.1786 110.208 48.6773 110.736 48.3146 111.408C47.952 112.08 47.7706 112.843 47.7706 113.696C47.7706 114.549 47.952 115.317 48.3146 116C48.6773 116.672 49.1786 117.205 49.8186 117.6C50.4586 117.995 51.2 118.192 52.0426 118.192ZM61.7324 118.192C62.5324 118.192 63.2577 118 63.9084 117.616C64.5697 117.232 65.0977 116.704 65.4924 116.032C65.887 115.349 66.0844 114.571 66.0844 113.696C66.0844 112.832 65.8924 112.064 65.5084 111.392C65.135 110.72 64.6177 110.192 63.9564 109.808C63.3057 109.424 62.5644 109.232 61.7324 109.232C60.9004 109.232 60.1537 109.429 59.4924 109.824C58.8417 110.208 58.3244 110.736 57.9404 111.408C57.5564 112.08 57.3644 112.843 57.3644 113.696C57.3644 114.56 57.5564 115.333 57.9404 116.016C58.335 116.688 58.863 117.221 59.5244 117.616C60.1857 118 60.9217 118.192 61.7324 118.192ZM61.7324 116.992C61.1564 116.992 60.6337 116.848 60.1644 116.56C59.7057 116.272 59.3377 115.877 59.0604 115.376C58.783 114.875 58.6444 114.315 58.6444 113.696C58.6444 113.077 58.783 112.523 59.0604 112.032C59.3377 111.541 59.7057 111.152 60.1644 110.864C60.6337 110.576 61.1564 110.432 61.7324 110.432C62.3084 110.432 62.8257 110.576 63.2844 110.864C63.7537 111.152 64.1217 111.541 64.3884 112.032C64.6657 112.523 64.8044 113.077 64.8044 113.696C64.8044 114.315 64.6657 114.875 64.3884 115.376C64.1217 115.877 63.7537 116.272 63.2844 116.56C62.8257 116.848 62.3084 116.992 61.7324 116.992ZM68.2008 118H69.4008V112.896C69.4008 112.128 69.6088 111.525 70.0248 111.088C70.4408 110.651 70.9581 110.432 71.5768 110.432C72.1954 110.432 72.7074 110.651 73.1128 111.088C73.5181 111.515 73.7208 112.117 73.7208 112.896V118H74.9208V112.896C74.9208 112.128 75.1288 111.525 75.5448 111.088C75.9608 110.651 76.4781 110.432 77.0968 110.432C77.7154 110.432 78.2274 110.651 78.6328 111.088C79.0381 111.515 79.2408 112.117 79.2408 112.896V118H80.4408V112.432C80.4408 111.824 80.2914 111.28 79.9928 110.8C79.7048 110.309 79.3154 109.925 78.8248 109.648C78.3448 109.371 77.8168 109.232 77.2408 109.232C76.6648 109.232 76.1314 109.371 75.6408 109.648C75.1608 109.925 74.7928 110.331 74.5368 110.864C74.2701 110.373 73.8914 109.979 73.4008 109.68C72.9101 109.381 72.3714 109.232 71.7848 109.232C71.2941 109.232 70.8354 109.344 70.4088 109.568C69.9928 109.781 69.6568 110.085 69.4008 110.48V109.424H68.2008V118ZM82.732 121.2H83.932V116.608C84.252 117.109 84.6893 117.499 85.244 117.776C85.7987 118.053 86.4067 118.192 87.068 118.192C87.8787 118.192 88.5987 118 89.228 117.616C89.868 117.221 90.3693 116.688 90.732 116.016C91.1053 115.333 91.292 114.565 91.292 113.712C91.292 112.848 91.1053 112.08 90.732 111.408C90.3693 110.736 89.868 110.208 89.228 109.824C88.5987 109.429 87.8787 109.232 87.068 109.232C86.396 109.232 85.7933 109.365 85.26 109.632C84.7267 109.899 84.284 110.261 83.932 110.72V109.424H82.732V121.2ZM87.004 116.992C86.428 116.992 85.9053 116.848 85.436 116.56C84.9773 116.272 84.6093 115.883 84.332 115.392C84.0653 114.891 83.932 114.331 83.932 113.712C83.932 113.093 84.0653 112.539 84.332 112.048C84.6093 111.547 84.9773 111.152 85.436 110.864C85.9053 110.576 86.428 110.432 87.004 110.432C87.58 110.432 88.092 110.576 88.54 110.864C88.9987 111.152 89.356 111.541 89.612 112.032C89.8787 112.523 90.012 113.083 90.012 113.712C90.012 114.331 89.8787 114.891 89.612 115.392C89.356 115.883 88.9987 116.272 88.54 116.56C88.092 116.848 87.58 116.992 87.004 116.992ZM93.4039 118H94.6039V106.08H93.4039V118ZM100.964 118.192C101.551 118.192 102.084 118.096 102.564 117.904C103.055 117.701 103.476 117.44 103.828 117.12C104.18 116.789 104.441 116.432 104.612 116.048L103.588 115.504C103.321 115.952 102.975 116.325 102.548 116.624C102.121 116.923 101.593 117.072 100.964 117.072C100.452 117.072 99.9721 116.949 99.5241 116.704C99.0761 116.459 98.7081 116.117 98.4201 115.68C98.1428 115.232 97.9935 114.699 97.9721 114.08H104.724C104.745 113.941 104.761 113.808 104.772 113.68C104.783 113.541 104.788 113.419 104.788 113.312C104.788 112.8 104.697 112.304 104.516 111.824C104.335 111.333 104.073 110.896 103.732 110.512C103.391 110.117 102.975 109.808 102.484 109.584C102.004 109.349 101.455 109.232 100.836 109.232C100.057 109.232 99.3535 109.424 98.7241 109.808C98.1055 110.192 97.6148 110.72 97.2521 111.392C96.8895 112.053 96.7081 112.816 96.7081 113.68C96.7081 114.544 96.8948 115.317 97.2681 116C97.6415 116.683 98.1481 117.221 98.7881 117.616C99.4388 118 100.164 118.192 100.964 118.192ZM100.836 110.352C101.316 110.352 101.753 110.464 102.148 110.688C102.553 110.912 102.873 111.221 103.108 111.616C103.353 112 103.481 112.448 103.492 112.96H98.0041C98.0681 112.427 98.2335 111.968 98.5001 111.584C98.7775 111.189 99.1188 110.885 99.5241 110.672C99.9295 110.459 100.367 110.352 100.836 110.352ZM110.184 118.096C110.28 118.096 110.408 118.091 110.568 118.08C110.728 118.069 110.872 118.048 111 118.016V116.928C110.915 116.939 110.813 116.949 110.696 116.96C110.579 116.971 110.477 116.976 110.392 116.976C109.859 116.976 109.491 116.837 109.288 116.56C109.085 116.283 108.984 115.931 108.984 115.504V110.624H110.872V109.424H108.984V107.44H107.784V108.16C107.784 108.523 107.677 108.827 107.464 109.072C107.251 109.307 106.963 109.424 106.6 109.424H106.2V110.624H107.784V115.504C107.784 116.336 107.992 116.976 108.408 117.424C108.824 117.872 109.416 118.096 110.184 118.096ZM116.699 118.192C117.285 118.192 117.819 118.096 118.299 117.904C118.789 117.701 119.211 117.44 119.562 117.12C119.915 116.789 120.176 116.432 120.347 116.048L119.323 115.504C119.056 115.952 118.709 116.325 118.283 116.624C117.856 116.923 117.328 117.072 116.699 117.072C116.187 117.072 115.707 116.949 115.259 116.704C114.811 116.459 114.443 116.117 114.155 115.68C113.877 115.232 113.728 114.699 113.707 114.08H120.459C120.48 113.941 120.496 113.808 120.507 113.68C120.517 113.541 120.523 113.419 120.523 113.312C120.523 112.8 120.432 112.304 120.251 111.824C120.069 111.333 119.808 110.896 119.467 110.512C119.125 110.117 118.709 109.808 118.219 109.584C117.739 109.349 117.189 109.232 116.571 109.232C115.792 109.232 115.088 109.424 114.459 109.808C113.84 110.192 113.349 110.72 112.987 111.392C112.624 112.053 112.443 112.816 112.443 113.68C112.443 114.544 112.629 115.317 113.003 116C113.376 116.683 113.883 117.221 114.523 117.616C115.173 118 115.899 118.192 116.699 118.192ZM116.571 110.352C117.051 110.352 117.488 110.464 117.883 110.688C118.288 110.912 118.608 111.221 118.843 111.616C119.088 112 119.216 112.448 119.227 112.96H113.739C113.803 112.427 113.968 111.968 114.235 111.584C114.512 111.189 114.853 110.885 115.259 110.672C115.664 110.459 116.101 110.352 116.571 110.352ZM122.638 118H123.838V106.08H122.638V118ZM126.471 121.52C127.036 121.52 127.516 121.403 127.911 121.168C128.305 120.944 128.631 120.645 128.887 120.272C129.153 119.899 129.372 119.504 129.543 119.088L133.463 109.408H132.135L129.335 116.496L126.535 109.408H125.239L128.663 118L128.359 118.736C128.092 119.355 127.82 119.771 127.543 119.984C127.265 120.208 126.865 120.32 126.343 120.32C126.172 120.32 126.001 120.304 125.831 120.272C125.671 120.251 125.537 120.235 125.431 120.224V121.344C125.601 121.408 125.772 121.451 125.943 121.472C126.124 121.504 126.3 121.52 126.471 121.52ZM140.071 118.192C140.733 118.192 141.33 118.059 141.863 117.792C142.397 117.525 142.802 117.184 143.079 116.768V118H144.279V112.112C144.279 111.547 144.141 111.051 143.863 110.624C143.597 110.187 143.218 109.845 142.727 109.6C142.247 109.355 141.693 109.232 141.063 109.232C140.583 109.232 140.119 109.323 139.671 109.504C139.223 109.675 138.823 109.909 138.471 110.208C138.13 110.507 137.879 110.837 137.719 111.2L138.807 111.792C138.999 111.376 139.293 111.04 139.687 110.784C140.082 110.517 140.541 110.384 141.063 110.384C141.661 110.384 142.146 110.544 142.519 110.864C142.893 111.184 143.079 111.6 143.079 112.112V112.56L139.975 113.072C139.026 113.232 138.333 113.557 137.895 114.048C137.458 114.539 137.239 115.115 137.239 115.776C137.239 116.245 137.362 116.661 137.607 117.024C137.853 117.387 138.189 117.675 138.615 117.888C139.042 118.091 139.527 118.192 140.071 118.192ZM138.519 115.728C138.519 115.333 138.653 114.992 138.919 114.704C139.197 114.416 139.645 114.219 140.263 114.112L143.079 113.648V114.288C143.079 114.811 142.957 115.285 142.711 115.712C142.466 116.139 142.125 116.48 141.687 116.736C141.25 116.981 140.738 117.104 140.151 117.104C139.671 117.104 139.277 116.971 138.967 116.704C138.669 116.437 138.519 116.112 138.519 115.728ZM146.748 118H147.948V112.72C147.948 112.016 148.134 111.472 148.508 111.088C148.881 110.704 149.377 110.512 149.996 110.512H150.748V109.312H150.204C149.681 109.312 149.228 109.403 148.844 109.584C148.47 109.765 148.172 110.021 147.948 110.352V109.424H146.748V118ZM156.17 118.192C156.97 118.192 157.695 118 158.346 117.616C159.007 117.232 159.535 116.704 159.93 116.032C160.325 115.349 160.522 114.571 160.522 113.696C160.522 112.832 160.33 112.064 159.946 111.392C159.573 110.72 159.055 110.192 158.394 109.808C157.743 109.424 157.002 109.232 156.17 109.232C155.338 109.232 154.591 109.429 153.93 109.824C153.279 110.208 152.762 110.736 152.378 111.408C151.994 112.08 151.802 112.843 151.802 113.696C151.802 114.56 151.994 115.333 152.378 116.016C152.773 116.688 153.301 117.221 153.962 117.616C154.623 118 155.359 118.192 156.17 118.192ZM156.17 116.992C155.594 116.992 155.071 116.848 154.602 116.56C154.143 116.272 153.775 115.877 153.498 115.376C153.221 114.875 153.082 114.315 153.082 113.696C153.082 113.077 153.221 112.523 153.498 112.032C153.775 111.541 154.143 111.152 154.602 110.864C155.071 110.576 155.594 110.432 156.17 110.432C156.746 110.432 157.263 110.576 157.722 110.864C158.191 111.152 158.559 111.541 158.826 112.032C159.103 112.523 159.242 113.077 159.242 113.696C159.242 114.315 159.103 114.875 158.826 115.376C158.559 115.877 158.191 116.272 157.722 116.56C157.263 116.848 156.746 116.992 156.17 116.992ZM165.678 118.192C166.212 118.192 166.692 118.08 167.118 117.856C167.545 117.632 167.886 117.328 168.142 116.944V118H169.342V109.424H168.142V114.528C168.142 115.296 167.929 115.899 167.502 116.336C167.086 116.773 166.548 116.992 165.886 116.992C165.236 116.992 164.702 116.784 164.286 116.368C163.87 115.941 163.662 115.381 163.662 114.688V109.424H162.462V114.832C162.462 115.493 162.601 116.08 162.878 116.592C163.166 117.093 163.556 117.488 164.046 117.776C164.537 118.053 165.081 118.192 165.678 118.192ZM171.81 118H173.01V112.896C173.01 112.128 173.223 111.525 173.65 111.088C174.077 110.651 174.615 110.432 175.266 110.432C175.927 110.432 176.461 110.651 176.866 111.088C177.282 111.515 177.49 112.117 177.49 112.896V118H178.69V112.432C178.69 111.824 178.546 111.28 178.258 110.8C177.981 110.309 177.597 109.925 177.106 109.648C176.626 109.371 176.082 109.232 175.474 109.232C174.941 109.232 174.461 109.344 174.034 109.568C173.607 109.792 173.266 110.096 173.01 110.48V109.424H171.81V118ZM184.854 118.192C185.515 118.192 186.123 118.053 186.678 117.776C187.233 117.499 187.67 117.109 187.99 116.608V118H189.19V106.08H187.99V110.72C187.638 110.261 187.195 109.899 186.662 109.632C186.129 109.365 185.526 109.232 184.854 109.232C184.043 109.232 183.318 109.429 182.678 109.824C182.049 110.208 181.547 110.736 181.174 111.408C180.811 112.08 180.63 112.848 180.63 113.712C180.63 114.565 180.811 115.333 181.174 116.016C181.547 116.688 182.054 117.221 182.694 117.616C183.334 118 184.054 118.192 184.854 118.192ZM184.918 116.992C184.342 116.992 183.825 116.848 183.366 116.56C182.918 116.272 182.561 115.883 182.294 115.392C182.038 114.891 181.91 114.331 181.91 113.712C181.91 113.083 182.038 112.523 182.294 112.032C182.561 111.541 182.923 111.152 183.382 110.864C183.841 110.576 184.353 110.432 184.918 110.432C185.494 110.432 186.011 110.576 186.47 110.864C186.939 111.152 187.307 111.547 187.574 112.048C187.851 112.539 187.99 113.093 187.99 113.712C187.99 114.331 187.851 114.891 187.574 115.392C187.307 115.883 186.939 116.272 186.47 116.56C186.011 116.848 185.494 116.992 184.918 116.992ZM194.373 107.84H195.573V106.08H194.373V107.84ZM194.373 118H195.573V109.424H194.373V118ZM201.309 118.096C201.405 118.096 201.533 118.091 201.693 118.08C201.853 118.069 201.997 118.048 202.125 118.016V116.928C202.04 116.939 201.938 116.949 201.821 116.96C201.704 116.971 201.602 116.976 201.517 116.976C200.984 116.976 200.616 116.837 200.413 116.56C200.21 116.283 200.109 115.931 200.109 115.504V110.624H201.997V109.424H200.109V107.44H198.909V108.16C198.909 108.523 198.802 108.827 198.589 109.072C198.376 109.307 198.088 109.424 197.725 109.424H197.325V110.624H198.909V115.504C198.909 116.336 199.117 116.976 199.533 117.424C199.949 117.872 200.541 118.096 201.309 118.096ZM204.28 109.76C204.813 109.632 205.213 109.365 205.48 108.96C205.747 108.555 205.88 108.043 205.88 107.424V106.08H204.6V107.84H205.288C205.277 108.203 205.187 108.512 205.016 108.768C204.845 109.024 204.6 109.195 204.28 109.28V109.76ZM211.521 118.192C212.118 118.192 212.646 118.091 213.105 117.888C213.563 117.675 213.921 117.381 214.177 117.008C214.443 116.635 214.577 116.213 214.577 115.744C214.577 115.168 214.379 114.667 213.985 114.24C213.601 113.813 213.062 113.499 212.369 113.296L210.945 112.88C210.795 112.837 210.619 112.773 210.417 112.688C210.225 112.603 210.054 112.475 209.905 112.304C209.755 112.133 209.681 111.904 209.681 111.616C209.681 111.243 209.825 110.933 210.113 110.688C210.401 110.443 210.785 110.32 211.265 110.32C211.755 110.32 212.198 110.459 212.593 110.736C212.998 111.003 213.307 111.376 213.521 111.856L214.545 111.376C214.299 110.704 213.878 110.181 213.281 109.808C212.694 109.424 212.038 109.232 211.312 109.232C210.779 109.232 210.294 109.333 209.857 109.536C209.419 109.739 209.073 110.027 208.817 110.4C208.561 110.773 208.433 111.211 208.433 111.712C208.433 112.245 208.609 112.715 208.961 113.12C209.313 113.525 209.883 113.84 210.673 114.064L211.905 114.416C212.075 114.459 212.273 114.528 212.497 114.624C212.721 114.72 212.918 114.859 213.089 115.04C213.259 115.211 213.345 115.445 213.345 115.744C213.345 116.149 213.169 116.48 212.817 116.736C212.465 116.981 212.033 117.104 211.521 117.104C210.987 117.104 210.497 116.949 210.049 116.64C209.611 116.331 209.27 115.915 209.025 115.392L208.017 115.872C208.294 116.587 208.742 117.152 209.361 117.568C209.979 117.984 210.699 118.192 211.521 118.192ZM3.712 142.192C4.37333 142.192 4.97067 142.059 5.504 141.792C6.03733 141.525 6.44267 141.184 6.72 140.768V142H7.92V136.112C7.92 135.547 7.78133 135.051 7.504 134.624C7.23733 134.187 6.85867 133.845 6.368 133.6C5.888 133.355 5.33333 133.232 4.704 133.232C4.224 133.232 3.76 133.323 3.312 133.504C2.864 133.675 2.464 133.909 2.112 134.208C1.77067 134.507 1.52 134.837 1.36 135.2L2.448 135.792C2.64 135.376 2.93333 135.04 3.328 134.784C3.72267 134.517 4.18133 134.384 4.704 134.384C5.30133 134.384 5.78667 134.544 6.16 134.864C6.53333 135.184 6.72 135.6 6.72 136.112V136.56L3.616 137.072C2.66667 137.232 1.97333 137.557 1.536 138.048C1.09867 138.539 0.88 139.115 0.88 139.776C0.88 140.245 1.00267 140.661 1.248 141.024C1.49333 141.387 1.82933 141.675 2.256 141.888C2.68267 142.091 3.168 142.192 3.712 142.192ZM2.16 139.728C2.16 139.333 2.29333 138.992 2.56 138.704C2.83733 138.416 3.28533 138.219 3.904 138.112L6.72 137.648V138.288C6.72 138.811 6.59733 139.285 6.352 139.712C6.10667 140.139 5.76533 140.48 5.328 140.736C4.89067 140.981 4.37867 141.104 3.792 141.104C3.312 141.104 2.91733 140.971 2.608 140.704C2.30933 140.437 2.16 140.112 2.16 139.728ZM10.3883 142H11.5883V136.896C11.5883 136.128 11.7963 135.525 12.2123 135.088C12.6283 134.651 13.1456 134.432 13.7643 134.432C14.3829 134.432 14.8949 134.651 15.3003 135.088C15.7056 135.515 15.9083 136.117 15.9083 136.896V142H17.1083V136.896C17.1083 136.128 17.3163 135.525 17.7323 135.088C18.1483 134.651 18.6656 134.432 19.2843 134.432C19.9029 134.432 20.4149 134.651 20.8203 135.088C21.2256 135.515 21.4283 136.117 21.4283 136.896V142H22.6283V136.432C22.6283 135.824 22.4789 135.28 22.1803 134.8C21.8923 134.309 21.5029 133.925 21.0123 133.648C20.5323 133.371 20.0043 133.232 19.4283 133.232C18.8523 133.232 18.3189 133.371 17.8283 133.648C17.3483 133.925 16.9803 134.331 16.7243 134.864C16.4576 134.373 16.0789 133.979 15.5883 133.68C15.0976 133.381 14.5589 133.232 13.9723 133.232C13.4816 133.232 13.0229 133.344 12.5963 133.568C12.1803 133.781 11.8443 134.085 11.5883 134.48V133.424H10.3883V142ZM27.3995 142.192C28.0608 142.192 28.6582 142.059 29.1915 141.792C29.7248 141.525 30.1302 141.184 30.4075 140.768V142H31.6075V136.112C31.6075 135.547 31.4688 135.051 31.1915 134.624C30.9248 134.187 30.5462 133.845 30.0555 133.6C29.5755 133.355 29.0208 133.232 28.3915 133.232C27.9115 133.232 27.4475 133.323 26.9995 133.504C26.5515 133.675 26.1515 133.909 25.7995 134.208C25.4582 134.507 25.2075 134.837 25.0475 135.2L26.1355 135.792C26.3275 135.376 26.6208 135.04 27.0155 134.784C27.4102 134.517 27.8688 134.384 28.3915 134.384C28.9888 134.384 29.4742 134.544 29.8475 134.864C30.2208 135.184 30.4075 135.6 30.4075 136.112V136.56L27.3035 137.072C26.3542 137.232 25.6608 137.557 25.2235 138.048C24.7862 138.539 24.5675 139.115 24.5675 139.776C24.5675 140.245 24.6902 140.661 24.9355 141.024C25.1808 141.387 25.5168 141.675 25.9435 141.888C26.3702 142.091 26.8555 142.192 27.3995 142.192ZM25.8475 139.728C25.8475 139.333 25.9808 138.992 26.2475 138.704C26.5248 138.416 26.9728 138.219 27.5915 138.112L30.4075 137.648V138.288C30.4075 138.811 30.2848 139.285 30.0395 139.712C29.7942 140.139 29.4528 140.48 29.0155 140.736C28.5782 140.981 28.0662 141.104 27.4795 141.104C26.9995 141.104 26.6048 140.971 26.2955 140.704C25.9968 140.437 25.8475 140.112 25.8475 139.728ZM33.1958 142H39.6758V140.8H34.8438L39.6438 134.464V133.424H33.4678V134.624H38.0118L33.1958 140.96V142ZM41.2633 131.84H42.4633V130.08H41.2633V131.84ZM41.2633 142H42.4633V133.424H41.2633V142ZM44.9195 142H46.1195V136.896C46.1195 136.128 46.3328 135.525 46.7595 135.088C47.1862 134.651 47.7248 134.432 48.3755 134.432C49.0368 134.432 49.5702 134.651 49.9755 135.088C50.3915 135.515 50.5995 136.117 50.5995 136.896V142H51.7995V136.432C51.7995 135.824 51.6555 135.28 51.3675 134.8C51.0902 134.309 50.7062 133.925 50.2155 133.648C49.7355 133.371 49.1915 133.232 48.5835 133.232C48.0502 133.232 47.5702 133.344 47.1435 133.568C46.7168 133.792 46.3755 134.096 46.1195 134.48V133.424H44.9195V142ZM58.1554 145.52C58.9447 145.52 59.6434 145.349 60.2514 145.008C60.87 144.677 61.35 144.219 61.6914 143.632C62.0434 143.056 62.2194 142.4 62.2194 141.664V133.424H61.0194V134.72C60.678 134.261 60.2407 133.899 59.7074 133.632C59.174 133.365 58.5927 133.232 57.9634 133.232C57.1527 133.232 56.4274 133.424 55.7874 133.808C55.158 134.192 54.6567 134.709 54.2834 135.36C53.9207 136.011 53.7394 136.741 53.7394 137.552C53.7394 138.352 53.9207 139.083 54.2834 139.744C54.6567 140.395 55.1634 140.912 55.8034 141.296C56.4434 141.68 57.1634 141.872 57.9634 141.872C58.5927 141.872 59.1794 141.733 59.7234 141.456C60.2674 141.179 60.6994 140.789 61.0194 140.288V141.664C61.0194 142.24 60.886 142.725 60.6194 143.12C60.3527 143.515 60.0007 143.813 59.5634 144.016C59.126 144.219 58.646 144.32 58.1234 144.32C57.4407 144.32 56.8807 144.171 56.4434 143.872C56.006 143.573 55.702 143.221 55.5314 142.816L54.4274 143.408C54.7154 144.027 55.1847 144.533 55.8354 144.928C56.4967 145.323 57.27 145.52 58.1554 145.52ZM58.0274 140.672C57.4514 140.672 56.934 140.533 56.4754 140.256C56.0274 139.968 55.67 139.589 55.4034 139.12C55.1474 138.64 55.0194 138.117 55.0194 137.552C55.0194 136.976 55.1474 136.453 55.4034 135.984C55.67 135.515 56.0327 135.141 56.4914 134.864C56.95 134.576 57.462 134.432 58.0274 134.432C58.582 134.432 59.0834 134.576 59.5314 134.864C59.9794 135.141 60.3367 135.52 60.6034 136C60.8807 136.469 61.0194 136.987 61.0194 137.552C61.0194 138.117 60.8807 138.64 60.6034 139.12C60.3367 139.589 59.9794 139.968 59.5314 140.256C59.0834 140.533 58.582 140.672 58.0274 140.672ZM70.6839 142.096C70.7799 142.096 70.9079 142.091 71.0679 142.08C71.2279 142.069 71.3719 142.048 71.4999 142.016V140.928C71.4145 140.939 71.3132 140.949 71.1959 140.96C71.0785 140.971 70.9772 140.976 70.8919 140.976C70.3585 140.976 69.9905 140.837 69.7879 140.56C69.5852 140.283 69.4839 139.931 69.4839 139.504V134.624H71.3719V133.424H69.4839V131.44H68.2839V132.16C68.2839 132.523 68.1772 132.827 67.9639 133.072C67.7505 133.307 67.4625 133.424 67.0999 133.424H66.6999V134.624H68.2839V139.504C68.2839 140.336 68.4919 140.976 68.9079 141.424C69.3239 141.872 69.9159 142.096 70.6839 142.096ZM73.607 142H74.807V136.896C74.807 136.128 75.0203 135.525 75.447 135.088C75.8843 134.651 76.423 134.432 77.063 134.432C77.703 134.432 78.231 134.651 78.647 135.088C79.0737 135.515 79.287 136.117 79.287 136.896V142H80.487V136.432C80.487 135.824 80.343 135.28 80.055 134.8C79.7777 134.309 79.3937 133.925 78.903 133.648C78.423 133.371 77.879 133.232 77.271 133.232C76.7377 133.232 76.2577 133.344 75.831 133.568C75.4043 133.792 75.063 134.096 74.807 134.48V130.08H73.607V142ZM86.6829 142.192C87.2695 142.192 87.8029 142.096 88.2829 141.904C88.7735 141.701 89.1949 141.44 89.5469 141.12C89.8989 140.789 90.1602 140.432 90.3309 140.048L89.3069 139.504C89.0402 139.952 88.6935 140.325 88.2669 140.624C87.8402 140.923 87.3122 141.072 86.6829 141.072C86.1709 141.072 85.6909 140.949 85.2429 140.704C84.7949 140.459 84.4269 140.117 84.1389 139.68C83.8615 139.232 83.7122 138.699 83.6909 138.08H90.4429C90.4642 137.941 90.4802 137.808 90.4909 137.68C90.5015 137.541 90.5069 137.419 90.5069 137.312C90.5069 136.8 90.4162 136.304 90.2349 135.824C90.0535 135.333 89.7922 134.896 89.4509 134.512C89.1095 134.117 88.6935 133.808 88.2029 133.584C87.7229 133.349 87.1735 133.232 86.5549 133.232C85.7762 133.232 85.0722 133.424 84.4429 133.808C83.8242 134.192 83.3335 134.72 82.9709 135.392C82.6082 136.053 82.4269 136.816 82.4269 137.68C82.4269 138.544 82.6135 139.317 82.9869 140C83.3602 140.683 83.8669 141.221 84.5069 141.616C85.1575 142 85.8829 142.192 86.6829 142.192ZM86.5549 134.352C87.0349 134.352 87.4722 134.464 87.8669 134.688C88.2722 134.912 88.5922 135.221 88.8269 135.616C89.0722 136 89.2002 136.448 89.2109 136.96H83.7229C83.7869 136.427 83.9522 135.968 84.2189 135.584C84.4962 135.189 84.8375 134.885 85.2429 134.672C85.6482 134.459 86.0855 134.352 86.5549 134.352ZM95.3414 145.2H96.5414V140.608C96.8614 141.109 97.2987 141.499 97.8534 141.776C98.408 142.053 99.016 142.192 99.6774 142.192C100.488 142.192 101.208 142 101.837 141.616C102.477 141.221 102.979 140.688 103.341 140.016C103.715 139.333 103.901 138.565 103.901 137.712C103.901 136.848 103.715 136.08 103.341 135.408C102.979 134.736 102.477 134.208 101.837 133.824C101.208 133.429 100.488 133.232 99.6774 133.232C99.0054 133.232 98.4027 133.365 97.8694 133.632C97.336 133.899 96.8934 134.261 96.5414 134.72V133.424H95.3414V145.2ZM99.6134 140.992C99.0374 140.992 98.5147 140.848 98.0454 140.56C97.5867 140.272 97.2187 139.883 96.9414 139.392C96.6747 138.891 96.5414 138.331 96.5414 137.712C96.5414 137.093 96.6747 136.539 96.9414 136.048C97.2187 135.547 97.5867 135.152 98.0454 134.864C98.5147 134.576 99.0374 134.432 99.6134 134.432C100.189 134.432 100.701 134.576 101.149 134.864C101.608 135.152 101.965 135.541 102.221 136.032C102.488 136.523 102.621 137.083 102.621 137.712C102.621 138.331 102.488 138.891 102.221 139.392C101.965 139.883 101.608 140.272 101.149 140.56C100.701 140.848 100.189 140.992 99.6134 140.992ZM110.029 142.192C110.829 142.192 111.555 142 112.205 141.616C112.867 141.232 113.395 140.704 113.789 140.032C114.184 139.349 114.381 138.571 114.381 137.696C114.381 136.832 114.189 136.064 113.805 135.392C113.432 134.72 112.915 134.192 112.253 133.808C111.603 133.424 110.861 133.232 110.029 133.232C109.197 133.232 108.451 133.429 107.789 133.824C107.139 134.208 106.621 134.736 106.237 135.408C105.853 136.08 105.661 136.843 105.661 137.696C105.661 138.56 105.853 139.333 106.237 140.016C106.632 140.688 107.16 141.221 107.821 141.616C108.483 142 109.219 142.192 110.029 142.192ZM110.029 140.992C109.453 140.992 108.931 140.848 108.461 140.56C108.003 140.272 107.635 139.877 107.357 139.376C107.08 138.875 106.941 138.315 106.941 137.696C106.941 137.077 107.08 136.523 107.357 136.032C107.635 135.541 108.003 135.152 108.461 134.864C108.931 134.576 109.453 134.432 110.029 134.432C110.605 134.432 111.123 134.576 111.581 134.864C112.051 135.152 112.419 135.541 112.685 136.032C112.963 136.523 113.101 137.077 113.101 137.696C113.101 138.315 112.963 138.875 112.685 139.376C112.419 139.877 112.051 140.272 111.581 140.56C111.123 140.848 110.605 140.992 110.029 140.992ZM118.229 142H119.429L121.493 135.216L123.541 142H124.741L127.685 133.424H126.341L124.149 140.16L122.085 133.424H120.885L118.837 140.16L116.645 133.424H115.285L118.229 142ZM132.839 142.192C133.426 142.192 133.959 142.096 134.439 141.904C134.93 141.701 135.351 141.44 135.703 141.12C136.055 140.789 136.316 140.432 136.487 140.048L135.463 139.504C135.196 139.952 134.85 140.325 134.423 140.624C133.996 140.923 133.468 141.072 132.839 141.072C132.327 141.072 131.847 140.949 131.399 140.704C130.951 140.459 130.583 140.117 130.295 139.68C130.018 139.232 129.868 138.699 129.847 138.08H136.599C136.62 137.941 136.636 137.808 136.647 137.68C136.658 137.541 136.663 137.419 136.663 137.312C136.663 136.8 136.572 136.304 136.391 135.824C136.21 135.333 135.948 134.896 135.607 134.512C135.266 134.117 134.85 133.808 134.359 133.584C133.879 133.349 133.33 133.232 132.711 133.232C131.932 133.232 131.228 133.424 130.599 133.808C129.98 134.192 129.49 134.72 129.127 135.392C128.764 136.053 128.583 136.816 128.583 137.68C128.583 138.544 128.77 139.317 129.143 140C129.516 140.683 130.023 141.221 130.663 141.616C131.314 142 132.039 142.192 132.839 142.192ZM132.711 134.352C133.191 134.352 133.628 134.464 134.023 134.688C134.428 134.912 134.748 135.221 134.983 135.616C135.228 136 135.356 136.448 135.367 136.96H129.879C129.943 136.427 130.108 135.968 130.375 135.584C130.652 135.189 130.994 134.885 131.399 134.672C131.804 134.459 132.242 134.352 132.711 134.352ZM138.779 142H139.979V136.72C139.979 136.016 140.166 135.472 140.539 135.088C140.912 134.704 141.408 134.512 142.027 134.512H142.779V133.312H142.235C141.712 133.312 141.259 133.403 140.875 133.584C140.502 133.765 140.203 134.021 139.979 134.352V133.424H138.779V142ZM150.92 142.192C151.72 142.192 152.445 142 153.096 141.616C153.757 141.232 154.285 140.704 154.68 140.032C155.075 139.349 155.272 138.571 155.272 137.696C155.272 136.832 155.08 136.064 154.696 135.392C154.323 134.72 153.805 134.192 153.144 133.808C152.493 133.424 151.752 133.232 150.92 133.232C150.088 133.232 149.341 133.429 148.68 133.824C148.029 134.208 147.512 134.736 147.128 135.408C146.744 136.08 146.552 136.843 146.552 137.696C146.552 138.56 146.744 139.333 147.128 140.016C147.523 140.688 148.051 141.221 148.712 141.616C149.373 142 150.109 142.192 150.92 142.192ZM150.92 140.992C150.344 140.992 149.821 140.848 149.352 140.56C148.893 140.272 148.525 139.877 148.248 139.376C147.971 138.875 147.832 138.315 147.832 137.696C147.832 137.077 147.971 136.523 148.248 136.032C148.525 135.541 148.893 135.152 149.352 134.864C149.821 134.576 150.344 134.432 150.92 134.432C151.496 134.432 152.013 134.576 152.472 134.864C152.941 135.152 153.309 135.541 153.576 136.032C153.853 136.523 153.992 137.077 153.992 137.696C153.992 138.315 153.853 138.875 153.576 139.376C153.309 139.877 152.941 140.272 152.472 140.56C152.013 140.848 151.496 140.992 150.92 140.992ZM157.956 142H159.156V134.624H161.252V133.424H159.156V132.656C159.156 132.048 159.326 131.621 159.668 131.376C160.009 131.131 160.436 131.008 160.948 131.008C161.001 131.008 161.092 131.013 161.22 131.024C161.348 131.024 161.449 131.035 161.524 131.056V129.968C161.438 129.947 161.326 129.931 161.188 129.92C161.049 129.899 160.926 129.888 160.82 129.888C160.318 129.888 159.849 129.995 159.412 130.208C158.974 130.421 158.622 130.736 158.356 131.152C158.089 131.557 157.956 132.059 157.956 132.656V133.424H156.244V134.624H157.956V142ZM169.356 142.096C169.452 142.096 169.58 142.091 169.74 142.08C169.9 142.069 170.044 142.048 170.172 142.016V140.928C170.086 140.939 169.985 140.949 169.868 140.96C169.75 140.971 169.649 140.976 169.564 140.976C169.03 140.976 168.662 140.837 168.46 140.56C168.257 140.283 168.156 139.931 168.156 139.504V134.624H170.044V133.424H168.156V131.44H166.956V132.16C166.956 132.523 166.849 132.827 166.636 133.072C166.422 133.307 166.134 133.424 165.772 133.424H165.372V134.624H166.956V139.504C166.956 140.336 167.164 140.976 167.58 141.424C167.996 141.872 168.588 142.096 169.356 142.096ZM172.279 142H173.479V136.896C173.479 136.128 173.692 135.525 174.119 135.088C174.556 134.651 175.095 134.432 175.735 134.432C176.375 134.432 176.903 134.651 177.319 135.088C177.746 135.515 177.959 136.117 177.959 136.896V142H179.159V136.432C179.159 135.824 179.015 135.28 178.727 134.8C178.45 134.309 178.066 133.925 177.575 133.648C177.095 133.371 176.551 133.232 175.943 133.232C175.41 133.232 174.93 133.344 174.503 133.568C174.076 133.792 173.735 134.096 173.479 134.48V130.08H172.279V142ZM181.451 142H182.651V136.72C182.651 136.016 182.837 135.472 183.211 135.088C183.584 134.704 184.08 134.512 184.699 134.512H185.451V133.312H184.907C184.384 133.312 183.931 133.403 183.547 133.584C183.173 133.765 182.875 134.021 182.651 134.352V133.424H181.451V142ZM190.761 142.192C191.348 142.192 191.881 142.096 192.361 141.904C192.852 141.701 193.273 141.44 193.625 141.12C193.977 140.789 194.238 140.432 194.409 140.048L193.385 139.504C193.118 139.952 192.772 140.325 192.345 140.624C191.918 140.923 191.39 141.072 190.761 141.072C190.249 141.072 189.769 140.949 189.321 140.704C188.873 140.459 188.505 140.117 188.217 139.68C187.94 139.232 187.79 138.699 187.769 138.08H194.521C194.542 137.941 194.558 137.808 194.569 137.68C194.58 137.541 194.585 137.419 194.585 137.312C194.585 136.8 194.494 136.304 194.313 135.824C194.132 135.333 193.87 134.896 193.529 134.512C193.188 134.117 192.772 133.808 192.281 133.584C191.801 133.349 191.252 133.232 190.633 133.232C189.854 133.232 189.15 133.424 188.521 133.808C187.902 134.192 187.412 134.72 187.049 135.392C186.686 136.053 186.505 136.816 186.505 137.68C186.505 138.544 186.692 139.317 187.065 140C187.438 140.683 187.945 141.221 188.585 141.616C189.236 142 189.961 142.192 190.761 142.192ZM190.633 134.352C191.113 134.352 191.55 134.464 191.945 134.688C192.35 134.912 192.67 135.221 192.905 135.616C193.15 136 193.278 136.448 193.289 136.96H187.801C187.865 136.427 188.03 135.968 188.297 135.584C188.574 135.189 188.916 134.885 189.321 134.672C189.726 134.459 190.164 134.352 190.633 134.352ZM200.605 142.192C201.191 142.192 201.725 142.096 202.205 141.904C202.695 141.701 203.117 141.44 203.469 141.12C203.821 140.789 204.082 140.432 204.253 140.048L203.229 139.504C202.962 139.952 202.615 140.325 202.189 140.624C201.762 140.923 201.234 141.072 200.605 141.072C200.093 141.072 199.613 140.949 199.165 140.704C198.717 140.459 198.349 140.117 198.061 139.68C197.783 139.232 197.634 138.699 197.613 138.08H204.365C204.386 137.941 204.402 137.808 204.413 137.68C204.423 137.541 204.429 137.419 204.429 137.312C204.429 136.8 204.338 136.304 204.157 135.824C203.975 135.333 203.714 134.896 203.373 134.512C203.031 134.117 202.615 133.808 202.125 133.584C201.645 133.349 201.095 133.232 200.477 133.232C199.698 133.232 198.994 133.424 198.365 133.808C197.746 134.192 197.255 134.72 196.893 135.392C196.53 136.053 196.349 136.816 196.349 137.68C196.349 138.544 196.535 139.317 196.909 140C197.282 140.683 197.789 141.221 198.429 141.616C199.079 142 199.805 142.192 200.605 142.192ZM200.477 134.352C200.957 134.352 201.394 134.464 201.789 134.688C202.194 134.912 202.514 135.221 202.749 135.616C202.994 136 203.122 136.448 203.133 136.96H197.645C197.709 136.427 197.874 135.968 198.141 135.584C198.418 135.189 198.759 134.885 199.165 134.672C199.57 134.459 200.007 134.352 200.477 134.352ZM213.135 142.192C213.797 142.192 214.405 142.053 214.959 141.776C215.514 141.499 215.951 141.109 216.271 140.608V142H217.471V130.08H216.271V134.72C215.919 134.261 215.477 133.899 214.943 133.632C214.41 133.365 213.807 133.232 213.135 133.232C212.325 133.232 211.599 133.429 210.959 133.824C210.33 134.208 209.829 134.736 209.455 135.408C209.093 136.08 208.911 136.848 208.911 137.712C208.911 138.565 209.093 139.333 209.455 140.016C209.829 140.688 210.335 141.221 210.975 141.616C211.615 142 212.335 142.192 213.135 142.192ZM213.199 140.992C212.623 140.992 212.106 140.848 211.647 140.56C211.199 140.272 210.842 139.883 210.575 139.392C210.319 138.891 210.191 138.331 210.191 137.712C210.191 137.083 210.319 136.523 210.575 136.032C210.842 135.541 211.205 135.152 211.663 134.864C212.122 134.576 212.634 134.432 213.199 134.432C213.775 134.432 214.293 134.576 214.751 134.864C215.221 135.152 215.589 135.547 215.855 136.048C216.133 136.539 216.271 137.093 216.271 137.712C216.271 138.331 216.133 138.891 215.855 139.392C215.589 139.883 215.221 140.272 214.751 140.56C214.293 140.848 213.775 140.992 213.199 140.992ZM222.911 142.192C223.508 142.192 224.036 142.091 224.495 141.888C224.954 141.675 225.311 141.381 225.567 141.008C225.834 140.635 225.967 140.213 225.967 139.744C225.967 139.168 225.77 138.667 225.375 138.24C224.991 137.813 224.452 137.499 223.759 137.296L222.335 136.88C222.186 136.837 222.01 136.773 221.807 136.688C221.615 136.603 221.444 136.475 221.295 136.304C221.146 136.133 221.071 135.904 221.071 135.616C221.071 135.243 221.215 134.933 221.503 134.688C221.791 134.443 222.175 134.32 222.655 134.32C223.146 134.32 223.588 134.459 223.983 134.736C224.388 135.003 224.698 135.376 224.911 135.856L225.935 135.376C225.69 134.704 225.268 134.181 224.671 133.808C224.084 133.424 223.428 133.232 222.703 133.232C222.17 133.232 221.684 133.333 221.247 133.536C220.81 133.739 220.463 134.027 220.207 134.4C219.951 134.773 219.823 135.211 219.823 135.712C219.823 136.245 219.999 136.715 220.351 137.12C220.703 137.525 221.274 137.84 222.063 138.064L223.295 138.416C223.466 138.459 223.663 138.528 223.887 138.624C224.111 138.72 224.308 138.859 224.479 139.04C224.65 139.211 224.735 139.445 224.735 139.744C224.735 140.149 224.559 140.48 224.207 140.736C223.855 140.981 223.423 141.104 222.911 141.104C222.378 141.104 221.887 140.949 221.439 140.64C221.002 140.331 220.66 139.915 220.415 139.392L219.407 139.872C219.684 140.587 220.132 141.152 220.751 141.568C221.37 141.984 222.09 142.192 222.911 142.192ZM228.492 142H229.772V140.24H228.492V142Z" fill="#072125"/>
<rect x="1" width="44" height="44" rx="12" fill="#DCF2ED"/>
<g clip-path="url(#clip0_1376_491)">
<path d="M18.52 31.48C15.25 29.94 12.91 26.76 12.55 23H11.05C11.56 29.16 16.71 34 23 34L23.66 33.97L19.85 30.16L18.52 31.48ZM19.41 24.96C19.22 24.96 19.04 24.93 18.89 24.88C18.73 24.82 18.6 24.75 18.49 24.64C18.38 24.54 18.29 24.42 18.23 24.27C18.17 24.13 18.14 23.97 18.14 23.8H16.84C16.84 24.16 16.91 24.48 17.05 24.75C17.19 25.02 17.38 25.25 17.61 25.44C17.85 25.62 18.12 25.76 18.43 25.85C18.73 25.95 19.05 26 19.39 26C19.76 26 20.11 25.95 20.42 25.85C20.74 25.75 21.02 25.6 21.25 25.41C21.48 25.22 21.67 24.98 21.8 24.69C21.93 24.4 22 24.08 22 23.72C22 23.53 21.98 23.34 21.93 23.16C21.88 22.98 21.81 22.81 21.7 22.65C21.6 22.49 21.46 22.35 21.3 22.22C21.13 22.09 20.93 21.99 20.69 21.91C20.89 21.82 21.06 21.71 21.21 21.58C21.36 21.45 21.48 21.31 21.58 21.16C21.68 21.01 21.75 20.86 21.8 20.7C21.85 20.54 21.87 20.38 21.87 20.22C21.87 19.86 21.81 19.54 21.69 19.26C21.57 18.98 21.4 18.75 21.18 18.57C20.98 18.38 20.71 18.24 20.41 18.14C20.1 18.05 19.76 18 19.39 18C19.03 18 18.7 18.05 18.39 18.16C18.09 18.27 17.82 18.42 17.6 18.61C17.39 18.8 17.22 19.02 17.09 19.28C16.97 19.54 16.91 19.82 16.91 20.13H18.21C18.21 19.96 18.24 19.81 18.3 19.68C18.36 19.55 18.44 19.43 18.55 19.34C18.66 19.25 18.78 19.17 18.93 19.12C19.08 19.07 19.23 19.04 19.41 19.04C19.81 19.04 20.11 19.14 20.3 19.35C20.49 19.55 20.59 19.84 20.59 20.21C20.59 20.39 20.56 20.55 20.51 20.7C20.46 20.85 20.37 20.97 20.26 21.07C20.15 21.17 20.01 21.25 19.85 21.31C19.69 21.37 19.49 21.4 19.27 21.4H18.5V22.43H19.27C19.49 22.43 19.69 22.45 19.87 22.5C20.05 22.55 20.2 22.63 20.32 22.73C20.44 22.84 20.54 22.97 20.61 23.13C20.68 23.29 20.71 23.48 20.71 23.7C20.71 24.11 20.59 24.42 20.36 24.63C20.13 24.86 19.81 24.96 19.41 24.96ZM27.96 19.04C27.64 18.71 27.26 18.45 26.82 18.27C26.39 18.09 25.9 18 25.36 18H23V26H25.3C25.85 26 26.36 25.91 26.81 25.73C27.26 25.55 27.65 25.3 27.97 24.97C28.29 24.64 28.54 24.24 28.71 23.78C28.88 23.31 28.97 22.79 28.97 22.21V21.81C28.97 21.23 28.88 20.71 28.71 20.24C28.53 19.77 28.28 19.37 27.96 19.04ZM27.57 22.2C27.57 22.62 27.5201 22.99 27.43 23.33C27.33 23.66 27.19 23.95 27 24.18C26.81 24.41 26.57 24.59 26.29 24.71C26 24.83 25.67 24.89 25.3 24.89H24.39V19.12H25.36C26.08 19.12 26.63 19.35 27 19.81C27.38 20.27 27.57 20.93 27.57 21.8V22.2ZM23 10L22.34 10.03L26.15 13.84L27.48 12.51C30.75 14.06 33.09 17.23 33.4401 20.99H34.9401C34.4401 14.84 29.29 10 23 10Z" fill="#20484F"/>
</g>
<path d="M6.274 83.216C7.21 83.216 8.038 83.018 8.758 82.622C9.49 82.214 10.066 81.668 10.486 80.984C10.906 80.3 11.116 79.526 11.116 78.662C11.116 77.606 10.81 76.73 10.198 76.034C9.598 75.326 8.8 74.894 7.804 74.738L10.558 71.516V69.59H2.332V71.66H7.804L4.33 75.62L4.888 76.79C5.296 76.598 5.752 76.502 6.256 76.502C6.988 76.502 7.57 76.7 8.002 77.096C8.446 77.492 8.668 78.038 8.668 78.734C8.668 79.43 8.446 79.988 8.002 80.408C7.558 80.816 6.982 81.02 6.274 81.02C5.686 81.02 5.164 80.858 4.708 80.534C4.264 80.21 3.934 79.742 3.718 79.13L1.576 79.886C1.744 80.558 2.056 81.146 2.512 81.65C2.98 82.154 3.538 82.544 4.186 82.82C4.846 83.084 5.542 83.216 6.274 83.216ZM13.2999 83H17.6739C19.0899 83 20.3199 82.712 21.3639 82.136C22.4199 81.56 23.2359 80.768 23.8119 79.76C24.3879 78.752 24.6759 77.594 24.6759 76.286C24.6759 74.966 24.3879 73.808 23.8119 72.812C23.2359 71.804 22.4259 71.018 21.3819 70.454C20.3379 69.878 19.1019 69.59 17.6739 69.59H13.2999V83ZM15.7479 80.84V71.75H17.7279C18.6399 71.75 19.4259 71.936 20.0859 72.308C20.7579 72.68 21.2799 73.208 21.6519 73.892C22.0239 74.564 22.2099 75.362 22.2099 76.286C22.2099 77.21 22.0239 78.014 21.6519 78.698C21.2919 79.382 20.7759 79.91 20.1039 80.282C19.4319 80.654 18.6399 80.84 17.7279 80.84H15.7479ZM29.6253 83H31.9833V77.546C31.9833 76.802 32.1873 76.226 32.5953 75.818C33.0153 75.398 33.5553 75.188 34.2153 75.188H35.0613V73.1H34.4853C33.8853 73.1 33.3573 73.208 32.9013 73.424C32.4453 73.64 32.0913 74.03 31.8393 74.594V73.208H29.6253V83ZM41.1458 83.216C42.0938 83.216 42.9578 83 43.7378 82.568C44.5178 82.124 45.1418 81.518 45.6098 80.75C46.0778 79.97 46.3118 79.088 46.3118 78.104C46.3118 77.12 46.0778 76.244 45.6098 75.476C45.1538 74.708 44.5358 74.102 43.7558 73.658C42.9758 73.214 42.1058 72.992 41.1458 72.992C40.1738 72.992 39.2978 73.214 38.5178 73.658C37.7378 74.102 37.1138 74.708 36.6458 75.476C36.1898 76.244 35.9618 77.12 35.9618 78.104C35.9618 79.088 36.1898 79.964 36.6458 80.732C37.1138 81.5 37.7378 82.106 38.5178 82.55C39.3098 82.994 40.1858 83.216 41.1458 83.216ZM41.1458 81.056C40.6178 81.056 40.1438 80.93 39.7238 80.678C39.3158 80.426 38.9918 80.078 38.7518 79.634C38.5238 79.178 38.4098 78.668 38.4098 78.104C38.4098 77.54 38.5238 77.036 38.7518 76.592C38.9918 76.148 39.3158 75.8 39.7238 75.548C40.1438 75.284 40.6178 75.152 41.1458 75.152C41.6738 75.152 42.1358 75.284 42.5318 75.548C42.9398 75.8 43.2578 76.148 43.4858 76.592C43.7258 77.036 43.8458 77.54 43.8458 78.104C43.8458 78.668 43.7258 79.178 43.4858 79.634C43.2578 80.078 42.9398 80.426 42.5318 80.678C42.1358 80.93 41.6738 81.056 41.1458 81.056ZM52.3882 83.108C52.7842 83.108 53.1742 83.078 53.5582 83.018V80.984C53.3302 81.02 53.1202 81.038 52.9282 81.038C52.3522 81.038 51.9322 80.906 51.6682 80.642C51.4042 80.378 51.2722 80 51.2722 79.508V75.314H53.5222V73.208H51.2722V70.976H48.9142V71.732C48.9142 72.212 48.7822 72.578 48.5182 72.83C48.2542 73.082 47.8822 73.208 47.4022 73.208H47.2222V75.314H48.9142V79.634C48.9142 80.726 49.2142 81.578 49.8142 82.19C50.4262 82.802 51.2842 83.108 52.3882 83.108ZM58.277 83.216C59.549 83.216 60.569 82.796 61.337 81.956V83H63.569V76.484C63.569 75.8 63.395 75.194 63.047 74.666C62.699 74.138 62.219 73.73 61.607 73.442C61.007 73.142 60.305 72.992 59.501 72.992C58.517 72.992 57.641 73.226 56.873 73.694C56.105 74.162 55.577 74.78 55.289 75.548L57.215 76.484C57.395 76.04 57.677 75.686 58.061 75.422C58.445 75.146 58.895 75.008 59.411 75.008C59.951 75.008 60.383 75.152 60.707 75.44C61.043 75.716 61.211 76.064 61.211 76.484V76.808L58.295 77.276C57.143 77.468 56.291 77.834 55.739 78.374C55.187 78.914 54.911 79.592 54.911 80.408C54.911 81.272 55.217 81.956 55.829 82.46C56.441 82.964 57.257 83.216 58.277 83.216ZM57.359 80.318C57.359 79.634 57.821 79.202 58.745 79.022L61.211 78.608V79.004C61.211 79.676 60.977 80.246 60.509 80.714C60.053 81.182 59.453 81.416 58.709 81.416C58.313 81.416 57.989 81.32 57.737 81.128C57.485 80.924 57.359 80.654 57.359 80.318ZM70.0366 83.108C70.4326 83.108 70.8226 83.078 71.2066 83.018V80.984C70.9786 81.02 70.7686 81.038 70.5766 81.038C70.0006 81.038 69.5806 80.906 69.3166 80.642C69.0526 80.378 68.9206 80 68.9206 79.508V75.314H71.1706V73.208H68.9206V70.976H66.5626V71.732C66.5626 72.212 66.4306 72.578 66.1666 72.83C65.9026 73.082 65.5306 73.208 65.0506 73.208H64.8706V75.314H66.5626V79.634C66.5626 80.726 66.8626 81.578 67.4626 82.19C68.0746 82.802 68.9326 83.108 70.0366 83.108ZM73.0082 72.11H75.3662V69.59H73.0082V72.11ZM73.0082 83H75.3662V73.208H73.0082V83ZM82.3313 83.216C83.2793 83.216 84.1433 83 84.9233 82.568C85.7033 82.124 86.3273 81.518 86.7953 80.75C87.2633 79.97 87.4973 79.088 87.4973 78.104C87.4973 77.12 87.2633 76.244 86.7953 75.476C86.3393 74.708 85.7213 74.102 84.9413 73.658C84.1613 73.214 83.2913 72.992 82.3313 72.992C81.3593 72.992 80.4833 73.214 79.7033 73.658C78.9233 74.102 78.2993 74.708 77.8313 75.476C77.3753 76.244 77.1473 77.12 77.1473 78.104C77.1473 79.088 77.3753 79.964 77.8313 80.732C78.2993 81.5 78.9233 82.106 79.7033 82.55C80.4953 82.994 81.3713 83.216 82.3313 83.216ZM82.3313 81.056C81.8033 81.056 81.3293 80.93 80.9093 80.678C80.5013 80.426 80.1773 80.078 79.9373 79.634C79.7093 79.178 79.5953 78.668 79.5953 78.104C79.5953 77.54 79.7093 77.036 79.9373 76.592C80.1773 76.148 80.5013 75.8 80.9093 75.548C81.3293 75.284 81.8033 75.152 82.3313 75.152C82.8593 75.152 83.3213 75.284 83.7173 75.548C84.1253 75.8 84.4433 76.148 84.6713 76.592C84.9113 77.036 85.0313 77.54 85.0313 78.104C85.0313 78.668 84.9113 79.178 84.6713 79.634C84.4433 80.078 84.1253 80.426 83.7173 80.678C83.3213 80.93 82.8593 81.056 82.3313 81.056ZM89.2855 83H91.6435V77.258C91.6435 76.622 91.8235 76.112 92.1835 75.728C92.5555 75.344 93.0355 75.152 93.6235 75.152C94.2115 75.152 94.6855 75.344 95.0455 75.728C95.4175 76.1 95.6035 76.61 95.6035 77.258V83H97.9615V76.7C97.9615 75.968 97.8055 75.326 97.4935 74.774C97.1815 74.21 96.7435 73.772 96.1795 73.46C95.6275 73.148 94.9915 72.992 94.2715 72.992C93.6595 72.992 93.1075 73.112 92.6155 73.352C92.1355 73.592 91.7635 73.946 91.4995 74.414V73.208H89.2855V83ZM104.289 83H106.647V75.314H108.825V73.208H106.647V72.884C106.647 72.392 106.791 72.032 107.079 71.804C107.379 71.564 107.787 71.444 108.303 71.444C108.495 71.444 108.699 71.462 108.915 71.498V69.464C108.639 69.404 108.333 69.374 107.997 69.374C106.869 69.374 105.969 69.68 105.297 70.292C104.625 70.904 104.289 71.768 104.289 72.884V73.208H102.561V75.314H104.289V83ZM114.847 83.216C115.843 83.216 116.713 82.994 117.457 82.55C118.213 82.094 118.741 81.518 119.041 80.822L117.133 79.886C116.917 80.258 116.617 80.564 116.233 80.804C115.861 81.032 115.405 81.146 114.865 81.146C114.157 81.146 113.563 80.93 113.083 80.498C112.603 80.066 112.327 79.49 112.255 78.77H119.311C119.359 78.638 119.389 78.488 119.401 78.32C119.425 78.14 119.437 77.96 119.437 77.78C119.437 76.904 119.251 76.106 118.879 75.386C118.507 74.666 117.967 74.09 117.259 73.658C116.551 73.214 115.687 72.992 114.667 72.992C113.755 72.992 112.927 73.214 112.183 73.658C111.451 74.102 110.869 74.708 110.437 75.476C110.017 76.232 109.807 77.102 109.807 78.086C109.807 79.034 110.017 79.898 110.437 80.678C110.857 81.458 111.445 82.076 112.201 82.532C112.957 82.988 113.839 83.216 114.847 83.216ZM114.667 74.936C115.291 74.936 115.807 75.128 116.215 75.512C116.635 75.884 116.869 76.37 116.917 76.97H112.309C112.441 76.322 112.717 75.824 113.137 75.476C113.569 75.116 114.079 74.936 114.667 74.936ZM124.142 83.216C125.414 83.216 126.434 82.796 127.202 81.956V83H129.434V76.484C129.434 75.8 129.26 75.194 128.912 74.666C128.564 74.138 128.084 73.73 127.472 73.442C126.872 73.142 126.17 72.992 125.366 72.992C124.382 72.992 123.506 73.226 122.738 73.694C121.97 74.162 121.442 74.78 121.154 75.548L123.08 76.484C123.26 76.04 123.542 75.686 123.926 75.422C124.31 75.146 124.76 75.008 125.276 75.008C125.816 75.008 126.248 75.152 126.572 75.44C126.908 75.716 127.076 76.064 127.076 76.484V76.808L124.16 77.276C123.008 77.468 122.156 77.834 121.604 78.374C121.052 78.914 120.776 79.592 120.776 80.408C120.776 81.272 121.082 81.956 121.694 82.46C122.306 82.964 123.122 83.216 124.142 83.216ZM123.224 80.318C123.224 79.634 123.686 79.202 124.61 79.022L127.076 78.608V79.004C127.076 79.676 126.842 80.246 126.374 80.714C125.918 81.182 125.318 81.416 124.574 81.416C124.178 81.416 123.854 81.32 123.602 81.128C123.35 80.924 123.224 80.654 123.224 80.318ZM135.902 83.108C136.298 83.108 136.688 83.078 137.072 83.018V80.984C136.844 81.02 136.634 81.038 136.442 81.038C135.866 81.038 135.446 80.906 135.182 80.642C134.918 80.378 134.786 80 134.786 79.508V75.314H137.036V73.208H134.786V70.976H132.428V71.732C132.428 72.212 132.296 72.578 132.032 72.83C131.768 73.082 131.396 73.208 130.916 73.208H130.736V75.314H132.428V79.634C132.428 80.726 132.728 81.578 133.328 82.19C133.94 82.802 134.798 83.108 135.902 83.108ZM142.365 83.216C142.977 83.216 143.517 83.102 143.985 82.874C144.465 82.634 144.843 82.286 145.119 81.83V83H147.351V73.208H144.993V78.95C144.993 79.598 144.807 80.114 144.435 80.498C144.063 80.87 143.589 81.056 143.013 81.056C142.425 81.056 141.945 80.87 141.573 80.498C141.213 80.126 141.033 79.628 141.033 79.004V73.208H138.675V79.202C138.675 80.402 138.999 81.374 139.647 82.118C140.307 82.85 141.213 83.216 142.365 83.216ZM149.543 83H151.901V77.546C151.901 76.802 152.105 76.226 152.513 75.818C152.933 75.398 153.473 75.188 154.133 75.188H154.979V73.1H154.403C153.803 73.1 153.275 73.208 152.819 73.424C152.363 73.64 152.009 74.03 151.757 74.594V73.208H149.543V83ZM160.92 83.216C161.916 83.216 162.786 82.994 163.53 82.55C164.286 82.094 164.814 81.518 165.114 80.822L163.206 79.886C162.99 80.258 162.69 80.564 162.306 80.804C161.934 81.032 161.478 81.146 160.938 81.146C160.23 81.146 159.636 80.93 159.156 80.498C158.676 80.066 158.4 79.49 158.328 78.77H165.384C165.432 78.638 165.462 78.488 165.474 78.32C165.498 78.14 165.51 77.96 165.51 77.78C165.51 76.904 165.324 76.106 164.952 75.386C164.58 74.666 164.04 74.09 163.332 73.658C162.624 73.214 161.76 72.992 160.74 72.992C159.828 72.992 159 73.214 158.256 73.658C157.524 74.102 156.942 74.708 156.51 75.476C156.09 76.232 155.88 77.102 155.88 78.086C155.88 79.034 156.09 79.898 156.51 80.678C156.93 81.458 157.518 82.076 158.274 82.532C159.03 82.988 159.912 83.216 160.92 83.216ZM160.74 74.936C161.364 74.936 161.88 75.128 162.288 75.512C162.708 75.884 162.942 76.37 162.99 76.97H158.382C158.514 76.322 158.79 75.824 159.21 75.476C159.642 75.116 160.152 74.936 160.74 74.936ZM171.023 83.216C171.767 83.216 172.415 83.09 172.967 82.838C173.519 82.586 173.951 82.238 174.263 81.794C174.575 81.338 174.731 80.816 174.731 80.228C174.731 79.544 174.515 78.956 174.083 78.464C173.651 77.972 173.027 77.612 172.211 77.384L170.645 76.916C170.309 76.82 170.033 76.694 169.817 76.538C169.601 76.382 169.493 76.166 169.493 75.89C169.493 75.602 169.607 75.368 169.835 75.188C170.063 75.008 170.375 74.918 170.771 74.918C171.263 74.918 171.707 75.05 172.103 75.314C172.511 75.578 172.793 75.932 172.949 76.376L174.749 75.53C174.449 74.738 173.945 74.12 173.237 73.676C172.529 73.22 171.713 72.992 170.789 72.992C170.081 72.992 169.451 73.118 168.899 73.37C168.359 73.622 167.933 73.976 167.621 74.432C167.321 74.876 167.171 75.398 167.171 75.998C167.171 76.67 167.381 77.252 167.801 77.744C168.233 78.236 168.863 78.602 169.691 78.842L171.293 79.292C171.605 79.376 171.869 79.502 172.085 79.67C172.313 79.826 172.427 80.042 172.427 80.318C172.427 80.642 172.295 80.9 172.031 81.092C171.779 81.272 171.443 81.362 171.023 81.362C170.471 81.362 169.973 81.206 169.529 80.894C169.085 80.582 168.731 80.15 168.467 79.598L166.703 80.444C166.991 81.284 167.519 81.956 168.287 82.46C169.067 82.964 169.979 83.216 171.023 83.216Z" fill="#072125"/>
<defs>
<clipPath id="clip0_1376_491">
<rect width="24" height="24" fill="white" transform="translate(11 10)"/>
</clipPath>
</defs>
</svg>
