<svg width="257" height="147" viewBox="0 0 257 147" fill="none" xmlns="http://www.w3.org/2000/svg">
<path d="M1.408 118H2.688V106.08H1.408V118ZM5.32575 118H6.52575V112.896C6.52575 112.128 6.73908 111.525 7.16575 111.088C7.59242 110.651 8.13108 110.432 8.78175 110.432C9.44308 110.432 9.97642 110.651 10.3818 111.088C10.7978 111.515 11.0058 112.117 11.0058 112.896V118H12.2058V112.432C12.2058 111.824 12.0618 111.28 11.7738 110.8C11.4964 110.309 11.1124 109.925 10.6218 109.648C10.1418 109.371 9.59775 109.232 8.98975 109.232C8.45642 109.232 7.97642 109.344 7.54975 109.568C7.12308 109.792 6.78175 110.096 6.52575 110.48V109.424H5.32575V118ZM17.7776 118.096C17.8736 118.096 18.0016 118.091 18.1616 118.08C18.3216 118.069 18.4656 118.048 18.5936 118.016V116.928C18.5083 116.939 18.407 116.949 18.2896 116.96C18.1723 116.971 18.071 116.976 17.9856 116.976C17.4523 116.976 17.0843 116.837 16.8816 116.56C16.679 116.283 16.5776 115.931 16.5776 115.504V110.624H18.4656V109.424H16.5776V107.44H15.3776V108.16C15.3776 108.523 15.271 108.827 15.0576 109.072C14.8443 109.307 14.5563 109.424 14.1936 109.424H13.7936V110.624H15.3776V115.504C15.3776 116.336 15.5856 116.976 16.0016 117.424C16.4176 117.872 17.0096 118.096 17.7776 118.096ZM24.2923 118.192C24.8789 118.192 25.4123 118.096 25.8923 117.904C26.3829 117.701 26.8043 117.44 27.1562 117.12C27.5083 116.789 27.7696 116.432 27.9403 116.048L26.9163 115.504C26.6496 115.952 26.3029 116.325 25.8763 116.624C25.4496 116.923 24.9216 117.072 24.2923 117.072C23.7803 117.072 23.3003 116.949 22.8523 116.704C22.4043 116.459 22.0363 116.117 21.7483 115.68C21.4709 115.232 21.3216 114.699 21.3003 114.08H28.0523C28.0736 113.941 28.0896 113.808 28.1003 113.68C28.1109 113.541 28.1163 113.419 28.1163 113.312C28.1163 112.8 28.0256 112.304 27.8443 111.824C27.6629 111.333 27.4016 110.896 27.0603 110.512C26.7189 110.117 26.3029 109.808 25.8123 109.584C25.3323 109.349 24.7829 109.232 24.1643 109.232C23.3856 109.232 22.6816 109.424 22.0523 109.808C21.4336 110.192 20.9429 110.72 20.5803 111.392C20.2176 112.053 20.0363 112.816 20.0363 113.68C20.0363 114.544 20.2229 115.317 20.5963 116C20.9696 116.683 21.4763 117.221 22.1163 117.616C22.7669 118 23.4923 118.192 24.2923 118.192ZM24.1643 110.352C24.6443 110.352 25.0816 110.464 25.4763 110.688C25.8816 110.912 26.2016 111.221 26.4363 111.616C26.6816 112 26.8096 112.448 26.8203 112.96H21.3323C21.3963 112.427 21.5616 111.968 21.8283 111.584C22.1056 111.189 22.4469 110.885 22.8523 110.672C23.2576 110.459 23.6949 110.352 24.1643 110.352ZM34.296 121.52C35.0853 121.52 35.784 121.349 36.392 121.008C37.0107 120.677 37.4907 120.219 37.832 119.632C38.184 119.056 38.36 118.4 38.36 117.664V109.424H37.16V110.72C36.8187 110.261 36.3813 109.899 35.848 109.632C35.3147 109.365 34.7333 109.232 34.104 109.232C33.2933 109.232 32.568 109.424 31.928 109.808C31.2987 110.192 30.7973 110.709 30.424 111.36C30.0613 112.011 29.88 112.741 29.88 113.552C29.88 114.352 30.0613 115.083 30.424 115.744C30.7973 116.395 31.304 116.912 31.944 117.296C32.584 117.68 33.304 117.872 34.104 117.872C34.7333 117.872 35.32 117.733 35.864 117.456C36.408 117.179 36.84 116.789 37.16 116.288V117.664C37.16 118.24 37.0267 118.725 36.76 119.12C36.4933 119.515 36.1413 119.813 35.704 120.016C35.2667 120.219 34.7867 120.32 34.264 120.32C33.5813 120.32 33.0213 120.171 32.584 119.872C32.1467 119.573 31.8427 119.221 31.672 118.816L30.568 119.408C30.856 120.027 31.3253 120.533 31.976 120.928C32.6373 121.323 33.4107 121.52 34.296 121.52ZM34.168 116.672C33.592 116.672 33.0747 116.533 32.616 116.256C32.168 115.968 31.8107 115.589 31.544 115.12C31.288 114.64 31.16 114.117 31.16 113.552C31.16 112.976 31.288 112.453 31.544 111.984C31.8107 111.515 32.1733 111.141 32.632 110.864C33.0907 110.576 33.6027 110.432 34.168 110.432C34.7227 110.432 35.224 110.576 35.672 110.864C36.12 111.141 36.4773 111.52 36.744 112C37.0213 112.469 37.16 112.987 37.16 113.552C37.16 114.117 37.0213 114.64 36.744 115.12C36.4773 115.589 36.12 115.968 35.672 116.256C35.224 116.533 34.7227 116.672 34.168 116.672ZM40.8258 118H42.0258V112.72C42.0258 112.016 42.2124 111.472 42.5858 111.088C42.9591 110.704 43.4551 110.512 44.0738 110.512H44.8258V109.312H44.2818C43.7591 109.312 43.3058 109.403 42.9218 109.584C42.5484 109.765 42.2498 110.021 42.0258 110.352V109.424H40.8258V118ZM48.712 118.192C49.3733 118.192 49.9707 118.059 50.504 117.792C51.0373 117.525 51.4427 117.184 51.72 116.768V118H52.92V112.112C52.92 111.547 52.7813 111.051 52.504 110.624C52.2373 110.187 51.8587 109.845 51.368 109.6C50.888 109.355 50.3333 109.232 49.704 109.232C49.224 109.232 48.76 109.323 48.312 109.504C47.864 109.675 47.464 109.909 47.112 110.208C46.7707 110.507 46.52 110.837 46.36 111.2L47.448 111.792C47.64 111.376 47.9333 111.04 48.328 110.784C48.7227 110.517 49.1813 110.384 49.704 110.384C50.3013 110.384 50.7867 110.544 51.16 110.864C51.5333 111.184 51.72 111.6 51.72 112.112V112.56L48.616 113.072C47.6667 113.232 46.9733 113.557 46.536 114.048C46.0987 114.539 45.88 115.115 45.88 115.776C45.88 116.245 46.0027 116.661 46.248 117.024C46.4933 117.387 46.8293 117.675 47.256 117.888C47.6827 118.091 48.168 118.192 48.712 118.192ZM47.16 115.728C47.16 115.333 47.2933 114.992 47.56 114.704C47.8373 114.416 48.2853 114.219 48.904 114.112L51.72 113.648V114.288C51.72 114.811 51.5973 115.285 51.352 115.712C51.1067 116.139 50.7653 116.48 50.328 116.736C49.8907 116.981 49.3787 117.104 48.792 117.104C48.312 117.104 47.9173 116.971 47.608 116.704C47.3093 116.437 47.16 116.112 47.16 115.728ZM58.512 118.096C58.608 118.096 58.736 118.091 58.896 118.08C59.056 118.069 59.2 118.048 59.328 118.016V116.928C59.2427 116.939 59.1413 116.949 59.024 116.96C58.9067 116.971 58.8053 116.976 58.72 116.976C58.1867 116.976 57.8187 116.837 57.616 116.56C57.4133 116.283 57.312 115.931 57.312 115.504V110.624H59.2V109.424H57.312V107.44H56.112V108.16C56.112 108.523 56.0053 108.827 55.792 109.072C55.5787 109.307 55.2907 109.424 54.928 109.424H54.528V110.624H56.112V115.504C56.112 116.336 56.32 116.976 56.736 117.424C57.152 117.872 57.744 118.096 58.512 118.096ZM65.0266 118.192C65.6133 118.192 66.1466 118.096 66.6266 117.904C67.1173 117.701 67.5386 117.44 67.8906 117.12C68.2426 116.789 68.504 116.432 68.6746 116.048L67.6506 115.504C67.384 115.952 67.0373 116.325 66.6106 116.624C66.184 116.923 65.656 117.072 65.0266 117.072C64.5146 117.072 64.0346 116.949 63.5866 116.704C63.1386 116.459 62.7706 116.117 62.4826 115.68C62.2053 115.232 62.056 114.699 62.0346 114.08H68.7866C68.808 113.941 68.824 113.808 68.8346 113.68C68.8453 113.541 68.8506 113.419 68.8506 113.312C68.8506 112.8 68.76 112.304 68.5786 111.824C68.3973 111.333 68.136 110.896 67.7946 110.512C67.4533 110.117 67.0373 109.808 66.5466 109.584C66.0666 109.349 65.5173 109.232 64.8986 109.232C64.12 109.232 63.416 109.424 62.7866 109.808C62.168 110.192 61.6773 110.72 61.3146 111.392C60.952 112.053 60.7706 112.816 60.7706 113.68C60.7706 114.544 60.9573 115.317 61.3306 116C61.704 116.683 62.2106 117.221 62.8506 117.616C63.5013 118 64.2266 118.192 65.0266 118.192ZM64.8986 110.352C65.3786 110.352 65.816 110.464 66.2106 110.688C66.616 110.912 66.936 111.221 67.1706 111.616C67.416 112 67.544 112.448 67.5546 112.96H62.0666C62.1306 112.427 62.296 111.968 62.5626 111.584C62.84 111.189 63.1813 110.885 63.5866 110.672C63.992 110.459 64.4293 110.352 64.8986 110.352ZM75.5731 118H76.7731L78.8371 111.216L80.8851 118H82.0851L85.0291 109.424H83.6851L81.4931 116.16L79.4291 109.424H78.2291L76.1811 116.16L73.9891 109.424H72.6291L75.5731 118ZM86.4351 107.84H87.6351V106.08H86.4351V107.84ZM86.4351 118H87.6351V109.424H86.4351V118ZM93.3714 118.096C93.4674 118.096 93.5954 118.091 93.7554 118.08C93.9154 118.069 94.0594 118.048 94.1874 118.016V116.928C94.102 116.939 94.0007 116.949 93.8834 116.96C93.766 116.971 93.6647 116.976 93.5794 116.976C93.046 116.976 92.678 116.837 92.4754 116.56C92.2727 116.283 92.1714 115.931 92.1714 115.504V110.624H94.0594V109.424H92.1714V107.44H90.9714V108.16C90.9714 108.523 90.8647 108.827 90.6514 109.072C90.438 109.307 90.15 109.424 89.7874 109.424H89.3874V110.624H90.9714V115.504C90.9714 116.336 91.1794 116.976 91.5954 117.424C92.0114 117.872 92.6034 118.096 93.3714 118.096ZM96.2945 118H97.4945V112.896C97.4945 112.128 97.7078 111.525 98.1345 111.088C98.5718 110.651 99.1105 110.432 99.7505 110.432C100.391 110.432 100.919 110.651 101.335 111.088C101.761 111.515 101.975 112.117 101.975 112.896V118H103.175V112.432C103.175 111.824 103.031 111.28 102.743 110.8C102.465 110.309 102.081 109.925 101.591 109.648C101.111 109.371 100.567 109.232 99.9585 109.232C99.4252 109.232 98.9452 109.344 98.5185 109.568C98.0918 109.792 97.7505 110.096 97.4945 110.48V106.08H96.2945V118ZM112.201 118.192C113.001 118.192 113.726 118 114.377 117.616C115.038 117.232 115.566 116.704 115.961 116.032C116.356 115.349 116.553 114.571 116.553 113.696C116.553 112.832 116.361 112.064 115.977 111.392C115.604 110.72 115.086 110.192 114.425 109.808C113.774 109.424 113.033 109.232 112.201 109.232C111.369 109.232 110.622 109.429 109.961 109.824C109.31 110.208 108.793 110.736 108.409 111.408C108.025 112.08 107.833 112.843 107.833 113.696C107.833 114.56 108.025 115.333 108.409 116.016C108.804 116.688 109.332 117.221 109.993 117.616C110.654 118 111.39 118.192 112.201 118.192ZM112.201 116.992C111.625 116.992 111.102 116.848 110.633 116.56C110.174 116.272 109.806 115.877 109.529 115.376C109.252 114.875 109.113 114.315 109.113 113.696C109.113 113.077 109.252 112.523 109.529 112.032C109.806 111.541 110.174 111.152 110.633 110.864C111.102 110.576 111.625 110.432 112.201 110.432C112.777 110.432 113.294 110.576 113.753 110.864C114.222 111.152 114.59 111.541 114.857 112.032C115.134 112.523 115.273 113.077 115.273 113.696C115.273 114.315 115.134 114.875 114.857 115.376C114.59 115.877 114.222 116.272 113.753 116.56C113.294 116.848 112.777 116.992 112.201 116.992ZM120.801 118H122.001L125.377 109.424H124.017L121.409 116.368L118.801 109.424H117.457L120.801 118ZM130.527 118.192C131.113 118.192 131.647 118.096 132.127 117.904C132.617 117.701 133.039 117.44 133.391 117.12C133.743 116.789 134.004 116.432 134.175 116.048L133.151 115.504C132.884 115.952 132.537 116.325 132.111 116.624C131.684 116.923 131.156 117.072 130.527 117.072C130.015 117.072 129.535 116.949 129.087 116.704C128.639 116.459 128.271 116.117 127.983 115.68C127.705 115.232 127.556 114.699 127.535 114.08H134.287C134.308 113.941 134.324 113.808 134.335 113.68C134.345 113.541 134.351 113.419 134.351 113.312C134.351 112.8 134.26 112.304 134.079 111.824C133.897 111.333 133.636 110.896 133.295 110.512C132.953 110.117 132.537 109.808 132.047 109.584C131.567 109.349 131.017 109.232 130.399 109.232C129.62 109.232 128.916 109.424 128.287 109.808C127.668 110.192 127.177 110.72 126.815 111.392C126.452 112.053 126.271 112.816 126.271 113.68C126.271 114.544 126.457 115.317 126.831 116C127.204 116.683 127.711 117.221 128.351 117.616C129.001 118 129.727 118.192 130.527 118.192ZM130.399 110.352C130.879 110.352 131.316 110.464 131.711 110.688C132.116 110.912 132.436 111.221 132.671 111.616C132.916 112 133.044 112.448 133.055 112.96H127.567C127.631 112.427 127.796 111.968 128.063 111.584C128.34 111.189 128.681 110.885 129.087 110.672C129.492 110.459 129.929 110.352 130.399 110.352ZM136.466 118H137.666V112.72C137.666 112.016 137.853 111.472 138.226 111.088C138.6 110.704 139.096 110.512 139.714 110.512H140.466V109.312H139.922C139.4 109.312 138.946 109.403 138.562 109.584C138.189 109.765 137.89 110.021 137.666 110.352V109.424H136.466V118ZM148.191 118.192C148.959 118.192 149.642 118.021 150.239 117.68C150.847 117.339 151.322 116.875 151.663 116.288C152.015 115.691 152.191 115.024 152.191 114.288C152.191 113.563 152.021 112.907 151.679 112.32C151.349 111.723 150.89 111.248 150.303 110.896C149.717 110.533 149.039 110.352 148.271 110.352C147.877 110.352 147.487 110.411 147.103 110.528C146.719 110.635 146.362 110.805 146.031 111.04L146.575 107.184H151.711V106.064H145.679L144.783 112.544L145.791 112.736C145.994 112.395 146.314 112.107 146.751 111.872C147.199 111.627 147.685 111.504 148.207 111.504C148.719 111.504 149.178 111.627 149.583 111.872C149.989 112.107 150.309 112.432 150.543 112.848C150.789 113.264 150.911 113.744 150.911 114.288C150.911 114.811 150.794 115.285 150.559 115.712C150.325 116.128 149.999 116.459 149.583 116.704C149.178 116.949 148.714 117.072 148.191 117.072C147.541 117.072 146.933 116.896 146.367 116.544C145.813 116.181 145.413 115.691 145.167 115.072L144.191 115.552C144.501 116.363 145.013 117.008 145.727 117.488C146.442 117.957 147.263 118.192 148.191 118.192ZM159.091 118.192C160.029 118.192 160.851 117.936 161.555 117.424C162.259 116.912 162.803 116.192 163.187 115.264C163.581 114.336 163.779 113.259 163.779 112.032C163.779 110.805 163.581 109.733 163.187 108.816C162.792 107.888 162.243 107.168 161.539 106.656C160.835 106.144 160.013 105.888 159.075 105.888C158.136 105.888 157.315 106.144 156.611 106.656C155.907 107.168 155.357 107.888 154.963 108.816C154.568 109.733 154.371 110.805 154.371 112.032C154.371 113.259 154.568 114.336 154.963 115.264C155.357 116.181 155.907 116.901 156.611 117.424C157.325 117.936 158.152 118.192 159.091 118.192ZM159.091 116.992C158.408 116.992 157.805 116.784 157.283 116.368C156.771 115.952 156.371 115.371 156.083 114.624C155.795 113.877 155.651 113.013 155.651 112.032C155.651 111.04 155.795 110.176 156.083 109.44C156.371 108.693 156.771 108.117 157.283 107.712C157.795 107.296 158.392 107.088 159.075 107.088C159.768 107.088 160.371 107.296 160.883 107.712C161.395 108.117 161.795 108.693 162.083 109.44C162.371 110.176 162.515 111.04 162.515 112.032C162.515 113.024 162.371 113.893 162.083 114.64C161.795 115.376 161.395 115.952 160.883 116.368C160.371 116.784 159.773 116.992 159.091 116.992ZM170.81 118.192C171.748 118.192 172.57 117.936 173.274 117.424C173.978 116.912 174.522 116.192 174.906 115.264C175.3 114.336 175.498 113.259 175.498 112.032C175.498 110.805 175.3 109.733 174.906 108.816C174.511 107.888 173.962 107.168 173.258 106.656C172.554 106.144 171.732 105.888 170.794 105.888C169.855 105.888 169.034 106.144 168.33 106.656C167.626 107.168 167.076 107.888 166.682 108.816C166.287 109.733 166.09 110.805 166.09 112.032C166.09 113.259 166.287 114.336 166.682 115.264C167.076 116.181 167.626 116.901 168.33 117.424C169.044 117.936 169.871 118.192 170.81 118.192ZM170.81 116.992C170.127 116.992 169.524 116.784 169.002 116.368C168.49 115.952 168.09 115.371 167.802 114.624C167.514 113.877 167.37 113.013 167.37 112.032C167.37 111.04 167.514 110.176 167.802 109.44C168.09 108.693 168.49 108.117 169.002 107.712C169.514 107.296 170.111 107.088 170.794 107.088C171.487 107.088 172.09 107.296 172.602 107.712C173.114 108.117 173.514 108.693 173.802 109.44C174.09 110.176 174.234 111.04 174.234 112.032C174.234 113.024 174.09 113.893 173.802 114.64C173.514 115.376 173.114 115.952 172.602 116.368C172.09 116.784 171.492 116.992 170.81 116.992ZM180.607 121.2H181.807V116.608C182.127 117.109 182.564 117.499 183.119 117.776C183.674 118.053 184.282 118.192 184.943 118.192C185.754 118.192 186.474 118 187.103 117.616C187.743 117.221 188.244 116.688 188.607 116.016C188.98 115.333 189.167 114.565 189.167 113.712C189.167 112.848 188.98 112.08 188.607 111.408C188.244 110.736 187.743 110.208 187.103 109.824C186.474 109.429 185.754 109.232 184.943 109.232C184.271 109.232 183.668 109.365 183.135 109.632C182.602 109.899 182.159 110.261 181.807 110.72V109.424H180.607V121.2ZM184.879 116.992C184.303 116.992 183.78 116.848 183.311 116.56C182.852 116.272 182.484 115.883 182.207 115.392C181.94 114.891 181.807 114.331 181.807 113.712C181.807 113.093 181.94 112.539 182.207 112.048C182.484 111.547 182.852 111.152 183.311 110.864C183.78 110.576 184.303 110.432 184.879 110.432C185.455 110.432 185.967 110.576 186.415 110.864C186.874 111.152 187.231 111.541 187.487 112.032C187.754 112.523 187.887 113.083 187.887 113.712C187.887 114.331 187.754 114.891 187.487 115.392C187.231 115.883 186.874 116.272 186.415 116.56C185.967 116.848 185.455 116.992 184.879 116.992ZM195.295 118.192C196.095 118.192 196.82 118 197.471 117.616C198.132 117.232 198.66 116.704 199.055 116.032C199.45 115.349 199.647 114.571 199.647 113.696C199.647 112.832 199.455 112.064 199.071 111.392C198.698 110.72 198.18 110.192 197.519 109.808C196.868 109.424 196.127 109.232 195.295 109.232C194.463 109.232 193.716 109.429 193.055 109.824C192.404 110.208 191.887 110.736 191.503 111.408C191.119 112.08 190.927 112.843 190.927 113.696C190.927 114.56 191.119 115.333 191.503 116.016C191.898 116.688 192.426 117.221 193.087 117.616C193.748 118 194.484 118.192 195.295 118.192ZM195.295 116.992C194.719 116.992 194.196 116.848 193.727 116.56C193.268 116.272 192.9 115.877 192.623 115.376C192.346 114.875 192.207 114.315 192.207 113.696C192.207 113.077 192.346 112.523 192.623 112.032C192.9 111.541 193.268 111.152 193.727 110.864C194.196 110.576 194.719 110.432 195.295 110.432C195.871 110.432 196.388 110.576 196.847 110.864C197.316 111.152 197.684 111.541 197.951 112.032C198.228 112.523 198.367 113.077 198.367 113.696C198.367 114.315 198.228 114.875 197.951 115.376C197.684 115.877 197.316 116.272 196.847 116.56C196.388 116.848 195.871 116.992 195.295 116.992ZM201.763 121.2H202.963V116.608C203.283 117.109 203.721 117.499 204.275 117.776C204.83 118.053 205.438 118.192 206.099 118.192C206.91 118.192 207.63 118 208.259 117.616C208.899 117.221 209.401 116.688 209.763 116.016C210.137 115.333 210.323 114.565 210.323 113.712C210.323 112.848 210.137 112.08 209.763 111.408C209.401 110.736 208.899 110.208 208.259 109.824C207.63 109.429 206.91 109.232 206.099 109.232C205.427 109.232 204.825 109.365 204.291 109.632C203.758 109.899 203.315 110.261 202.963 110.72V109.424H201.763V121.2ZM206.035 116.992C205.459 116.992 204.937 116.848 204.467 116.56C204.009 116.272 203.641 115.883 203.363 115.392C203.097 114.891 202.963 114.331 202.963 113.712C202.963 113.093 203.097 112.539 203.363 112.048C203.641 111.547 204.009 111.152 204.467 110.864C204.937 110.576 205.459 110.432 206.035 110.432C206.611 110.432 207.123 110.576 207.571 110.864C208.03 111.152 208.387 111.541 208.643 112.032C208.91 112.523 209.043 113.083 209.043 113.712C209.043 114.331 208.91 114.891 208.643 115.392C208.387 115.883 208.03 116.272 207.571 116.56C207.123 116.848 206.611 116.992 206.035 116.992ZM215.475 118.192C216.008 118.192 216.488 118.08 216.915 117.856C217.342 117.632 217.683 117.328 217.939 116.944V118H219.139V109.424H217.939V114.528C217.939 115.296 217.726 115.899 217.299 116.336C216.883 116.773 216.344 116.992 215.683 116.992C215.032 116.992 214.499 116.784 214.083 116.368C213.667 115.941 213.459 115.381 213.459 114.688V109.424H212.259V114.832C212.259 115.493 212.398 116.08 212.675 116.592C212.963 117.093 213.352 117.488 213.843 117.776C214.334 118.053 214.878 118.192 215.475 118.192ZM221.607 118H222.807V106.08H221.607V118ZM227.743 118.192C228.405 118.192 229.002 118.059 229.535 117.792C230.069 117.525 230.474 117.184 230.751 116.768V118H231.951V112.112C231.951 111.547 231.813 111.051 231.535 110.624C231.269 110.187 230.89 109.845 230.399 109.6C229.919 109.355 229.365 109.232 228.735 109.232C228.255 109.232 227.791 109.323 227.343 109.504C226.895 109.675 226.495 109.909 226.143 110.208C225.802 110.507 225.551 110.837 225.391 111.2L226.479 111.792C226.671 111.376 226.965 111.04 227.359 110.784C227.754 110.517 228.213 110.384 228.735 110.384C229.333 110.384 229.818 110.544 230.191 110.864C230.565 111.184 230.751 111.6 230.751 112.112V112.56L227.647 113.072C226.698 113.232 226.005 113.557 225.567 114.048C225.13 114.539 224.911 115.115 224.911 115.776C224.911 116.245 225.034 116.661 225.279 117.024C225.525 117.387 225.861 117.675 226.287 117.888C226.714 118.091 227.199 118.192 227.743 118.192ZM226.191 115.728C226.191 115.333 226.325 114.992 226.591 114.704C226.869 114.416 227.317 114.219 227.935 114.112L230.751 113.648V114.288C230.751 114.811 230.629 115.285 230.383 115.712C230.138 116.139 229.797 116.48 229.359 116.736C228.922 116.981 228.41 117.104 227.823 117.104C227.343 117.104 226.949 116.971 226.639 116.704C226.341 116.437 226.191 116.112 226.191 115.728ZM234.42 118H235.62V112.72C235.62 112.016 235.806 111.472 236.18 111.088C236.553 110.704 237.049 110.512 237.668 110.512H238.42V109.312H237.876C237.353 109.312 236.9 109.403 236.516 109.584C236.142 109.765 235.844 110.021 235.62 110.352V109.424H234.42V118ZM3.712 142.192C4.37333 142.192 4.97067 142.059 5.504 141.792C6.03733 141.525 6.44267 141.184 6.72 140.768V142H7.92V136.112C7.92 135.547 7.78133 135.051 7.504 134.624C7.23733 134.187 6.85867 133.845 6.368 133.6C5.888 133.355 5.33333 133.232 4.704 133.232C4.224 133.232 3.76 133.323 3.312 133.504C2.864 133.675 2.464 133.909 2.112 134.208C1.77067 134.507 1.52 134.837 1.36 135.2L2.448 135.792C2.64 135.376 2.93333 135.04 3.328 134.784C3.72267 134.517 4.18133 134.384 4.704 134.384C5.30133 134.384 5.78667 134.544 6.16 134.864C6.53333 135.184 6.72 135.6 6.72 136.112V136.56L3.616 137.072C2.66667 137.232 1.97333 137.557 1.536 138.048C1.09867 138.539 0.88 139.115 0.88 139.776C0.88 140.245 1.00267 140.661 1.248 141.024C1.49333 141.387 1.82933 141.675 2.256 141.888C2.68267 142.091 3.168 142.192 3.712 142.192ZM2.16 139.728C2.16 139.333 2.29333 138.992 2.56 138.704C2.83733 138.416 3.28533 138.219 3.904 138.112L6.72 137.648V138.288C6.72 138.811 6.59733 139.285 6.352 139.712C6.10667 140.139 5.76533 140.48 5.328 140.736C4.89067 140.981 4.37867 141.104 3.792 141.104C3.312 141.104 2.91733 140.971 2.608 140.704C2.30933 140.437 2.16 140.112 2.16 139.728ZM10.3883 145.2H11.5883V140.608C11.9083 141.109 12.3456 141.499 12.9003 141.776C13.4549 142.053 14.0629 142.192 14.7243 142.192C15.5349 142.192 16.2549 142 16.8843 141.616C17.5243 141.221 18.0256 140.688 18.3883 140.016C18.7616 139.333 18.9483 138.565 18.9483 137.712C18.9483 136.848 18.7616 136.08 18.3883 135.408C18.0256 134.736 17.5243 134.208 16.8843 133.824C16.2549 133.429 15.5349 133.232 14.7243 133.232C14.0523 133.232 13.4496 133.365 12.9163 133.632C12.3829 133.899 11.9403 134.261 11.5883 134.72V133.424H10.3883V145.2ZM14.6603 140.992C14.0843 140.992 13.5616 140.848 13.0923 140.56C12.6336 140.272 12.2656 139.883 11.9883 139.392C11.7216 138.891 11.5883 138.331 11.5883 137.712C11.5883 137.093 11.7216 136.539 11.9883 136.048C12.2656 135.547 12.6336 135.152 13.0923 134.864C13.5616 134.576 14.0843 134.432 14.6603 134.432C15.2363 134.432 15.7483 134.576 16.1963 134.864C16.6549 135.152 17.0123 135.541 17.2683 136.032C17.5349 136.523 17.6683 137.083 17.6683 137.712C17.6683 138.331 17.5349 138.891 17.2683 139.392C17.0123 139.883 16.6549 140.272 16.1963 140.56C15.7483 140.848 15.2363 140.992 14.6603 140.992ZM21.0601 145.2H22.2601V140.608C22.5801 141.109 23.0175 141.499 23.5721 141.776C24.1268 142.053 24.7348 142.192 25.3961 142.192C26.2068 142.192 26.9268 142 27.5561 141.616C28.1961 141.221 28.6975 140.688 29.0601 140.016C29.4335 139.333 29.6201 138.565 29.6201 137.712C29.6201 136.848 29.4335 136.08 29.0601 135.408C28.6975 134.736 28.1961 134.208 27.5561 133.824C26.9268 133.429 26.2068 133.232 25.3961 133.232C24.7241 133.232 24.1215 133.365 23.5881 133.632C23.0548 133.899 22.6121 134.261 22.2601 134.72V133.424H21.0601V145.2ZM25.3321 140.992C24.7561 140.992 24.2335 140.848 23.7641 140.56C23.3055 140.272 22.9375 139.883 22.6601 139.392C22.3935 138.891 22.2601 138.331 22.2601 137.712C22.2601 137.093 22.3935 136.539 22.6601 136.048C22.9375 135.547 23.3055 135.152 23.7641 134.864C24.2335 134.576 24.7561 134.432 25.3321 134.432C25.9081 134.432 26.4201 134.576 26.8681 134.864C27.3268 135.152 27.6841 135.541 27.9401 136.032C28.2068 136.523 28.3401 137.083 28.3401 137.712C28.3401 138.331 28.2068 138.891 27.9401 139.392C27.6841 139.883 27.3268 140.272 26.8681 140.56C26.4201 140.848 25.9081 140.992 25.3321 140.992ZM31.732 142H32.932V130.08H31.732V142ZM35.3883 131.84H36.5883V130.08H35.3883V131.84ZM35.3883 142H36.5883V133.424H35.3883V142ZM42.9645 142.192C43.4978 142.192 43.9992 142.096 44.4685 141.904C44.9378 141.712 45.3538 141.451 45.7165 141.12C46.0792 140.789 46.3512 140.416 46.5325 140L45.4445 139.408C45.2205 139.888 44.8898 140.272 44.4525 140.56C44.0258 140.848 43.5298 140.992 42.9645 140.992C42.3992 140.992 41.8872 140.848 41.4285 140.56C40.9805 140.272 40.6232 139.883 40.3565 139.392C40.1005 138.891 39.9725 138.331 39.9725 137.712C39.9725 137.083 40.1005 136.523 40.3565 136.032C40.6232 135.531 40.9805 135.141 41.4285 134.864C41.8872 134.576 42.3992 134.432 42.9645 134.432C43.5298 134.432 44.0312 134.576 44.4685 134.864C44.9058 135.152 45.2312 135.525 45.4445 135.984L46.5325 135.424C46.3512 134.997 46.0792 134.624 45.7165 134.304C45.3538 133.973 44.9378 133.712 44.4685 133.52C43.9992 133.328 43.4978 133.232 42.9645 133.232C42.1218 133.232 41.3805 133.429 40.7405 133.824C40.1005 134.208 39.5992 134.736 39.2365 135.408C38.8738 136.08 38.6925 136.843 38.6925 137.696C38.6925 138.549 38.8738 139.317 39.2365 140C39.5992 140.672 40.1005 141.205 40.7405 141.6C41.3805 141.995 42.1218 142.192 42.9645 142.192ZM50.962 142.192C51.6233 142.192 52.2207 142.059 52.754 141.792C53.2873 141.525 53.6927 141.184 53.97 140.768V142H55.17V136.112C55.17 135.547 55.0313 135.051 54.754 134.624C54.4873 134.187 54.1087 133.845 53.618 133.6C53.138 133.355 52.5833 133.232 51.954 133.232C51.474 133.232 51.01 133.323 50.562 133.504C50.114 133.675 49.714 133.909 49.362 134.208C49.0207 134.507 48.77 134.837 48.61 135.2L49.698 135.792C49.89 135.376 50.1833 135.04 50.578 134.784C50.9727 134.517 51.4313 134.384 51.954 134.384C52.5513 134.384 53.0367 134.544 53.41 134.864C53.7833 135.184 53.97 135.6 53.97 136.112V136.56L50.866 137.072C49.9167 137.232 49.2233 137.557 48.786 138.048C48.3487 138.539 48.13 139.115 48.13 139.776C48.13 140.245 48.2527 140.661 48.498 141.024C48.7433 141.387 49.0793 141.675 49.506 141.888C49.9327 142.091 50.418 142.192 50.962 142.192ZM49.41 139.728C49.41 139.333 49.5433 138.992 49.81 138.704C50.0873 138.416 50.5353 138.219 51.154 138.112L53.97 137.648V138.288C53.97 138.811 53.8473 139.285 53.602 139.712C53.3567 140.139 53.0153 140.48 52.578 140.736C52.1407 140.981 51.6287 141.104 51.042 141.104C50.562 141.104 50.1673 140.971 49.858 140.704C49.5593 140.437 49.41 140.112 49.41 139.728ZM60.762 142.096C60.858 142.096 60.986 142.091 61.146 142.08C61.306 142.069 61.45 142.048 61.578 142.016V140.928C61.4927 140.939 61.3913 140.949 61.274 140.96C61.1567 140.971 61.0553 140.976 60.97 140.976C60.4367 140.976 60.0687 140.837 59.866 140.56C59.6633 140.283 59.562 139.931 59.562 139.504V134.624H61.45V133.424H59.562V131.44H58.362V132.16C58.362 132.523 58.2553 132.827 58.042 133.072C57.8287 133.307 57.5407 133.424 57.178 133.424H56.778V134.624H58.362V139.504C58.362 140.336 58.57 140.976 58.986 141.424C59.402 141.872 59.994 142.096 60.762 142.096ZM63.6851 131.84H64.8851V130.08H63.6851V131.84ZM63.6851 142H64.8851V133.424H63.6851V142ZM71.3574 142.192C72.1574 142.192 72.8827 142 73.5334 141.616C74.1947 141.232 74.7227 140.704 75.1174 140.032C75.512 139.349 75.7094 138.571 75.7094 137.696C75.7094 136.832 75.5174 136.064 75.1334 135.392C74.76 134.72 74.2427 134.192 73.5814 133.808C72.9307 133.424 72.1894 133.232 71.3574 133.232C70.5254 133.232 69.7787 133.429 69.1174 133.824C68.4667 134.208 67.9494 134.736 67.5654 135.408C67.1814 136.08 66.9894 136.843 66.9894 137.696C66.9894 138.56 67.1814 139.333 67.5654 140.016C67.96 140.688 68.488 141.221 69.1494 141.616C69.8107 142 70.5467 142.192 71.3574 142.192ZM71.3574 140.992C70.7814 140.992 70.2587 140.848 69.7894 140.56C69.3307 140.272 68.9627 139.877 68.6854 139.376C68.408 138.875 68.2694 138.315 68.2694 137.696C68.2694 137.077 68.408 136.523 68.6854 136.032C68.9627 135.541 69.3307 135.152 69.7894 134.864C70.2587 134.576 70.7814 134.432 71.3574 134.432C71.9334 134.432 72.4507 134.576 72.9094 134.864C73.3787 135.152 73.7467 135.541 74.0134 136.032C74.2907 136.523 74.4294 137.077 74.4294 137.696C74.4294 138.315 74.2907 138.875 74.0134 139.376C73.7467 139.877 73.3787 140.272 72.9094 140.56C72.4507 140.848 71.9334 140.992 71.3574 140.992ZM77.8258 142H79.0258V136.896C79.0258 136.128 79.2391 135.525 79.6658 135.088C80.0924 134.651 80.6311 134.432 81.2818 134.432C81.9431 134.432 82.4764 134.651 82.8818 135.088C83.2978 135.515 83.5058 136.117 83.5058 136.896V142H84.7058V136.432C84.7058 135.824 84.5618 135.28 84.2738 134.8C83.9964 134.309 83.6124 133.925 83.1218 133.648C82.6418 133.371 82.0978 133.232 81.4898 133.232C80.9564 133.232 80.4764 133.344 80.0498 133.568C79.6231 133.792 79.2818 134.096 79.0258 134.48V133.424H77.8258V142ZM89.9736 142.192C90.571 142.192 91.099 142.091 91.5576 141.888C92.0163 141.675 92.3736 141.381 92.6296 141.008C92.8963 140.635 93.0296 140.213 93.0296 139.744C93.0296 139.168 92.8323 138.667 92.4376 138.24C92.0536 137.813 91.515 137.499 90.8216 137.296L89.3976 136.88C89.2483 136.837 89.0723 136.773 88.8696 136.688C88.6776 136.603 88.507 136.475 88.3576 136.304C88.2083 136.133 88.1336 135.904 88.1336 135.616C88.1336 135.243 88.2776 134.933 88.5656 134.688C88.8536 134.443 89.2376 134.32 89.7176 134.32C90.2083 134.32 90.651 134.459 91.0456 134.736C91.451 135.003 91.7603 135.376 91.9736 135.856L92.9976 135.376C92.7523 134.704 92.331 134.181 91.7336 133.808C91.147 133.424 90.491 133.232 89.7656 133.232C89.2323 133.232 88.747 133.333 88.3096 133.536C87.8723 133.739 87.5256 134.027 87.2696 134.4C87.0136 134.773 86.8856 135.211 86.8856 135.712C86.8856 136.245 87.0616 136.715 87.4136 137.12C87.7656 137.525 88.3363 137.84 89.1256 138.064L90.3576 138.416C90.5283 138.459 90.7256 138.528 90.9496 138.624C91.1736 138.72 91.371 138.859 91.5416 139.04C91.7123 139.211 91.7976 139.445 91.7976 139.744C91.7976 140.149 91.6216 140.48 91.2696 140.736C90.9176 140.981 90.4856 141.104 89.9736 141.104C89.4403 141.104 88.9496 140.949 88.5016 140.64C88.0643 140.331 87.723 139.915 87.4776 139.392L86.4696 139.872C86.747 140.587 87.195 141.152 87.8136 141.568C88.4323 141.984 89.1523 142.192 89.9736 142.192ZM99.745 142H100.945L103.009 135.216L105.057 142H106.257L109.201 133.424H107.857L105.665 140.16L103.601 133.424H102.401L100.353 140.16L98.161 133.424H96.801L99.745 142ZM110.607 131.84H111.807V130.08H110.607V131.84ZM110.607 142H111.807V133.424H110.607V142ZM117.543 142.096C117.639 142.096 117.767 142.091 117.927 142.08C118.087 142.069 118.231 142.048 118.359 142.016V140.928C118.274 140.939 118.173 140.949 118.055 140.96C117.938 140.971 117.837 140.976 117.751 140.976C117.218 140.976 116.85 140.837 116.647 140.56C116.445 140.283 116.343 139.931 116.343 139.504V134.624H118.231V133.424H116.343V131.44H115.143V132.16C115.143 132.523 115.037 132.827 114.823 133.072C114.61 133.307 114.322 133.424 113.959 133.424H113.559V134.624H115.143V139.504C115.143 140.336 115.351 140.976 115.767 141.424C116.183 141.872 116.775 142.096 117.543 142.096ZM120.466 142H121.666V136.896C121.666 136.128 121.88 135.525 122.306 135.088C122.744 134.651 123.282 134.432 123.922 134.432C124.562 134.432 125.09 134.651 125.506 135.088C125.933 135.515 126.146 136.117 126.146 136.896V142H127.346V136.432C127.346 135.824 127.202 135.28 126.914 134.8C126.637 134.309 126.253 133.925 125.762 133.648C125.282 133.371 124.738 133.232 124.13 133.232C123.597 133.232 123.117 133.344 122.69 133.568C122.264 133.792 121.922 134.096 121.666 134.48V130.08H120.466V142ZM136.373 142.192C137.173 142.192 137.898 142 138.549 141.616C139.21 141.232 139.738 140.704 140.133 140.032C140.528 139.349 140.725 138.571 140.725 137.696C140.725 136.832 140.533 136.064 140.149 135.392C139.776 134.72 139.258 134.192 138.597 133.808C137.946 133.424 137.205 133.232 136.373 133.232C135.541 133.232 134.794 133.429 134.133 133.824C133.482 134.208 132.965 134.736 132.581 135.408C132.197 136.08 132.005 136.843 132.005 137.696C132.005 138.56 132.197 139.333 132.581 140.016C132.976 140.688 133.504 141.221 134.165 141.616C134.826 142 135.562 142.192 136.373 142.192ZM136.373 140.992C135.797 140.992 135.274 140.848 134.805 140.56C134.346 140.272 133.978 139.877 133.701 139.376C133.424 138.875 133.285 138.315 133.285 137.696C133.285 137.077 133.424 136.523 133.701 136.032C133.978 135.541 134.346 135.152 134.805 134.864C135.274 134.576 135.797 134.432 136.373 134.432C136.949 134.432 137.466 134.576 137.925 134.864C138.394 135.152 138.762 135.541 139.029 136.032C139.306 136.523 139.445 137.077 139.445 137.696C139.445 138.315 139.306 138.875 139.029 139.376C138.762 139.877 138.394 140.272 137.925 140.56C137.466 140.848 136.949 140.992 136.373 140.992ZM142.841 142H144.041V136.896C144.041 136.128 144.255 135.525 144.681 135.088C145.108 134.651 145.647 134.432 146.297 134.432C146.959 134.432 147.492 134.651 147.897 135.088C148.313 135.515 148.521 136.117 148.521 136.896V142H149.721V136.432C149.721 135.824 149.577 135.28 149.289 134.8C149.012 134.309 148.628 133.925 148.137 133.648C147.657 133.371 147.113 133.232 146.505 133.232C145.972 133.232 145.492 133.344 145.065 133.568C144.639 133.792 144.297 134.096 144.041 134.48V133.424H142.841V142ZM152.013 142H153.213V130.08H152.013V142ZM155.846 145.52C156.411 145.52 156.891 145.403 157.286 145.168C157.68 144.944 158.006 144.645 158.262 144.272C158.528 143.899 158.747 143.504 158.918 143.088L162.838 133.408H161.51L158.71 140.496L155.91 133.408H154.614L158.038 142L157.734 142.736C157.467 143.355 157.195 143.771 156.918 143.984C156.64 144.208 156.24 144.32 155.718 144.32C155.547 144.32 155.376 144.304 155.206 144.272C155.046 144.251 154.912 144.235 154.806 144.224V145.344C154.976 145.408 155.147 145.451 155.318 145.472C155.499 145.504 155.675 145.52 155.846 145.52ZM169.446 142.192C170.108 142.192 170.705 142.059 171.238 141.792C171.772 141.525 172.177 141.184 172.454 140.768V142H173.654V136.112C173.654 135.547 173.516 135.051 173.238 134.624C172.972 134.187 172.593 133.845 172.102 133.6C171.622 133.355 171.068 133.232 170.438 133.232C169.958 133.232 169.494 133.323 169.046 133.504C168.598 133.675 168.198 133.909 167.846 134.208C167.505 134.507 167.254 134.837 167.094 135.2L168.182 135.792C168.374 135.376 168.668 135.04 169.062 134.784C169.457 134.517 169.916 134.384 170.438 134.384C171.036 134.384 171.521 134.544 171.894 134.864C172.268 135.184 172.454 135.6 172.454 136.112V136.56L169.35 137.072C168.401 137.232 167.708 137.557 167.27 138.048C166.833 138.539 166.614 139.115 166.614 139.776C166.614 140.245 166.737 140.661 166.982 141.024C167.228 141.387 167.564 141.675 167.99 141.888C168.417 142.091 168.902 142.192 169.446 142.192ZM167.894 139.728C167.894 139.333 168.028 138.992 168.294 138.704C168.572 138.416 169.02 138.219 169.638 138.112L172.454 137.648V138.288C172.454 138.811 172.332 139.285 172.086 139.712C171.841 140.139 171.5 140.48 171.062 140.736C170.625 140.981 170.113 141.104 169.526 141.104C169.046 141.104 168.652 140.971 168.342 140.704C168.044 140.437 167.894 140.112 167.894 139.728ZM179.721 142H180.921V134.624H183.017V133.424H180.921V132.656C180.921 132.048 181.092 131.621 181.433 131.376C181.775 131.131 182.201 131.008 182.713 131.008C182.767 131.008 182.857 131.013 182.985 131.024C183.113 131.024 183.215 131.035 183.289 131.056V129.968C183.204 129.947 183.092 129.931 182.953 129.92C182.815 129.899 182.692 129.888 182.585 129.888C182.084 129.888 181.615 129.995 181.177 130.208C180.74 130.421 180.388 130.736 180.121 131.152C179.855 131.557 179.721 132.059 179.721 132.656V133.424H178.009V134.624H179.721V142ZM188.542 142.192C189.129 142.192 189.662 142.096 190.142 141.904C190.633 141.701 191.054 141.44 191.406 141.12C191.758 140.789 192.02 140.432 192.19 140.048L191.166 139.504C190.9 139.952 190.553 140.325 190.126 140.624C189.7 140.923 189.172 141.072 188.542 141.072C188.03 141.072 187.55 140.949 187.102 140.704C186.654 140.459 186.286 140.117 185.998 139.68C185.721 139.232 185.572 138.699 185.55 138.08H192.302C192.324 137.941 192.34 137.808 192.35 137.68C192.361 137.541 192.366 137.419 192.366 137.312C192.366 136.8 192.276 136.304 192.094 135.824C191.913 135.333 191.652 134.896 191.31 134.512C190.969 134.117 190.553 133.808 190.062 133.584C189.582 133.349 189.033 133.232 188.414 133.232C187.636 133.232 186.932 133.424 186.302 133.808C185.684 134.192 185.193 134.72 184.83 135.392C184.468 136.053 184.286 136.816 184.286 137.68C184.286 138.544 184.473 139.317 184.846 140C185.22 140.683 185.726 141.221 186.366 141.616C187.017 142 187.742 142.192 188.542 142.192ZM188.414 134.352C188.894 134.352 189.332 134.464 189.726 134.688C190.132 134.912 190.452 135.221 190.686 135.616C190.932 136 191.06 136.448 191.07 136.96H185.582C185.646 136.427 185.812 135.968 186.078 135.584C186.356 135.189 186.697 134.885 187.102 134.672C187.508 134.459 187.945 134.352 188.414 134.352ZM196.37 142H197.57L199.634 135.216L201.682 142H202.882L205.826 133.424H204.482L202.29 140.16L200.226 133.424H199.026L196.978 140.16L194.786 133.424H193.426L196.37 142ZM213.871 142.192C214.404 142.192 214.905 142.096 215.375 141.904C215.844 141.712 216.26 141.451 216.623 141.12C216.985 140.789 217.257 140.416 217.439 140L216.351 139.408C216.127 139.888 215.796 140.272 215.359 140.56C214.932 140.848 214.436 140.992 213.871 140.992C213.305 140.992 212.793 140.848 212.335 140.56C211.887 140.272 211.529 139.883 211.263 139.392C211.007 138.891 210.879 138.331 210.879 137.712C210.879 137.083 211.007 136.523 211.263 136.032C211.529 135.531 211.887 135.141 212.335 134.864C212.793 134.576 213.305 134.432 213.871 134.432C214.436 134.432 214.937 134.576 215.375 134.864C215.812 135.152 216.137 135.525 216.351 135.984L217.439 135.424C217.257 134.997 216.985 134.624 216.623 134.304C216.26 133.973 215.844 133.712 215.375 133.52C214.905 133.328 214.404 133.232 213.871 133.232C213.028 133.232 212.287 133.429 211.647 133.824C211.007 134.208 210.505 134.736 210.143 135.408C209.78 136.08 209.599 136.843 209.599 137.696C209.599 138.549 209.78 139.317 210.143 140C210.505 140.672 211.007 141.205 211.647 141.6C212.287 141.995 213.028 142.192 213.871 142.192ZM219.545 142H220.745V130.08H219.545V142ZM223.201 131.84H224.401V130.08H223.201V131.84ZM223.201 142H224.401V133.424H223.201V142ZM230.777 142.192C231.31 142.192 231.812 142.096 232.281 141.904C232.75 141.712 233.166 141.451 233.529 141.12C233.892 140.789 234.164 140.416 234.345 140L233.257 139.408C233.033 139.888 232.702 140.272 232.265 140.56C231.838 140.848 231.342 140.992 230.777 140.992C230.212 140.992 229.7 140.848 229.241 140.56C228.793 140.272 228.436 139.883 228.169 139.392C227.913 138.891 227.785 138.331 227.785 137.712C227.785 137.083 227.913 136.523 228.169 136.032C228.436 135.531 228.793 135.141 229.241 134.864C229.7 134.576 230.212 134.432 230.777 134.432C231.342 134.432 231.844 134.576 232.281 134.864C232.718 135.152 233.044 135.525 233.257 135.984L234.345 135.424C234.164 134.997 233.892 134.624 233.529 134.304C233.166 133.973 232.75 133.712 232.281 133.52C231.812 133.328 231.31 133.232 230.777 133.232C229.934 133.232 229.193 133.429 228.553 133.824C227.913 134.208 227.412 134.736 227.049 135.408C226.686 136.08 226.505 136.843 226.505 137.696C226.505 138.549 226.686 139.317 227.049 140C227.412 140.672 227.913 141.205 228.553 141.6C229.193 141.995 229.934 142.192 230.777 142.192ZM236.451 142H237.651V139.424L239.283 137.744L242.371 142H243.811L240.147 136.864L243.507 133.424H241.955L237.651 137.776V129.92H236.451V142ZM248.192 142.192C248.79 142.192 249.318 142.091 249.776 141.888C250.235 141.675 250.592 141.381 250.848 141.008C251.115 140.635 251.248 140.213 251.248 139.744C251.248 139.168 251.051 138.667 250.656 138.24C250.272 137.813 249.734 137.499 249.04 137.296L247.616 136.88C247.467 136.837 247.291 136.773 247.088 136.688C246.896 136.603 246.726 136.475 246.576 136.304C246.427 136.133 246.352 135.904 246.352 135.616C246.352 135.243 246.496 134.933 246.784 134.688C247.072 134.443 247.456 134.32 247.936 134.32C248.427 134.32 248.87 134.459 249.264 134.736C249.67 135.003 249.979 135.376 250.192 135.856L251.216 135.376C250.971 134.704 250.55 134.181 249.952 133.808C249.366 133.424 248.71 133.232 247.984 133.232C247.451 133.232 246.966 133.333 246.528 133.536C246.091 133.739 245.744 134.027 245.488 134.4C245.232 134.773 245.104 135.211 245.104 135.712C245.104 136.245 245.28 136.715 245.632 137.12C245.984 137.525 246.555 137.84 247.344 138.064L248.576 138.416C248.747 138.459 248.944 138.528 249.168 138.624C249.392 138.72 249.59 138.859 249.76 139.04C249.931 139.211 250.016 139.445 250.016 139.744C250.016 140.149 249.84 140.48 249.488 140.736C249.136 140.981 248.704 141.104 248.192 141.104C247.659 141.104 247.168 140.949 246.72 140.64C246.283 140.331 245.942 139.915 245.696 139.392L244.688 139.872C244.966 140.587 245.414 141.152 246.032 141.568C246.651 141.984 247.371 142.192 248.192 142.192ZM253.773 142H255.053V140.24H253.773V142Z" fill="#072125"/>
<rect width="44" height="44" rx="12" fill="#DCF2ED"/>
<g clip-path="url(#clip0_1376_483)">
<path d="M19.4 26.6L14.8 22L19.4 17.4L18 16L12 22L18 28L19.4 26.6ZM24.6 26.6L29.2 22L24.6 17.4L26 16L32 22L26 28L24.6 26.6Z" fill="#20484F"/>
</g>
<path d="M1.296 83H10.206V80.84H3.744V77.348H9.846V75.188H3.744V71.75H10.206V69.59H1.296V83ZM12.9371 83H15.2951V75.314H20.0651V83H22.4231V75.314H24.6011V73.208H22.4231V72.884C22.4231 72.392 22.5671 72.032 22.8551 71.804C23.1551 71.564 23.5631 71.444 24.0791 71.444C24.2711 71.444 24.4751 71.462 24.6911 71.498V69.464C24.4151 69.404 24.1091 69.374 23.7731 69.374C22.6451 69.374 21.7451 69.68 21.0731 70.292C20.4011 70.904 20.0651 71.768 20.0651 72.884V73.208H15.2951V72.884C15.2951 72.392 15.4391 72.032 15.7271 71.804C16.0271 71.564 16.4351 71.444 16.9511 71.444C17.1431 71.444 17.3471 71.462 17.5631 71.498V69.464C17.2871 69.404 16.9811 69.374 16.6451 69.374C15.5171 69.374 14.6171 69.68 13.9451 70.292C13.2731 70.904 12.9371 71.768 12.9371 72.884V73.208H11.2091V75.314H12.9371V83ZM31.0227 83.216C31.9707 83.216 32.8347 83 33.6147 82.568C34.3947 82.124 35.0187 81.518 35.4867 80.75C35.9547 79.97 36.1887 79.088 36.1887 78.104C36.1887 77.12 35.9547 76.244 35.4867 75.476C35.0307 74.708 34.4127 74.102 33.6327 73.658C32.8527 73.214 31.9827 72.992 31.0227 72.992C30.0507 72.992 29.1747 73.214 28.3947 73.658C27.6147 74.102 26.9907 74.708 26.5227 75.476C26.0667 76.244 25.8387 77.12 25.8387 78.104C25.8387 79.088 26.0667 79.964 26.5227 80.732C26.9907 81.5 27.6147 82.106 28.3947 82.55C29.1867 82.994 30.0627 83.216 31.0227 83.216ZM31.0227 81.056C30.4947 81.056 30.0207 80.93 29.6007 80.678C29.1927 80.426 28.8687 80.078 28.6287 79.634C28.4007 79.178 28.2867 78.668 28.2867 78.104C28.2867 77.54 28.4007 77.036 28.6287 76.592C28.8687 76.148 29.1927 75.8 29.6007 75.548C30.0207 75.284 30.4947 75.152 31.0227 75.152C31.5507 75.152 32.0127 75.284 32.4087 75.548C32.8167 75.8 33.1347 76.148 33.3627 76.592C33.6027 77.036 33.7227 77.54 33.7227 78.104C33.7227 78.668 33.6027 79.178 33.3627 79.634C33.1347 80.078 32.8167 80.426 32.4087 80.678C32.0127 80.93 31.5507 81.056 31.0227 81.056ZM37.9769 83H40.3349V77.546C40.3349 76.802 40.5389 76.226 40.9469 75.818C41.3669 75.398 41.9069 75.188 42.5669 75.188H43.4129V73.1H42.8369C42.2369 73.1 41.7089 73.208 41.2529 73.424C40.7969 73.64 40.4429 74.03 40.1909 74.594V73.208H37.9769V83ZM49.437 83.108C49.833 83.108 50.223 83.078 50.607 83.018V80.984C50.379 81.02 50.169 81.038 49.977 81.038C49.401 81.038 48.981 80.906 48.717 80.642C48.453 80.378 48.321 80 48.321 79.508V75.314H50.571V73.208H48.321V70.976H45.963V71.732C45.963 72.212 45.831 72.578 45.567 72.83C45.303 73.082 44.931 73.208 44.451 73.208H44.271V75.314H45.963V79.634C45.963 80.726 46.263 81.578 46.863 82.19C47.475 82.802 48.333 83.108 49.437 83.108ZM52.4085 83H54.7665V69.59H52.4085V83ZM61.5877 83.216C62.5837 83.216 63.4537 82.994 64.1977 82.55C64.9537 82.094 65.4817 81.518 65.7817 80.822L63.8737 79.886C63.6577 80.258 63.3577 80.564 62.9737 80.804C62.6017 81.032 62.1457 81.146 61.6057 81.146C60.8977 81.146 60.3037 80.93 59.8237 80.498C59.3437 80.066 59.0677 79.49 58.9957 78.77H66.0517C66.0997 78.638 66.1297 78.488 66.1417 78.32C66.1657 78.14 66.1777 77.96 66.1777 77.78C66.1777 76.904 65.9917 76.106 65.6197 75.386C65.2477 74.666 64.7077 74.09 63.9997 73.658C63.2917 73.214 62.4277 72.992 61.4077 72.992C60.4957 72.992 59.6677 73.214 58.9237 73.658C58.1917 74.102 57.6097 74.708 57.1777 75.476C56.7577 76.232 56.5477 77.102 56.5477 78.086C56.5477 79.034 56.7577 79.898 57.1777 80.678C57.5977 81.458 58.1857 82.076 58.9417 82.532C59.6977 82.988 60.5797 83.216 61.5877 83.216ZM61.4077 74.936C62.0317 74.936 62.5477 75.128 62.9557 75.512C63.3757 75.884 63.6097 76.37 63.6577 76.97H59.0497C59.1817 76.322 59.4577 75.824 59.8777 75.476C60.3097 75.116 60.8197 74.936 61.4077 74.936ZM71.6912 83.216C72.4352 83.216 73.0832 83.09 73.6352 82.838C74.1872 82.586 74.6192 82.238 74.9312 81.794C75.2432 81.338 75.3992 80.816 75.3992 80.228C75.3992 79.544 75.1832 78.956 74.7512 78.464C74.3192 77.972 73.6952 77.612 72.8792 77.384L71.3132 76.916C70.9772 76.82 70.7012 76.694 70.4852 76.538C70.2692 76.382 70.1612 76.166 70.1612 75.89C70.1612 75.602 70.2752 75.368 70.5032 75.188C70.7312 75.008 71.0432 74.918 71.4392 74.918C71.9312 74.918 72.3752 75.05 72.7712 75.314C73.1792 75.578 73.4612 75.932 73.6172 76.376L75.4172 75.53C75.1172 74.738 74.6132 74.12 73.9052 73.676C73.1972 73.22 72.3812 72.992 71.4572 72.992C70.7492 72.992 70.1192 73.118 69.5672 73.37C69.0272 73.622 68.6012 73.976 68.2892 74.432C67.9892 74.876 67.8392 75.398 67.8392 75.998C67.8392 76.67 68.0492 77.252 68.4692 77.744C68.9012 78.236 69.5312 78.602 70.3592 78.842L71.9612 79.292C72.2732 79.376 72.5372 79.502 72.7532 79.67C72.9812 79.826 73.0952 80.042 73.0952 80.318C73.0952 80.642 72.9632 80.9 72.6992 81.092C72.4472 81.272 72.1112 81.362 71.6912 81.362C71.1392 81.362 70.6412 81.206 70.1972 80.894C69.7532 80.582 69.3992 80.15 69.1352 79.598L67.3712 80.444C67.6592 81.284 68.1872 81.956 68.9552 82.46C69.7352 82.964 70.6472 83.216 71.6912 83.216ZM80.9373 83.216C81.6813 83.216 82.3293 83.09 82.8813 82.838C83.4333 82.586 83.8653 82.238 84.1773 81.794C84.4893 81.338 84.6453 80.816 84.6453 80.228C84.6453 79.544 84.4293 78.956 83.9973 78.464C83.5653 77.972 82.9413 77.612 82.1253 77.384L80.5593 76.916C80.2233 76.82 79.9473 76.694 79.7313 76.538C79.5153 76.382 79.4073 76.166 79.4073 75.89C79.4073 75.602 79.5213 75.368 79.7493 75.188C79.9773 75.008 80.2893 74.918 80.6853 74.918C81.1773 74.918 81.6213 75.05 82.0173 75.314C82.4253 75.578 82.7073 75.932 82.8633 76.376L84.6633 75.53C84.3633 74.738 83.8593 74.12 83.1513 73.676C82.4433 73.22 81.6273 72.992 80.7033 72.992C79.9953 72.992 79.3653 73.118 78.8133 73.37C78.2733 73.622 77.8473 73.976 77.5353 74.432C77.2353 74.876 77.0853 75.398 77.0853 75.998C77.0853 76.67 77.2953 77.252 77.7153 77.744C78.1473 78.236 78.7773 78.602 79.6053 78.842L81.2073 79.292C81.5193 79.376 81.7833 79.502 81.9993 79.67C82.2273 79.826 82.3413 80.042 82.3413 80.318C82.3413 80.642 82.2093 80.9 81.9453 81.092C81.6933 81.272 81.3573 81.362 80.9373 81.362C80.3853 81.362 79.8873 81.206 79.4433 80.894C78.9993 80.582 78.6453 80.15 78.3813 79.598L76.6173 80.444C76.9053 81.284 77.4333 81.956 78.2013 82.46C78.9813 82.964 79.8933 83.216 80.9373 83.216ZM89.6566 72.11H92.0146V69.59H89.6566V72.11ZM89.6566 83H92.0146V73.208H89.6566V83ZM94.1918 83H96.5498V77.258C96.5498 76.622 96.7298 76.112 97.0898 75.728C97.4618 75.344 97.9418 75.152 98.5298 75.152C99.1178 75.152 99.5918 75.344 99.9518 75.728C100.324 76.1 100.51 76.61 100.51 77.258V83H102.868V76.7C102.868 75.968 102.712 75.326 102.4 74.774C102.088 74.21 101.65 73.772 101.086 73.46C100.534 73.148 99.8978 72.992 99.1778 72.992C98.5658 72.992 98.0138 73.112 97.5218 73.352C97.0418 73.592 96.6698 73.946 96.4058 74.414V73.208H94.1918V83ZM109.326 83.108C109.722 83.108 110.112 83.078 110.496 83.018V80.984C110.268 81.02 110.058 81.038 109.866 81.038C109.29 81.038 108.87 80.906 108.606 80.642C108.342 80.378 108.21 80 108.21 79.508V75.314H110.46V73.208H108.21V70.976H105.852V71.732C105.852 72.212 105.72 72.578 105.456 72.83C105.192 73.082 104.82 73.208 104.34 73.208H104.16V75.314H105.852V79.634C105.852 80.726 106.152 81.578 106.752 82.19C107.364 82.802 108.222 83.108 109.326 83.108ZM116.853 83.216C117.849 83.216 118.719 82.994 119.463 82.55C120.219 82.094 120.747 81.518 121.047 80.822L119.139 79.886C118.923 80.258 118.623 80.564 118.239 80.804C117.867 81.032 117.411 81.146 116.871 81.146C116.163 81.146 115.569 80.93 115.089 80.498C114.609 80.066 114.333 79.49 114.261 78.77H121.317C121.365 78.638 121.395 78.488 121.407 78.32C121.431 78.14 121.443 77.96 121.443 77.78C121.443 76.904 121.257 76.106 120.885 75.386C120.513 74.666 119.973 74.09 119.265 73.658C118.557 73.214 117.693 72.992 116.673 72.992C115.761 72.992 114.933 73.214 114.189 73.658C113.457 74.102 112.875 74.708 112.443 75.476C112.023 76.232 111.813 77.102 111.813 78.086C111.813 79.034 112.023 79.898 112.443 80.678C112.863 81.458 113.451 82.076 114.207 82.532C114.963 82.988 115.845 83.216 116.853 83.216ZM116.673 74.936C117.297 74.936 117.813 75.128 118.221 75.512C118.641 75.884 118.875 76.37 118.923 76.97H114.315C114.447 76.322 114.723 75.824 115.143 75.476C115.575 75.116 116.085 74.936 116.673 74.936ZM127.983 86.96C128.919 86.96 129.747 86.768 130.467 86.384C131.187 86 131.751 85.472 132.159 84.8C132.567 84.128 132.771 83.366 132.771 82.514V73.208H130.539V74.342C129.795 73.442 128.793 72.992 127.533 72.992C126.633 72.992 125.829 73.202 125.121 73.622C124.413 74.03 123.855 74.594 123.447 75.314C123.039 76.034 122.835 76.856 122.835 77.78C122.835 78.692 123.039 79.514 123.447 80.246C123.855 80.978 124.419 81.554 125.139 81.974C125.859 82.394 126.675 82.604 127.587 82.604C128.775 82.604 129.717 82.22 130.413 81.452V82.514C130.413 83.234 130.185 83.792 129.729 84.188C129.273 84.596 128.691 84.8 127.983 84.8C127.359 84.8 126.831 84.656 126.399 84.368C125.979 84.092 125.697 83.726 125.553 83.27L123.357 84.098C123.669 84.962 124.239 85.652 125.067 86.168C125.907 86.696 126.879 86.96 127.983 86.96ZM127.875 80.426C127.119 80.426 126.495 80.18 126.003 79.688C125.523 79.184 125.283 78.554 125.283 77.798C125.283 77.294 125.391 76.844 125.607 76.448C125.835 76.04 126.147 75.722 126.543 75.494C126.939 75.266 127.383 75.152 127.875 75.152C128.619 75.152 129.225 75.404 129.693 75.908C130.173 76.4 130.413 77.03 130.413 77.798C130.413 78.566 130.173 79.196 129.693 79.688C129.225 80.18 128.619 80.426 127.875 80.426ZM134.973 83H137.331V77.546C137.331 76.802 137.535 76.226 137.943 75.818C138.363 75.398 138.903 75.188 139.563 75.188H140.409V73.1H139.833C139.233 73.1 138.705 73.208 138.249 73.424C137.793 73.64 137.439 74.03 137.187 74.594V73.208H134.973V83ZM144.675 83.216C145.947 83.216 146.967 82.796 147.735 81.956V83H149.967V76.484C149.967 75.8 149.793 75.194 149.445 74.666C149.097 74.138 148.617 73.73 148.005 73.442C147.405 73.142 146.703 72.992 145.899 72.992C144.915 72.992 144.039 73.226 143.271 73.694C142.503 74.162 141.975 74.78 141.687 75.548L143.613 76.484C143.793 76.04 144.075 75.686 144.459 75.422C144.843 75.146 145.293 75.008 145.809 75.008C146.349 75.008 146.781 75.152 147.105 75.44C147.441 75.716 147.609 76.064 147.609 76.484V76.808L144.693 77.276C143.541 77.468 142.689 77.834 142.137 78.374C141.585 78.914 141.309 79.592 141.309 80.408C141.309 81.272 141.615 81.956 142.227 82.46C142.839 82.964 143.655 83.216 144.675 83.216ZM143.757 80.318C143.757 79.634 144.219 79.202 145.143 79.022L147.609 78.608V79.004C147.609 79.676 147.375 80.246 146.907 80.714C146.451 81.182 145.851 81.416 145.107 81.416C144.711 81.416 144.387 81.32 144.135 81.128C143.883 80.924 143.757 80.654 143.757 80.318ZM156.435 83.108C156.831 83.108 157.221 83.078 157.605 83.018V80.984C157.377 81.02 157.167 81.038 156.975 81.038C156.399 81.038 155.979 80.906 155.715 80.642C155.451 80.378 155.319 80 155.319 79.508V75.314H157.569V73.208H155.319V70.976H152.961V71.732C152.961 72.212 152.829 72.578 152.565 72.83C152.301 73.082 151.929 73.208 151.449 73.208H151.269V75.314H152.961V79.634C152.961 80.726 153.261 81.578 153.861 82.19C154.473 82.802 155.331 83.108 156.435 83.108ZM159.407 72.11H161.765V69.59H159.407V72.11ZM159.407 83H161.765V73.208H159.407V83ZM168.73 83.216C169.678 83.216 170.542 83 171.322 82.568C172.102 82.124 172.726 81.518 173.194 80.75C173.662 79.97 173.896 79.088 173.896 78.104C173.896 77.12 173.662 76.244 173.194 75.476C172.738 74.708 172.12 74.102 171.34 73.658C170.56 73.214 169.69 72.992 168.73 72.992C167.758 72.992 166.882 73.214 166.102 73.658C165.322 74.102 164.698 74.708 164.23 75.476C163.774 76.244 163.546 77.12 163.546 78.104C163.546 79.088 163.774 79.964 164.23 80.732C164.698 81.5 165.322 82.106 166.102 82.55C166.894 82.994 167.77 83.216 168.73 83.216ZM168.73 81.056C168.202 81.056 167.728 80.93 167.308 80.678C166.9 80.426 166.576 80.078 166.336 79.634C166.108 79.178 165.994 78.668 165.994 78.104C165.994 77.54 166.108 77.036 166.336 76.592C166.576 76.148 166.9 75.8 167.308 75.548C167.728 75.284 168.202 75.152 168.73 75.152C169.258 75.152 169.72 75.284 170.116 75.548C170.524 75.8 170.842 76.148 171.07 76.592C171.31 77.036 171.43 77.54 171.43 78.104C171.43 78.668 171.31 79.178 171.07 79.634C170.842 80.078 170.524 80.426 170.116 80.678C169.72 80.93 169.258 81.056 168.73 81.056ZM175.684 83H178.042V77.258C178.042 76.622 178.222 76.112 178.582 75.728C178.954 75.344 179.434 75.152 180.022 75.152C180.61 75.152 181.084 75.344 181.444 75.728C181.816 76.1 182.002 76.61 182.002 77.258V83H184.36V76.7C184.36 75.968 184.204 75.326 183.892 74.774C183.58 74.21 183.142 73.772 182.578 73.46C182.026 73.148 181.39 72.992 180.67 72.992C180.058 72.992 179.506 73.112 179.014 73.352C178.534 73.592 178.162 73.946 177.898 74.414V73.208H175.684V83ZM190.08 83.216C190.824 83.216 191.472 83.09 192.024 82.838C192.576 82.586 193.008 82.238 193.32 81.794C193.632 81.338 193.788 80.816 193.788 80.228C193.788 79.544 193.572 78.956 193.14 78.464C192.708 77.972 192.084 77.612 191.268 77.384L189.702 76.916C189.366 76.82 189.09 76.694 188.874 76.538C188.658 76.382 188.55 76.166 188.55 75.89C188.55 75.602 188.664 75.368 188.892 75.188C189.12 75.008 189.432 74.918 189.828 74.918C190.32 74.918 190.764 75.05 191.16 75.314C191.568 75.578 191.85 75.932 192.006 76.376L193.806 75.53C193.506 74.738 193.002 74.12 192.294 73.676C191.586 73.22 190.77 72.992 189.846 72.992C189.138 72.992 188.508 73.118 187.956 73.37C187.416 73.622 186.99 73.976 186.678 74.432C186.378 74.876 186.228 75.398 186.228 75.998C186.228 76.67 186.438 77.252 186.858 77.744C187.29 78.236 187.92 78.602 188.748 78.842L190.35 79.292C190.662 79.376 190.926 79.502 191.142 79.67C191.37 79.826 191.484 80.042 191.484 80.318C191.484 80.642 191.352 80.9 191.088 81.092C190.836 81.272 190.5 81.362 190.08 81.362C189.528 81.362 189.03 81.206 188.586 80.894C188.142 80.582 187.788 80.15 187.524 79.598L185.76 80.444C186.048 81.284 186.576 81.956 187.344 82.46C188.124 82.964 189.036 83.216 190.08 83.216Z" fill="#072125"/>
<defs>
<clipPath id="clip0_1376_483">
<rect width="24" height="24" fill="white" transform="translate(10 10)"/>
</clipPath>
</defs>
</svg>
