<svg width="48" height="48" viewBox="0 0 48 48" fill="none" xmlns="http://www.w3.org/2000/svg">
<rect x="0.5" y="0.500244" width="47" height="47" rx="23.5" stroke="#20484F" stroke-opacity="0.1"/>
<path d="M34.46 18.0002C33.69 18.3502 32.86 18.5802 32 18.6902C32.88 18.1602 33.56 17.3202 33.88 16.3102C33.05 16.8102 32.13 17.1602 31.16 17.3602C30.37 16.5002 29.26 16.0002 28 16.0002C25.65 16.0002 23.73 17.9202 23.73 20.2902C23.73 20.6302 23.77 20.9602 23.84 21.2702C20.28 21.0902 17.11 19.3802 15 16.7902C14.63 17.4202 14.42 18.1602 14.42 18.9402C14.42 20.4302 15.17 21.7502 16.33 22.5002C15.62 22.5002 14.96 22.3002 14.38 22.0002V22.0302C14.38 24.1102 15.86 25.8502 17.82 26.2402C17.1907 26.4125 16.5301 26.4364 15.89 26.3102C16.1616 27.1627 16.6935 27.9087 17.411 28.4432C18.1285 28.9777 18.9954 29.2739 19.89 29.2902C18.3736 30.4907 16.494 31.1396 14.56 31.1302C14.22 31.1302 13.88 31.1102 13.54 31.0702C15.44 32.2902 17.7 33.0002 20.12 33.0002C28 33.0002 32.33 26.4602 32.33 20.7902C32.33 20.6002 32.33 20.4202 32.32 20.2302C33.16 19.6302 33.88 18.8702 34.46 18.0002Z" fill="#072125"/>
</svg>
